<svg version="1.1" xmlns="http://www.w3.org/2000/svg" xmlns:xlink="http://www.w3.org/1999/xlink" width="819.95293" height="373.87389" viewBox="0,0,819.95293,373.87389"><defs><linearGradient x1="277.494" y1="0.03717" x2="277.494" y2="363.40053" gradientUnits="userSpaceOnUse" id="color-1"><stop offset="0" stop-color="#484848"/><stop offset="1" stop-color="#666666"/></linearGradient><linearGradient x1="374.84865" y1="-10.47335" x2="374.84865" y2="363.40052" gradientUnits="userSpaceOnUse" id="color-2"><stop offset="0" stop-color="#212121"/><stop offset="1" stop-color="#232323"/></linearGradient><linearGradient x1="-93.83925" y1="254.25396" x2="596.30479" y2="256.18061" gradientUnits="userSpaceOnUse" id="color-3"><stop offset="0" stop-color="#212121"/><stop offset="1" stop-color="#232323"/></linearGradient><linearGradient x1="225.90241" y1="187.72485" x2="225.90241" y2="294.33146" gradientUnits="userSpaceOnUse" id="color-4"><stop offset="0" stop-color="#66411f"/><stop offset="1" stop-color="#352210"/></linearGradient><linearGradient x1="424.85136" y1="183.22035" x2="424.85136" y2="294.33146" gradientUnits="userSpaceOnUse" id="color-5"><stop offset="0" stop-color="#66411f"/><stop offset="1" stop-color="#352210"/></linearGradient><linearGradient x1="23.95046" y1="190.72785" x2="23.95046" y2="291.32845" gradientUnits="userSpaceOnUse" id="color-6"><stop offset="0" stop-color="#66411f"/><stop offset="1" stop-color="#352210"/></linearGradient><linearGradient x1="230.40691" y1="184.72185" x2="230.40691" y2="300.33746" gradientUnits="userSpaceOnUse" id="color-7"><stop offset="0" stop-color="#66411f"/><stop offset="1" stop-color="#352210"/></linearGradient><linearGradient x1="29.20571" y1="186.22335" x2="29.20571" y2="309.34647" gradientUnits="userSpaceOnUse" id="color-8"><stop offset="0" stop-color="#66411f"/><stop offset="1" stop-color="#352210"/></linearGradient><linearGradient x1="437.61412" y1="181.71884" x2="437.61412" y2="312.34947" gradientUnits="userSpaceOnUse" id="color-9"><stop offset="0" stop-color="#66411f"/><stop offset="1" stop-color="#352210"/></linearGradient><linearGradient x1="188.90541" y1="187.72485" x2="188.90541" y2="312.34947" gradientUnits="userSpaceOnUse" id="color-10"><stop offset="0" stop-color="#66411f"/><stop offset="1" stop-color="#352210"/></linearGradient></defs><g transform="translate(91.34674,10.47336)"><g data-paper-data="{&quot;isPaintingLayer&quot;:true}" fill-rule="nonzero" stroke="none" stroke-width="0" stroke-linecap="butt" stroke-linejoin="miter" stroke-miterlimit="10" stroke-dasharray="" stroke-dashoffset="0" style="mix-blend-mode: normal"><path d="M-86.07957,363.40053v-363.36336h727.14715v363.36336z" fill="url(#color-1)"/><path d="M477.27995,363.4005c0,0 -31.37226,-98.71201 -33.74081,-224.39147c-1.54195,-81.81848 3.25698,-143.28792 3.25698,-143.28792l281.81007,-6.19447l-12.67192,373.87388z" data-paper-data="{&quot;index&quot;:null}" fill="url(#color-2)"/><path d="M597.02648,180.31181c0,0 -182.43626,22.72811 -414.44811,23.8348c-151.04185,0.72047 -264.47615,-3.15077 -264.47615,-3.15077l-9.44895,-208.76298l690.05478,11.31249z" data-paper-data="{&quot;index&quot;:null}" fill="url(#color-3)"/><path d="M-3.07657,294.33146v-106.60661h457.95796v106.60661z" fill="url(#color-4)"/><path d="M390.31682,294.33146v-111.11111h69.06907v111.11111z" fill="url(#color-5)"/><path d="M-3.07657,291.32845v-100.6006h54.05405v100.6006z" fill="url(#color-6)"/><path d="M1.42793,300.33746v-115.61562h457.95796v115.61562z" fill="url(#color-7)"/><path d="M1.42793,309.34647v-123.12312h55.55556v123.12312z" fill="url(#color-8)"/><path d="M414.34085,312.34947v-130.63063h46.54655v130.63063z" fill="url(#color-9)"/><path d="M-84.57807,312.34947v-124.62462h546.96697v124.62462z" fill="url(#color-10)"/></g></g></svg>