<svg version="1.1" xmlns="http://www.w3.org/2000/svg" xmlns:xlink="http://www.w3.org/1999/xlink" width="170.05343" height="197.4" viewBox="0,0,170.05343,197.4"><g transform="translate(-225.33333,-83.33333)"><g data-paper-data="{&quot;isPaintingLayer&quot;:true}" fill="#000000" fill-rule="nonzero" stroke="#ffffff" stroke-width="1" stroke-linecap="butt" stroke-linejoin="miter" stroke-miterlimit="10" stroke-dasharray="" stroke-dashoffset="0" style="mix-blend-mode: normal"><path d="M249.5,210.5v-104h103v104z"/><path d="M267.25,219.5v-8.5h10.14273v8.5z"/><path d="M264.75,245.7v-25.7h15.5v25.7z"/><path d="M230.75,249.5v-16h26v16z"/><path d="M256.89274,245v-6.5h7.35727v6.5z"/><path d="M288.75,265.5v-30h16v30z"/><path d="M280.41902,234.83333v-5.6h14.21432v5.6z"/><path d="M294.63333,273.83333v-7.6h5.4v7.6z"/><path d="M294.43333,280.23333v-6.2h75.6v6.2z"/><path d="M362.93296,274.43333v-89.83166h6.90038v89.83166z"/><path d="M362.45824,184.20168v-57.70167h15.87022v57.70167z"/><path d="M352.5,144.5v-3.33333h10v3.33333z"/><path d="M332.16667,225.16742v-14.00075h6.66667v14.00075z"/><path d="M331.5,274.16667v-32.64209h5.66667v32.64209z"/><path d="M319.16667,106.61902v-7.78568h8.33333v7.78568z"/><path d="M318.83333,98.83333v-15h41.33333v15z"/><path d="M225.83333,201.83333v-16.66667h23.33333v16.66667z"/><path d="M378.74531,151.33312v-10h15.64209v10z"/><path d="M269.16667,106.83333v-12.33333h35.33333v12.33333z"/><path d="M365.1988,126.30805v-4.82268h5.62641v4.82268z"/><path d="M317.45465,210.70415v-30.75769h35.25881v30.75769z"/><path d="M327.20757,241.7243v-15.96286h15.96745v15.96286z"/><path d="M364.25632,121.06301v-8.57265h20.78868v8.57265z"/><path d="M379.24467,177.1218v-10h15.64209v10z"/></g></g></svg>