<svg version="1.1" xmlns="http://www.w3.org/2000/svg" xmlns:xlink="http://www.w3.org/1999/xlink" width="644.64564" height="387.9359" viewBox="0,0,644.64564,387.9359"><defs><linearGradient x1="320" y1="-1.68168" x2="320" y2="361.68168" gradientUnits="userSpaceOnUse" id="color-1"><stop offset="0" stop-color="#959595"/><stop offset="1" stop-color="#535353"/></linearGradient><linearGradient x1="553.62463" y1="268.83185" x2="553.62463" y2="372.43545" gradientUnits="userSpaceOnUse" id="color-2"><stop offset="0" stop-color="#ffcd4a"/><stop offset="1" stop-color="#fff04a"/></linearGradient><linearGradient x1="227.8979" y1="264.32433" x2="227.8979" y2="367.92794" gradientUnits="userSpaceOnUse" id="color-3"><stop offset="0" stop-color="#ffcd4a"/><stop offset="1" stop-color="#fff04a"/></linearGradient><linearGradient x1="390.51952" y1="212.28228" x2="390.51952" y2="269.33934" gradientUnits="userSpaceOnUse" id="color-4"><stop offset="0" stop-color="#ffcd4a"/><stop offset="1" stop-color="#fff04a"/></linearGradient><radialGradient cx="104.53604" cy="231.15916" r="135.13514" gradientUnits="userSpaceOnUse" id="color-5"><stop offset="0" stop-color="#8e8e8e"/><stop offset="1" stop-color="#000000"/></radialGradient><radialGradient cx="320" cy="180" r="322" gradientUnits="userSpaceOnUse" id="color-6"><stop offset="0" stop-color="#000000" stop-opacity="0"/><stop offset="1" stop-color="#000000" stop-opacity="0.46275"/></radialGradient></defs><g transform="translate(2.57357,2.5)"><g data-paper-data="{&quot;isPaintingLayer&quot;:true}" fill-rule="nonzero" stroke-linejoin="miter" stroke-miterlimit="10" stroke-dasharray="" stroke-dashoffset="0" style="mix-blend-mode: normal"><path d="M-2.07207,361.68168v-363.36336h644.14414v363.36336z" fill="url(#color-1)" stroke="none" stroke-width="0" stroke-linecap="butt"/><path d="M533.35436,372.43545v-103.6036h40.54054v103.6036z" fill="url(#color-2)" stroke="#000000" stroke-width="2" stroke-linecap="butt"/><path d="M207.62763,367.92794v-103.60361h40.54054v103.60361z" fill="url(#color-3)" stroke="#000000" stroke-width="2" stroke-linecap="butt"/><path d="M207.13814,269.33934v-57.05706h366.76276v57.05706z" fill="url(#color-4)" stroke="#000000" stroke-width="2" stroke-linecap="butt"/><path d="M46.97598,362.43244l-49.54955,-268.76877l186.18619,-1.5015l-4.5045,270.27027z" fill="url(#color-5)" stroke="#000000" stroke-width="0" stroke-linecap="butt"/><path d="M493.24594,193.45521c0,0 11.31694,1.41995 32.92929,0.97873c23.24991,-0.47465 27.4515,-1.55089 32.15498,-0.5781c1.89285,0.39148 6.92002,4.76258 8.56022,8.36187c1.6146,3.54311 -1.6231,6.12292 -1.6231,6.12292c0,0 -8.4093,5.79699 -39.85059,5.8442c-31.75133,0.04767 -40.74121,-7.49814 -40.74121,-7.49814c0,0 -2.17737,-3.12352 1.2772,-6.55905c4.75323,-4.72704 7.2932,-6.67244 7.2932,-6.67244z" fill="#000000" stroke="#000000" stroke-width="1" stroke-linecap="round"/><path d="M541.81153,207.13777h-1.0525l-31.57515,-0.45107z" fill="none" stroke="#404040" stroke-width="1" stroke-linecap="round"/><path d="M270.16667,213.16668v-6.33333h28.66667v6.33333z" fill="#ffffff" stroke="#000000" stroke-width="0.5" stroke-linecap="butt"/><path d="M280.15476,211.73811v-2.92857h8.46429v2.92857z" fill="#000000" stroke="none" stroke-width="0" stroke-linecap="butt"/><path d="M276.36364,210.19759c0,0.77822 -0.77333,1.40909 -1.72727,1.40909c-0.95395,0 -1.72727,-0.63087 -1.72727,-1.40909c0,-0.77822 0.77333,-1.40909 1.72727,-1.40909c0.95395,0 1.72727,0.63087 1.72727,1.40909z" fill="#000000" stroke="#000000" stroke-width="0.5" stroke-linecap="butt"/><path d="M378.40373,385.41242c-0.23072,-0.09627 -0.13446,-0.32699 -0.13446,-0.32699c0.32088,-0.76908 0.68522,-1.6423 1.00611,-2.41138c1.3486,-3.23225 2.69668,-6.46473 4.0459,-9.69673c1.52531,-3.15272 3.05172,-6.3049 4.57763,-9.45733c1.5249,-3.15035 3.04979,-6.30069 4.57469,-9.45104c1.5249,-3.15035 3.04979,-6.30069 4.57469,-9.45104c1.5249,-3.15035 3.04979,-6.30069 4.57469,-9.45104c1.6435,-3.39537 5.30693,-3.83275 8.76409,-5.06745c3.2961,-1.17718 6.59219,-2.35435 9.88829,-3.53153c3.2961,-1.17718 6.59219,-2.35435 9.88829,-3.53153c3.2961,-1.17718 6.59219,-2.35435 9.88829,-3.53153c3.2961,-1.17718 6.59219,-2.35435 9.88829,-3.53153c2.82523,-1.00901 5.65045,-2.01802 8.47568,-3.02703c0,0 0.23544,-0.08408 0.31952,0.15135c0.08408,0.23544 -0.15135,0.31952 -0.15135,0.31952c-2.82523,1.00901 -5.65045,2.01802 -8.47568,3.02703c-3.2961,1.17718 -6.59219,2.35435 -9.88829,3.53153c-3.2961,1.17718 -6.59219,2.35435 -9.88829,3.53153c-3.2961,1.17718 -6.59219,2.35435 -9.88829,3.53153c-3.2961,1.17718 -6.59219,2.35435 -9.88829,3.53153c-3.31891,1.18533 -6.91867,1.58425 -8.48221,4.81442c-1.5249,3.15035 -3.04979,6.30069 -4.57469,9.45104c-1.5249,3.15035 -3.04979,6.30069 -4.57469,9.45104c-1.5249,3.15035 -3.04979,6.30069 -4.57469,9.45104c-1.52389,3.14826 -3.04725,6.29679 -4.57176,9.44475c-1.34619,3.22825 -2.69355,6.45601 -4.04038,9.68399c-0.32088,0.76908 -0.64177,1.53815 -0.96265,2.30723l-0.04346,0.10415c0,0 -0.09627,0.23072 -0.32699,0.13446z" fill-opacity="0.68627" fill="#000000" stroke="none" stroke-width="0.5" stroke-linecap="butt"/><path d="M615.48963,202.66771c-0.23602,-0.08243 -0.15358,-0.31845 -0.15358,-0.31845c0.05496,-0.15735 0.23934,-0.68526 0.2943,-0.84261c1.03328,-2.95838 3.70679,-6.53991 3.68367,-9.66087c-0.01208,-1.63035 0.38062,-3.87135 -0.03249,-5.43796c-0.37496,-1.42191 -1.68968,-3.01717 -2.40991,-4.31007c-1.70098,-3.05348 -3.40413,-6.10576 -5.10261,-9.16063c-2.03671,-2.84057 -4.06909,-5.68427 -6.10347,-8.52651c-2.03712,-2.84607 -4.07424,-5.69215 -6.11137,-8.53822c-2.08839,-2.9177 -3.29337,-6.10086 -4.68195,-9.40104c-1.27064,-3.01988 -2.69853,-5.32252 -2.0453,-8.5887c0,0 0.04903,-0.24515 0.29417,-0.19612c0.24515,0.04903 0.19612,0.29417 0.19612,0.29417c-0.62925,3.14626 0.7851,5.37161 2.01587,8.29673c1.37404,3.26563 2.5618,6.41771 4.62766,9.30393c2.03712,2.84607 4.07424,5.69215 6.11137,8.53822c2.03986,2.8499 4.08161,5.69845 6.11926,8.54993c1.70794,3.06037 3.41148,6.12321 5.11704,9.18491c0.74324,1.33422 2.06866,2.9548 2.45659,4.4259c0.42614,1.61599 0.03657,3.88396 0.049,5.56174c0.02376,3.2071 -2.65285,6.79808 -3.71162,9.82944c-0.05496,0.15735 -0.10991,0.31469 -0.16487,0.47204l-0.12943,0.37057c0,0 -0.08243,0.23602 -0.31845,0.15358z" fill-opacity="0.68627" fill="#000000" stroke="none" stroke-width="0.5" stroke-linecap="butt"/><path d="M516.74894,96.43168c-0.25,-0.00031 -0.24969,-0.25031 -0.24969,-0.25031c0.00313,-2.5 0.00634,-5.06713 0.00947,-7.56712c0.00434,-3.46439 0.92816,-7.00054 1.50541,-10.41547c0.58335,-3.45104 1.16669,-6.90209 1.75004,-10.35313c0.61478,-3.63699 1.55476,-6.65579 2.98901,-10.05247c1.36148,-3.22434 2.72295,-6.44868 4.08443,-9.67303c1.39856,-3.31217 3.05085,-6.21852 4.96443,-9.25989c1.8639,-2.96241 3.72779,-5.92483 5.59169,-8.88724c1.6388,-2.60465 3.14339,-4.94547 4.11836,-7.87039c0,0 0.07906,-0.23717 0.31623,-0.15811c0.23717,0.07906 0.15811,0.31623 0.15811,0.31623c-0.9878,2.96339 -2.51003,5.34104 -4.1695,7.97855c-1.8639,2.96241 -3.72779,5.92483 -5.59169,8.88724c-1.89995,3.01971 -3.53854,5.89985 -4.92701,9.18812c-1.36148,3.22434 -2.72295,6.44868 -4.08443,9.67303c-1.42091,3.36511 -2.34762,6.33846 -2.95662,9.94131c-0.58335,3.45104 -1.16669,6.90209 -1.75004,10.35313c-0.57247,3.38672 -1.49411,6.89723 -1.49841,10.33276c-0.00313,2.5 -0.00626,5 -0.00939,7.49999l-0.00008,0.06713c0,0 -0.00031,0.25 -0.25031,0.24969z" fill-opacity="0.68627" fill="#000000" stroke="none" stroke-width="0.5" stroke-linecap="butt"/><path d="M154.99783,88.20825c-0.02656,0.24859 -0.27514,0.22203 -0.27514,0.22203l-0.09818,-0.01049c-1.71775,-0.18353 -2.60859,-2.02241 -3.64838,-3.33423c-2.1741,-2.74286 -4.3482,-5.48573 -6.52229,-8.22859c-2.22482,-2.80686 -4.79077,-4.8669 -7.56324,-7.1254c-2.71358,-2.21054 -5.42716,-4.42107 -8.14075,-6.63161c-2.71358,-2.21054 -5.42716,-4.42107 -8.14075,-6.63161c-2.71358,-2.21054 -5.42716,-4.42107 -8.14075,-6.63161c-2.97621,-2.42448 -5.58273,-3.22626 -9.25521,-4.29269c-3.36116,-0.97602 -6.72231,-1.95205 -10.08347,-2.92807c-3.35669,-0.97473 -6.66683,-2.06851 -10.12133,-2.61396c-3.45717,-0.54587 -6.91434,-1.09174 -10.37151,-1.63761c-2.99342,-0.47265 -5.85449,-0.93272 -8.88759,-0.93272c0,0 -0.25,0 -0.25,-0.25c0,-0.25 0.25,-0.25 0.25,-0.25c3.05936,0 5.9467,0.46217 8.96557,0.93883c3.45717,0.54587 6.91434,1.09174 10.37151,1.63761c3.47565,0.54879 6.80569,1.64703 10.18278,2.62768c3.36116,0.97602 6.72231,1.95205 10.08347,2.92807c3.7261,1.082 6.4069,1.92124 9.43157,4.3852c2.71358,2.21054 5.42716,4.42107 8.14075,6.63161c2.71358,2.21054 5.42716,4.42107 8.14075,6.63161c2.71358,2.21054 5.42716,4.42107 8.14075,6.63161c2.79981,2.28078 5.39176,4.36698 7.63929,7.20247c2.1741,2.74286 4.3482,5.48573 6.52229,8.22859c0.9358,1.18062 1.79729,2.98606 3.30967,3.14765l0.09818,0.01049c0,0 0.24859,0.02656 0.22203,0.27514z" fill-opacity="0.68627" fill="#000000" stroke="none" stroke-width="0.5" stroke-linecap="butt"/><path d="M267.74759,378.43168c-0.24999,-0.00166 -0.24834,-0.25165 -0.24834,-0.25165c0.00663,-0.99998 0.01516,-2.28854 0.02179,-3.28852c0.024,-3.6221 0.38898,-6.89056 1.06638,-10.44791c0.65472,-3.43822 1.30944,-6.87644 1.96415,-10.31465c0.65472,-3.43822 1.30944,-6.87644 1.96415,-10.31465c0.72669,-3.81618 1.47628,-6.49142 3.54411,-9.79408c1.85737,-2.96651 3.71473,-5.93302 5.5721,-8.89953c1.85737,-2.96651 3.71473,-5.93302 5.5721,-8.89953c1.76933,-2.8259 3.27733,-7.06303 6.64566,-7.67545c2.95161,-0.53666 5.90322,-1.07331 8.85483,-1.60997c0,0 0.24597,-0.04472 0.29069,0.20125c0.04472,0.24597 -0.20125,0.29069 -0.20125,0.29069c-2.95161,0.53666 -5.90322,1.07331 -8.85483,1.60997c-3.15434,0.57352 -4.63468,4.77101 -6.31132,7.44886c-1.85737,2.96651 -3.71473,5.93302 -5.5721,8.89953c-1.85737,2.96651 -3.71473,5.93302 -5.5721,8.89953c-2.03993,3.2581 -2.75916,5.854 -3.47672,9.62227c-0.65472,3.43822 -1.30944,6.87644 -1.96415,10.31465c-0.65472,3.43822 -1.30944,6.87644 -1.96415,10.31465c-0.67216,3.52982 -1.03375,6.7638 -1.05756,10.3577c-0.00663,0.99998 -0.01325,1.99996 -0.01988,2.99993l-0.00191,0.28859c0,0 -0.00166,0.24999 -0.25165,0.24834z" fill-opacity="0.68627" fill="#000000" stroke="none" stroke-width="0.5" stroke-linecap="butt"/><path d="M23.77914,349.4299c-0.24821,0.02989 -0.2781,-0.21832 -0.2781,-0.21832c-0.09963,-0.82736 -0.25471,-2.1151 -0.35434,-2.94246c-0.41846,-3.47489 -0.83691,-6.94979 -1.25537,-10.42468c-0.41846,-3.47489 -0.83691,-6.94979 -1.25537,-10.42468c-0.41846,-3.47489 -0.83691,-6.94979 -1.25537,-10.42468c-0.41913,-3.48047 -0.49016,-6.94696 -2.02145,-10.11448c-1.52335,-3.15109 -3.04671,-6.30219 -4.57006,-9.45328c-1.52335,-3.15109 -3.04671,-6.30219 -4.57006,-9.45328c-1.29482,-2.67838 -4.1532,-3.9475 -6.60844,-5.58432c0,0 -0.20801,-0.13868 -0.06934,-0.34669c0.13868,-0.20801 0.34669,-0.06934 0.34669,-0.06934c2.53988,1.69326 5.43714,3.00241 6.78124,5.78273c1.52335,3.15109 3.04671,6.30219 4.57006,9.45328c1.52335,3.15109 3.04671,6.30219 4.57006,9.45328c1.55811,3.223 1.64158,6.73366 2.06771,10.27232c0.41846,3.47489 0.83691,6.94979 1.25537,10.42468c0.41846,3.47489 0.83691,6.94979 1.25537,10.42468c0.41846,3.47489 0.83691,6.94979 1.25537,10.42468c0.09963,0.82736 0.19927,1.65471 0.2989,2.48207l0.05544,0.46039c0,0 0.02989,0.24821 -0.21832,0.2781z" fill-opacity="0.68627" fill="#000000" stroke="none" stroke-width="0.5" stroke-linecap="butt"/><path d="M361.99894,191.19417c-0.01248,0.24969 -0.26217,0.2372 -0.26217,0.2372c-1.49813,-0.07491 -3.04616,-0.15231 -4.54429,-0.22721c-3.49563,-0.17478 -6.99127,-0.34956 -10.4869,-0.52434c-3.49563,-0.17478 -6.99127,-0.34956 -10.4869,-0.52434c-3.49563,-0.17478 -6.99127,-0.34956 -10.4869,-0.52434c-2.99926,-0.14996 -5.97963,-0.19944 -8.98252,-0.19944c0,0 -0.25,0 -0.25,-0.25c0,-0.25 0.25,-0.25 0.25,-0.25c3.01117,0 5.99995,0.04969 9.00749,0.20006c3.49563,0.17478 6.99127,0.34956 10.4869,0.52434c3.49563,0.17478 6.99127,0.34956 10.4869,0.52434c3.49563,0.17478 6.99127,0.34956 10.4869,0.52434c1.49813,0.07491 2.99626,0.14981 4.49439,0.22472l0.04991,0.0025c0,0 0.24969,0.01248 0.2372,0.26217z" fill-opacity="0.68627" fill="#000000" stroke="none" stroke-width="0.5" stroke-linecap="butt"/><path d="M374.98642,189.10263c0.07906,0.23717 -0.15811,0.31623 -0.15811,0.31623c-0.94868,0.31623 -2.05132,0.68377 -3,1c0,0 -0.23717,0.07906 -0.31623,-0.15811c-0.07906,-0.23717 0.15811,-0.31623 0.15811,-0.31623c0.94868,-0.31623 1.89737,-0.63246 2.84605,-0.94868l0.15395,-0.05132c0,0 0.23717,-0.07906 0.31623,0.15811z" fill-opacity="0.68627" fill="#000000" stroke="none" stroke-width="0.5" stroke-linecap="butt"/><path d="M438.98563,318.26309c-0.0814,0.23638 -0.31777,0.15498 -0.31777,0.15498c-2.04861,-0.70543 -4.25975,-1.46682 -6.30836,-2.17225c-3.3093,-1.13954 -6.61859,-2.27908 -9.92789,-3.41862c-3.35357,-1.15479 -6.48378,-2.3744 -10.01994,-2.72791c-3.48264,-0.34815 -6.96528,-0.69631 -10.44792,-1.04446c-3.48264,-0.34815 -6.96528,-0.69631 -10.44792,-1.04446c-3.48264,-0.34815 -6.96528,-0.69631 -10.44792,-1.04446c-3.48264,-0.34815 -6.96528,-0.69631 -10.44792,-1.04446c-3.48235,-0.34812 -6.96421,-0.65643 -10.45275,-0.93552c-3.48885,-0.27911 -6.97771,-0.55822 -10.46656,-0.83732c-2.99045,-0.23924 -5.98089,-0.47847 -8.97134,-0.71771c0,0 -0.2492,-0.01994 -0.22927,-0.26914c0.01994,-0.2492 0.26914,-0.22927 0.26914,-0.22927c2.99045,0.23924 5.98089,0.47847 8.97134,0.71771c3.48885,0.27911 6.97771,0.55822 10.46656,0.83732c3.49184,0.27935 6.97699,0.58795 10.46262,0.9364c3.48264,0.34815 6.96528,0.69631 10.44792,1.04446c3.48264,0.34815 6.96528,0.69631 10.44792,1.04446c3.48264,0.34815 6.96528,0.69631 10.44792,1.04446c3.48264,0.34815 6.96528,0.69631 10.44792,1.04446c3.57637,0.35752 6.74253,1.58518 10.133,2.75267c3.3093,1.13954 6.61859,2.27908 9.92789,3.41862c2.04861,0.70543 4.09722,1.41086 6.14584,2.11629l0.16252,0.05596c0,0 0.23638,0.0814 0.15498,0.31777z" fill-opacity="0.68627" fill="#000000" stroke="none" stroke-width="0.5" stroke-linecap="butt"/><path d="M630.80577,247.93816c0.24353,0.05652 0.18701,0.30005 0.18701,0.30005c-0.3768,1.62351 -0.8246,3.55293 -1.2014,5.17645c-0.79175,3.41139 -1.53269,6.83813 -2.44458,10.21951c-0.91132,3.37927 -1.82264,6.75855 -2.73397,10.13782c-0.91132,3.37927 -1.82264,6.75855 -2.73397,10.13782c-0.91132,3.37927 -1.82264,6.75855 -2.73397,10.13782c-0.91132,3.37927 -1.82264,6.75855 -2.73397,10.13782c-0.91132,3.37927 -1.82264,6.75855 -2.73397,10.13782c-0.91084,3.37747 -1.82131,6.75505 -2.73257,10.13241c-0.65002,2.92682 -1.30071,5.8535 -1.9511,8.78024c0,0 -0.05423,0.24405 -0.29828,0.18981c-0.24405,-0.05423 -0.18981,-0.29828 -0.18981,-0.29828c0.6512,-2.93038 1.30209,-5.86083 1.95365,-8.79113c0.91139,-3.38119 1.82355,-6.76216 2.73536,-10.14324c0.91132,-3.37927 1.82264,-6.75855 2.73397,-10.13782c0.91132,-3.37927 1.82264,-6.75855 2.73397,-10.13782c0.91132,-3.37927 1.82264,-6.75855 2.73397,-10.13782c0.91132,-3.37927 1.82264,-6.75855 2.73397,-10.13782c0.91132,-3.37927 1.82264,-6.75855 2.73397,-10.13782c0.91035,-3.37568 1.64987,-6.79672 2.44028,-10.20236c0.3768,-1.62351 0.7536,-3.24703 1.1304,-4.87054l0.071,-0.3059c0,0 0.05652,-0.24353 0.30005,-0.18701z" fill-opacity="0.68627" fill="#000000" stroke="none" stroke-width="0.5" stroke-linecap="butt"/><path d="M448.50562,303.12563c0.05607,-0.24363 0.2997,-0.18756 0.2997,-0.18756c0.48726,0.11215 1.42141,0.32714 1.90867,0.43929c3.41083,0.78502 6.82165,1.57004 10.23248,2.35506c3.41083,0.78502 6.82165,1.57004 10.23248,2.35506c1.42983,0.32908 3.68369,0.41226 4.94283,1.14934c1.38255,0.80931 2.67455,2.92503 3.75839,4.11725c2.01802,2.21982 4.03604,4.43964 6.05406,6.65946c0,0 0.16817,0.18499 -0.01682,0.35315c-0.18499,0.16817 -0.35315,-0.01682 -0.35315,-0.01682c-2.01802,-2.21982 -4.03604,-4.43964 -6.05406,-6.65946c-1.0434,-1.14774 -2.31597,-3.24643 -3.64101,-4.02209c-1.20193,-0.70358 -3.43092,-0.77793 -4.80239,-1.09358c-3.41083,-0.78502 -6.82165,-1.57004 -10.23248,-2.35506c-3.41083,-0.78502 -6.82165,-1.57004 -10.23248,-2.35506c-0.48726,-0.11215 -0.97452,-0.22429 -1.46178,-0.33644l-0.44689,-0.10285c0,0 -0.24363,-0.05607 -0.18756,-0.2997z" fill-opacity="0.68627" fill="#000000" stroke="none" stroke-width="0.5" stroke-linecap="butt"/><path d="M418.50176,297.14633c0.03536,-0.24749 0.28284,-0.21213 0.28284,-0.21213c1.64992,0.2357 3.44054,0.49151 5.09045,0.72721c2.96985,0.42426 5.9397,0.84853 8.90955,1.27279c0,0 0.24749,0.03536 0.21213,0.28284c-0.03536,0.24749 -0.28284,0.21213 -0.28284,0.21213c-2.96985,-0.42426 -5.9397,-0.84853 -8.90955,-1.27279c-1.64992,-0.2357 -3.29983,-0.4714 -4.94975,-0.70711l-0.14071,-0.0201c0,0 -0.24749,-0.03536 -0.21213,-0.28284z" fill-opacity="0.68627" fill="#000000" stroke="none" stroke-width="0.5" stroke-linecap="butt"/><path d="M197.56038,204.34548c-0.16379,-0.18887 0.02507,-0.35266 0.02507,-0.35266l0.1533,-0.13295c1.89433,-1.64285 4.45037,-2.33715 6.76674,-3.27271c1.08048,-0.4364 3.2647,-0.84808 4.09409,-1.63483c1.11711,-1.05967 1.82008,-3.94128 2.48282,-5.36144c1.47212,-3.15454 2.90882,-6.3287 4.42278,-9.46335c-0.03967,-2.981 -0.00593,-5.96457 -0.00593,-8.94585c0,0 0,-0.25 0.25,-0.25c0.25,0 0.25,0.25 0.25,0.25c0,3.01764 0.02638,6.03669 -0.00593,9.05415c-1.4533,3.20327 -2.9703,6.37896 -4.45782,9.5665c-0.69624,1.49193 -1.40812,4.38994 -2.59181,5.51276c-0.89475,0.84873 -3.09805,1.27003 -4.25095,1.73568c-2.26051,0.913 -4.77942,1.58506 -6.6264,3.18684l-0.1533,0.13295c0,0 -0.18887,0.16379 -0.35266,-0.02507z" fill-opacity="0.68627" fill="#000000" stroke="none" stroke-width="0.5" stroke-linecap="butt"/><path d="M20.94805,67.33326c-0.15158,0.1988 -0.35039,0.04722 -0.35039,0.04722c-1.59041,-1.21268 -3.20201,-2.44151 -4.79242,-3.65419c-0.687,-0.52383 -3.0199,-1.74066 -3.26826,-2.55089c-0.38859,-1.26769 1.63942,-5.02098 2.07427,-6.31381c1.1158,-3.31738 2.2316,-6.63475 3.3474,-9.95213c1.10179,-3.27573 4.186,-5.65591 6.55521,-8.14387c2.41364,-2.53463 4.82728,-5.06926 7.24092,-7.60389c2.41364,-2.53463 4.82728,-5.06926 7.24092,-7.60389c1.52828,-1.60489 4.50356,-5.17142 4.50356,-7.37613c0,0 0,-0.25 0.25,-0.25c0.25,0 0.25,0.25 0.25,0.25c0,2.35398 -3.01743,6.01549 -4.64147,7.72093c-2.41364,2.53463 -4.82728,5.06926 -7.24092,7.60389c-2.41364,2.53463 -4.82728,5.06926 -7.24092,7.60389c-2.31173,2.42762 -5.36989,4.76687 -6.44338,7.95847c-1.1158,3.31738 -2.2316,6.63475 -3.3474,9.95213c-0.38676,1.14988 -2.39717,4.94099 -2.07013,6.00787c0.18899,0.61654 2.52312,1.865 3.09339,2.29982c1.59041,1.21268 3.18082,2.42536 4.77124,3.63804l0.02118,0.01615c0,0 0.1988,0.15158 0.04722,0.35039z" fill-opacity="0.68627" fill="#000000" stroke="none" stroke-width="0.5" stroke-linecap="butt"/><path d="M504.94867,72.33244c-0.15076,0.19943 -0.35019,0.04866 -0.35019,0.04866c-0.7977,-0.60305 -1.87386,-1.41661 -2.67156,-2.01967c-2.79195,-2.11069 -5.58391,-4.22137 -8.37586,-6.33206c-1.99425,-1.50763 -3.9885,-3.01527 -5.98276,-4.5229c-0.80055,-0.60521 -2.01999,-1.15978 -2.12487,-2.1901c-0.22321,-3.49288 -0.44642,-6.98575 -0.66963,-10.47863c-0.22022,-3.44605 1.82091,-6.79454 3.12715,-9.96682c1.11282,-2.70256 2.16629,-7.74025 4.49829,-9.48925c2.4,-1.8 4.8,-3.6 7.2,-5.4c0,0 0.2,-0.15 0.35,0.05c0.15,0.2 -0.05,0.35 -0.05,0.35c-2.4,1.8 -4.8,3.6 -7.2,5.4c-2.22612,1.66959 -3.26821,6.68655 -4.33595,9.27963c-1.27296,3.09147 -3.30475,6.39189 -3.0905,9.74456c0.22321,3.49288 0.44642,6.98575 0.66963,10.47863c0.0048,0.74614 1.33699,1.37678 1.92741,1.82313c1.99425,1.50763 3.9885,3.01527 5.98276,4.5229c2.79195,2.11069 5.58391,4.22137 8.37586,6.33206c0.7977,0.60305 1.5954,1.20611 2.3931,1.80916l0.27845,0.21051c0,0 0.19943,0.15076 0.04866,0.35019z" fill-opacity="0.68627" fill="#000000" stroke="none" stroke-width="0.5" stroke-linecap="butt"/><path d="M577.98648,102.26056c-0.07888,0.23723 -0.31611,0.15835 -0.31611,0.15835c-0.63261,-0.21035 -1.47618,-0.49084 -2.10879,-0.70119c-3.31333,-1.1017 -6.71085,-1.98325 -10.06491,-2.95416c-3.36197,-0.9732 -6.72395,-1.94641 -10.08592,-2.91961c-3.36197,-0.9732 -6.72395,-1.94641 -10.08592,-2.91961c-2.88169,-0.83417 -5.76339,-1.66835 -8.64508,-2.50252c0,0 -0.24014,-0.06951 -0.17063,-0.30966c0.06951,-0.24014 0.30966,-0.17063 0.30966,-0.17063c2.88169,0.83417 5.76339,1.66835 8.64508,2.50252c3.36197,0.9732 6.72395,1.94641 10.08592,2.91961c3.36197,0.9732 6.72395,1.94641 10.08592,2.91961c3.36036,0.97274 6.76409,1.85621 10.08364,2.95998c0.63261,0.21035 1.26522,0.42069 1.89784,0.63104l0.21096,0.07014c0,0 0.23723,0.07888 0.15835,0.31611z" fill-opacity="0.68627" fill="#000000" stroke="none" stroke-width="0.5" stroke-linecap="butt"/><path d="M-2,362.5v-365h644v365z" fill="url(#color-6)" stroke="none" stroke-width="0" stroke-linecap="butt"/><text transform="translate(516.48874,199.35875) scale(0.12108,0.12108)" font-size="40" xml:space="preserve" fill="#4c4c4c" fill-rule="nonzero" stroke="none" stroke-width="1" stroke-linecap="butt" stroke-linejoin="miter" stroke-miterlimit="10" stroke-dasharray="" stroke-dashoffset="0" font-family="&quot;ヒラギノ角ゴ Pro W3&quot;, &quot;Hiragino Kaku Gothic Pro&quot;, Osaka, &quot;メイリオ&quot;, Meiryo, &quot;ＭＳ Ｐゴシック&quot;, &quot;MS PGothic&quot;" font-weight="normal" text-anchor="start" style="mix-blend-mode: normal"><tspan x="0" dy="0">Sumsang</tspan><tspan x="0" dy="46.150000000000006px">G93-023</tspan></text></g></g></svg>