<svg version="1.1" xmlns="http://www.w3.org/2000/svg" xmlns:xlink="http://www.w3.org/1999/xlink" width="132.93612" height="202.3268" viewBox="0,0,132.93612,202.3268"><defs><linearGradient x1="215.57046" y1="178.65918" x2="209.96866" y2="217.88768" gradientUnits="userSpaceOnUse" id="color-1"><stop offset="0" stop-color="#0a00ff"/><stop offset="1" stop-color="#0034ff"/></linearGradient><linearGradient x1="205.78579" y1="198.4956" x2="221.16152" y2="198.4956" gradientUnits="userSpaceOnUse" id="color-2"><stop offset="0" stop-color="#0a00ff"/><stop offset="1" stop-color="#0034ff"/></linearGradient><linearGradient x1="205.78579" y1="198.4956" x2="221.16152" y2="198.4956" gradientUnits="userSpaceOnUse" id="color-3"><stop offset="0" stop-color="#0a00ff"/><stop offset="1" stop-color="#0034ff"/></linearGradient><linearGradient x1="210.44489" y1="241.97058" x2="211.16091" y2="205.68301" gradientUnits="userSpaceOnUse" id="color-4"><stop offset="0" stop-color="#0a00ff"/><stop offset="1" stop-color="#0034ff"/></linearGradient><linearGradient x1="165.29531" y1="248.99934" x2="157.05091" y2="379.7687" gradientUnits="userSpaceOnUse" id="color-5"><stop offset="0" stop-color="#0a00ff"/><stop offset="1" stop-color="#0034ff"/></linearGradient><linearGradient x1="210.97093" y1="205.32224" x2="206.86736" y2="270.41154" gradientUnits="userSpaceOnUse" id="color-6"><stop offset="0" stop-color="#0a00ff"/><stop offset="1" stop-color="#0034ff"/></linearGradient><linearGradient x1="124.88692" y1="206.13123" x2="114.96707" y2="275.59836" gradientUnits="userSpaceOnUse" id="color-7"><stop offset="0" stop-color="#0a00ff"/><stop offset="1" stop-color="#0034ff"/></linearGradient><linearGradient x1="108.80266" y1="240.55914" x2="132.61027" y2="240.55914" gradientUnits="userSpaceOnUse" id="color-8"><stop offset="0" stop-color="#0a00ff"/><stop offset="1" stop-color="#0034ff"/></linearGradient><linearGradient x1="108.80266" y1="240.55914" x2="132.61027" y2="240.55914" gradientUnits="userSpaceOnUse" id="color-9"><stop offset="0" stop-color="#0a00ff"/><stop offset="1" stop-color="#0034ff"/></linearGradient><linearGradient x1="197.56495" y1="240.01559" x2="220.97505" y2="240.01559" gradientUnits="userSpaceOnUse" id="color-10"><stop offset="0" stop-color="#0a00ff"/><stop offset="1" stop-color="#0034ff"/></linearGradient><linearGradient x1="197.56495" y1="240.01559" x2="220.97505" y2="240.01559" gradientUnits="userSpaceOnUse" id="color-11"><stop offset="0" stop-color="#0a00ff"/><stop offset="1" stop-color="#0034ff"/></linearGradient><linearGradient x1="126.57046" y1="178.65918" x2="120.96866" y2="217.88768" gradientUnits="userSpaceOnUse" id="color-12"><stop offset="0" stop-color="#0a00ff"/><stop offset="1" stop-color="#0034ff"/></linearGradient><linearGradient x1="116.78579" y1="198.4956" x2="132.16152" y2="198.4956" gradientUnits="userSpaceOnUse" id="color-13"><stop offset="0" stop-color="#0a00ff"/><stop offset="1" stop-color="#0034ff"/></linearGradient><linearGradient x1="116.78579" y1="198.4956" x2="132.16152" y2="198.4956" gradientUnits="userSpaceOnUse" id="color-14"><stop offset="0" stop-color="#0a00ff"/><stop offset="1" stop-color="#0034ff"/></linearGradient></defs><g transform="translate(-96.36473,-178.06914)"><g data-paper-data="{&quot;isPaintingLayer&quot;:true}" fill-rule="nonzero" stroke-width="1" stroke-linecap="butt" stroke-linejoin="miter" stroke-miterlimit="10" stroke-dasharray="" stroke-dashoffset="0" style="mix-blend-mode: normal"><path d="M215.57046,178.65918c7.22177,1.03127 11.82216,10.64887 10.27527,21.48152c-1.54689,10.83266 -8.65529,18.77825 -15.87707,17.74699c-7.22177,-1.03127 -11.82216,-10.64888 -10.27527,-21.48153c1.54689,-10.83266 8.65529,-18.77825 15.87707,-17.74698z" data-paper-data="{&quot;index&quot;:null}" fill="url(#color-1)" stroke="#000000"/><path d="M220.92514,199.55967c-1.04066,7.28759 -5.22044,12.71895 -9.33577,12.13128c-4.11533,-0.58767 -6.60786,-6.97183 -5.5672,-14.25942c1.04066,-7.28759 5.22045,-12.71895 9.33578,-12.13128c4.11533,0.58767 6.60786,6.97183 5.56719,14.25942z" data-paper-data="{&quot;index&quot;:null}" fill="url(#color-2)" stroke="url(#color-3)"/><path d="M192.73178,224.34531c0.19773,-10.02052 10.80171,-19.34811 18.42914,-18.66229c7.62743,0.68582 16.41449,10.65818 16.21676,20.6787c-0.19773,10.02052 -9.30537,16.29468 -16.9328,15.60886c-7.62743,-0.68582 -17.91083,-7.60475 -17.7131,-17.62527z" data-paper-data="{&quot;index&quot;:null}" fill="url(#color-4)" stroke="#000000"/><path d="M165.29531,248.99934c35.44223,2.23447 62.32826,33.31958 60.05164,69.43054c-2.27663,36.11097 -32.85381,63.57329 -68.29604,61.33882c-35.44223,-2.23447 -62.32825,-33.31959 -60.05163,-69.43054c2.27663,-36.11097 32.8538,-63.57328 68.29604,-61.33882z" data-paper-data="{&quot;index&quot;:null}" fill="url(#color-5)" stroke="#000000"/><path d="M210.97093,205.32224c10.92086,0.68851 18.85535,15.81741 17.72217,33.79131c-1.13318,17.97391 -10.9049,31.9865 -21.82576,31.29799c-10.92086,-0.68851 -18.85534,-15.81741 -17.72217,-33.79131c1.13318,-17.97391 10.9049,-31.9865 21.82576,-31.29799z" data-paper-data="{&quot;index&quot;:null}" fill="url(#color-6)" stroke="#000000"/><path d="M124.88693,206.13123c10.83263,1.5469 17.39361,18.35165 14.65432,37.53447c-2.73929,19.18281 -13.74154,33.47956 -24.57418,31.93267c-10.83263,-1.5469 -17.39361,-18.35166 -14.65432,-37.53447c2.73929,-19.18282 13.74154,-33.47956 24.57418,-31.93266z" data-paper-data="{&quot;index&quot;:null}" fill="url(#color-7)" stroke="#000000"/><path d="M123.62407,220.12763c6.37213,0.90993 10.23154,10.79508 8.62019,22.07909c-1.61135,11.28402 -8.08325,19.69386 -14.4554,18.78392c-6.37213,-0.90994 -10.23154,-10.79507 -8.62019,-22.07909c1.61135,-11.28402 8.08324,-19.69386 14.45539,-18.78393z" data-paper-data="{&quot;index&quot;:null}" fill="url(#color-8)" stroke="url(#color-9)"/><path d="M210.56861,219.41771c6.42403,0.405 11.05033,9.95531 10.33313,21.33121c-0.71719,11.3759 -6.5063,20.26956 -12.93034,19.86455c-6.42404,-0.40501 -11.05035,-9.95531 -10.33316,-21.33121c0.7172,-11.3759 6.50632,-20.26956 12.93036,-19.86455z" data-paper-data="{&quot;index&quot;:null}" fill="url(#color-10)" stroke="url(#color-11)"/><path d="M126.57046,178.65918c7.22176,1.03127 11.82216,10.64887 10.27527,21.48152c-1.54689,10.83266 -8.65529,18.77825 -15.87707,17.74699c-7.22177,-1.03127 -11.82216,-10.64888 -10.27527,-21.48153c1.54689,-10.83266 8.65529,-18.77825 15.87707,-17.74698z" data-paper-data="{&quot;index&quot;:null}" fill="url(#color-12)" stroke="#000000"/><path d="M131.92514,199.55967c-1.04066,7.28759 -5.22044,12.71895 -9.33577,12.13128c-4.11533,-0.58767 -6.60786,-6.97183 -5.5672,-14.25942c1.04066,-7.28759 5.22044,-12.71895 9.33577,-12.13128c4.11533,0.58767 6.60786,6.97183 5.5672,14.25942z" data-paper-data="{&quot;index&quot;:null}" fill="url(#color-13)" stroke="url(#color-14)"/></g></g></svg>