<svg version="1.1" xmlns="http://www.w3.org/2000/svg" xmlns:xlink="http://www.w3.org/1999/xlink" width="153.95544" height="218.6857" viewBox="0,0,153.95544,218.6857"><g transform="translate(-243.67794,-77.602)"><g data-paper-data="{&quot;isPaintingLayer&quot;:true}" fill-rule="nonzero" stroke="#000000" stroke-width="1.5" stroke-linejoin="miter" stroke-miterlimit="10" stroke-dasharray="" stroke-dashoffset="0" style="mix-blend-mode: normal"><path d="M328.125,144.75l1,82.25c0,0 -1.43292,15.12443 5.74604,27.89279c2.42739,4.3173 12.08898,6.35114 14.19659,10.75433c4.87849,10.19211 8.37826,18.18431 6.42509,22.67112c-1.1691,2.68566 -11.09307,7.9659 -38.89739,7.13096c-24.14947,-0.72518 -34.22034,-7.9492 -34.22034,-7.9492c0,0 2.13793,-9.14831 6.0418,-14.47856c1.54096,-2.10398 2.88054,-5.03836 4.84405,-8.40005c0.99556,-1.70447 9.91298,-3.6009 10.58019,-5.64044c1.79107,-5.47497 4.27605,-10.29065 5.48355,-14.37643c3.01541,-10.20315 2.3004,-16.10453 2.3004,-16.10453l1.5,-83z" fill="#333333" stroke-linecap="round"/><path d="M334.46415,171.2471c5.98191,-4.27345 10.94963,-12.64365 10.94963,-12.64365c0,0 36.1605,7.14083 38.21913,26.03284c1.49452,13.71517 -25.78558,37.38418 -25.78558,37.38418c0,0 -14.42816,15.54435 -42.57197,-2.52693c-8.48153,-5.44602 4.92593,-42.94175 4.92593,-42.94175c0,0 7.89797,-0.75767 14.26285,-5.3047z" fill="#000000" stroke-linecap="round"/><path d="M344.88744,154.26218c0,0 -0.63705,-7.90862 -5.08643,-14.34214c-4.18167,-6.04643 -12.47509,-11.1413 -12.47509,-11.1413c0,0 7.6918,-36.04732 26.61303,-37.81742c13.73638,-1.28505 36.98634,26.35304 36.98634,26.35304c0,0 15.32236,14.66369 -3.17628,42.52846c-5.57481,8.39743 -42.86158,-5.58065 -42.86158,-5.58065z" fill="#000000" stroke-linecap="round"/><path d="M320.5943,130.1588c0,0 -7.90234,0.71074 -14.29411,5.21988c-6.00719,4.23784 -11.02455,12.57838 -11.02455,12.57838c0,0 -36.11744,-7.3555 -38.06381,-26.25942c-1.41302,-13.7238 26.00719,-37.23035 26.00719,-37.23035c0,0 14.52025,-15.45836 42.55621,2.77978c8.44902,5.49632 -5.18095,42.91173 -5.18095,42.91173z" fill="#000000" stroke-linecap="round"/><path d="M295.3496,151.25075c0,0 1.04594,7.86499 5.82266,14.05935c4.48931,5.82165 13.03555,10.48001 13.03555,10.48001c0,0 -5.81389,36.39742 -24.618,39.14543c-13.65135,1.99498 -38.302,-24.40142 -38.302,-24.40142c0,0 -16.0615,-13.85017 0.96865,-42.63591c5.13227,-8.67497 43.09315,3.35253 43.09315,3.35253z" fill="#000000" stroke-linecap="round"/><path d="M344.625,151.64344c0,12.6437 -10.96902,22.89344 -24.5,22.89344c-13.53098,0 -24.5,-10.24974 -24.5,-22.89344c0,-12.6437 10.96902,-22.89344 24.5,-22.89344c13.53098,0 24.5,10.24974 24.5,22.89344z" fill="#333333" stroke-linecap="butt"/></g></g></svg>