<svg version="1.1" xmlns="http://www.w3.org/2000/svg" xmlns:xlink="http://www.w3.org/1999/xlink" width="155.8667" height="277.07089" viewBox="0,0,155.8667,277.07089"><defs><linearGradient x1="302.75" y1="218" x2="302.75" y2="303.5" gradientUnits="userSpaceOnUse" id="color-1"><stop offset="0" stop-color="#1538ff"/><stop offset="1" stop-color="#142aff"/></linearGradient><linearGradient x1="337.25" y1="217" x2="337.25" y2="302.5" gradientUnits="userSpaceOnUse" id="color-2"><stop offset="0" stop-color="#1538ff"/><stop offset="1" stop-color="#142aff"/></linearGradient><linearGradient x1="294.83728" y1="299.18665" x2="297.51466" y2="327.05835" gradientUnits="userSpaceOnUse" id="color-3"><stop offset="0" stop-color="#ff1414"/><stop offset="1" stop-color="#bb0f0f"/></linearGradient><linearGradient x1="292.24527" y1="300.44024" x2="294.73141" y2="326.32111" gradientUnits="userSpaceOnUse" id="color-4"><stop offset="0" stop-color="#ffffff"/><stop offset="1" stop-color="#bababa"/></linearGradient><linearGradient x1="293.88449" y1="311.22978" x2="294.86892" y2="321.47783" gradientUnits="userSpaceOnUse" id="color-5"><stop offset="0" stop-color="#fff800"/><stop offset="1" stop-color="#4a4c00"/></linearGradient><linearGradient x1="347.30545" y1="299.12551" x2="342.99331" y2="326.79147" gradientUnits="userSpaceOnUse" id="color-6"><stop offset="0" stop-color="#ff1414"/><stop offset="1" stop-color="#bb0f0f"/></linearGradient><linearGradient x1="349.81923" y1="300.5294" x2="345.8151" y2="326.21922" gradientUnits="userSpaceOnUse" id="color-7"><stop offset="0" stop-color="#ffffff"/><stop offset="1" stop-color="#bababa"/></linearGradient><linearGradient x1="347.54822" y1="311.20383" x2="345.96271" y2="321.37623" gradientUnits="userSpaceOnUse" id="color-8"><stop offset="0" stop-color="#fff800"/><stop offset="1" stop-color="#4a4c00"/></linearGradient><linearGradient x1="294.09658" y1="163.18993" x2="247.62674" y2="137.07185" gradientUnits="userSpaceOnUse" id="color-9"><stop offset="0" stop-color="#ffbe6b"/><stop offset="1" stop-color="#ffad46"/></linearGradient><linearGradient x1="348.88896" y1="161.96754" x2="395.3588" y2="188.08563" gradientUnits="userSpaceOnUse" id="color-10"><stop offset="0" stop-color="#ffbe6b"/><stop offset="1" stop-color="#ffad46"/></linearGradient><linearGradient x1="320.5" y1="137" x2="320.5" y2="223.5" gradientUnits="userSpaceOnUse" id="color-11"><stop offset="0" stop-color="#1538ff"/><stop offset="1" stop-color="#142aff"/></linearGradient><linearGradient x1="320" y1="147.90667" x2="320" y2="212.09334" gradientUnits="userSpaceOnUse" id="color-12"><stop offset="0" stop-color="#ffbe6b"/><stop offset="1" stop-color="#ffad46"/></linearGradient><radialGradient cx="340.30097" cy="148.20263" r="45.49794" gradientUnits="userSpaceOnUse" id="color-13"><stop offset="0" stop-color="#1538ff"/><stop offset="1" stop-color="#142aff"/></radialGradient><radialGradient cx="361.65703" cy="88.40568" r="56.63474" gradientUnits="userSpaceOnUse" id="color-14"><stop offset="0" stop-color="#1538ff"/><stop offset="1" stop-color="#142aff"/></radialGradient><radialGradient cx="282.92776" cy="63.77842" r="15.34316" gradientUnits="userSpaceOnUse" id="color-15"><stop offset="0" stop-color="#1538ff"/><stop offset="1" stop-color="#142aff"/></radialGradient><radialGradient cx="351.40274" cy="75.88018" r="14.29089" gradientUnits="userSpaceOnUse" id="color-16"><stop offset="0" stop-color="#1538ff"/><stop offset="1" stop-color="#142aff"/></radialGradient><radialGradient cx="277.65655" cy="77.72766" r="40.84345" gradientUnits="userSpaceOnUse" id="color-17"><stop offset="0" stop-color="#1538ff"/><stop offset="1" stop-color="#142aff"/></radialGradient><linearGradient x1="317.32542" y1="106.73743" x2="317.32542" y2="138.62903" gradientUnits="userSpaceOnUse" id="color-18"><stop offset="0" stop-color="#ffbe6b"/><stop offset="1" stop-color="#ffad46"/></linearGradient><linearGradient x1="316.56336" y1="71.63356" x2="316.56336" y2="114.46455" gradientUnits="userSpaceOnUse" id="color-19"><stop offset="0" stop-color="#ffffff"/><stop offset="1" stop-color="#f6f6f6"/></linearGradient><linearGradient x1="303.66941" y1="87.21688" x2="303.66941" y2="108.57293" gradientUnits="userSpaceOnUse" id="color-20"><stop offset="0" stop-color="#44ff00"/><stop offset="1" stop-color="#42bb00"/></linearGradient><radialGradient cx="301.41516" cy="101.3356" r="2.31357" gradientUnits="userSpaceOnUse" id="color-21"><stop offset="0" stop-color="#ffffff"/><stop offset="1" stop-color="#ffffff" stop-opacity="0"/></radialGradient><linearGradient x1="332.58325" y1="86.32705" x2="332.58325" y2="107.6831" gradientUnits="userSpaceOnUse" id="color-22"><stop offset="0" stop-color="#44ff00"/><stop offset="1" stop-color="#42bb00"/></linearGradient><radialGradient cx="334.8375" cy="100.44577" r="2.31357" gradientUnits="userSpaceOnUse" id="color-23"><stop offset="0" stop-color="#ffffff"/><stop offset="1" stop-color="#ffffff" stop-opacity="0"/></radialGradient></defs><g transform="translate(-237.22024,-50.42033)"><g data-paper-data="{&quot;isPaintingLayer&quot;:true}" fill-rule="nonzero" stroke-linejoin="miter" stroke-miterlimit="10" stroke-dasharray="" stroke-dashoffset="0" style="mix-blend-mode: normal"><path d="M344.4476,127.96687l0.07119,-2.20679" fill="none" stroke="#000000" stroke-width="0.5" stroke-linecap="round"/><path d="M315,260.75c0,23.61017 -5.48451,42.75 -12.25,42.75c-6.76549,0 -12.25,-19.13983 -12.25,-42.75c0,-23.61017 5.48451,-42.75 12.25,-42.75c6.76549,0 12.25,19.13983 12.25,42.75z" fill="url(#color-1)" stroke="#000000" stroke-width="0.5" stroke-linecap="butt"/><path d="M349.5,259.75c0,23.61017 -5.48451,42.75 -12.25,42.75c-6.76549,0 -12.25,-19.13983 -12.25,-42.75c0,-23.61017 5.48451,-42.75 12.25,-42.75c6.76549,0 12.25,19.13983 12.25,42.75z" fill="url(#color-2)" stroke="#000000" stroke-width="0.5" stroke-linecap="butt"/><path d="M319.07058,310.92323c0.73934,7.69656 -8.91158,14.9205 -21.55592,16.13512c-12.64435,1.21462 -23.49396,-4.04002 -24.2333,-11.73658c-0.73934,-7.69656 8.91158,-14.9205 21.55592,-16.13512c12.64435,-1.21462 23.49396,4.04002 24.2333,11.73658z" fill="url(#color-3)" stroke="#000000" stroke-width="0.5" stroke-linecap="butt"/><path d="M288.70153,326.29758l1.51466,-26.06426l10.17239,-0.77625l-1.65637,26.68064z" fill="url(#color-4)" stroke="#000000" stroke-width="0.5" stroke-linecap="butt"/><path d="M289.13741,320.51348l0.49405,-8.87515l9.98455,0.5558l-0.49405,8.87515z" fill="none" stroke="url(#color-5)" stroke-width="1.5" stroke-linecap="butt"/><path d="M347.30545,299.12551c12.55101,1.95626 21.76031,9.73535 20.56954,17.3751c-1.19077,7.63975 -12.33067,12.24712 -24.88168,10.29087c-12.55101,-1.95626 -21.76031,-9.73535 -20.56954,-17.3751c1.19077,-7.63975 12.33067,-12.24712 24.88168,-10.29087z" data-paper-data="{&quot;index&quot;:null}" fill="url(#color-6)" stroke="#000000" stroke-width="0.5" stroke-linecap="butt"/><path d="M341.83202,325.80081l-0.08416,-26.73187l10.10912,1.37324l-0.02105,26.10823z" data-paper-data="{&quot;index&quot;:null}" fill="url(#color-7)" stroke="#000000" stroke-width="0.5" stroke-linecap="butt"/><path d="M341.74107,320.71823l0.02885,-8.88884l9.99994,0.03245l-0.02885,8.88884z" data-paper-data="{&quot;index&quot;:null}" fill="none" stroke="url(#color-8)" stroke-width="1.5" stroke-linecap="butt"/><path d="M294.09658,163.18994c-2.34517,4.17258 -14.64894,1.70839 -27.48123,-5.50392c-12.83229,-7.21231 -14.73142,-20.31194 -12.38625,-24.48452c2.34517,-4.17258 4.04658,11.49529 16.87887,18.7076c12.83229,7.21231 25.33378,7.10826 22.98861,11.28084z" data-paper-data="{&quot;index&quot;:null}" fill="url(#color-9)" stroke="#000000" stroke-width="0.5" stroke-linecap="butt"/><path d="M257.37242,113.66284c6.1535,4.17512 8.08352,12.06731 4.31083,17.6277c-3.7727,5.56039 -11.81947,6.68338 -17.97297,2.50826c-6.1535,-4.17512 -8.08352,-12.06731 -4.31083,-17.6277c3.7727,-5.56039 11.81947,-6.68338 17.97297,-2.50826z" fill="#ffffff" stroke="#000000" stroke-width="0.5" stroke-linecap="butt"/><path d="M348.88896,161.96754c2.34518,-4.17258 14.64894,-1.70839 27.48123,5.50392c12.83229,7.21231 7.9014,16.89693 5.55622,21.06951c-2.34518,4.17258 -2.68057,-6.4866 -15.51286,-13.69891c-12.83229,-7.21231 -19.86976,-8.70193 -17.52458,-12.87451z" data-paper-data="{&quot;index&quot;:null}" fill="url(#color-10)" stroke="#000000" stroke-width="0.5" stroke-linecap="butt"/><path d="M390.90773,184.88022c3.7727,5.5604 1.84267,13.45259 -4.31082,17.6277c-6.1535,4.17512 -14.20027,3.05213 -17.97297,-2.50826c-3.77269,-5.56039 -1.84267,-13.45258 4.31083,-17.6277c6.1535,-4.17512 14.20027,-3.05213 17.97296,2.50826z" data-paper-data="{&quot;index&quot;:null}" fill="#ffffff" stroke="#000000" stroke-width="0.5" stroke-linecap="butt"/><path d="M358,180.25c0,23.88632 -16.78932,43.25 -37.5,43.25c-20.71068,0 -37.5,-19.36368 -37.5,-43.25c0,-23.88632 16.78932,-43.25 37.5,-43.25c20.71068,0 37.5,19.36368 37.5,43.25z" fill="url(#color-11)" stroke="#000000" stroke-width="0.5" stroke-linecap="butt"/><path d="M349,180c0,17.72465 -12.98374,32.09333 -29,32.09333c-16.01625,0 -29,-14.36867 -29,-32.09333c0,-17.72465 12.98375,-32.09333 29,-32.09333c16.01626,0 29,14.36867 29,32.09333z" fill="url(#color-12)" stroke="#000000" stroke-width="0.5" stroke-linecap="butt"/><path d="M274.9229,100.44144v-28.83067h43.77991v28.83067z" fill="#003aff" stroke="none" stroke-width="0.5" stroke-linecap="butt"/><path d="M351.74537,164.46305c0,0 -7.90357,-16.49345 -19.99295,-24.44438c-3.57677,-2.35236 -7.46846,0.90305 -12.93192,0.58773c-4.96448,-0.28652 -9.84426,-1.58309 -13.12238,0.31627c-11.60512,6.72406 -15.88531,23.18445 -15.88531,23.18445c0,0 -8.15165,-0.34871 -12.50275,-13.39299c-5.04599,-15.12749 1.91371,-25.75978 1.91371,-25.75978c0,0 -4.08089,-1.43309 -5.73762,-1.21699c-2.25131,0.29365 -5.65227,3.35259 -5.65227,3.35259c0,0 -9.70525,-10.6753 -6.39676,-26.01271c3.09751,-19.42085 14.40528,-19.54687 14.40528,-19.54687l-1.0678,7.11868" fill="url(#color-13)" stroke="#000000" stroke-width="0" stroke-linecap="round"/><path d="M311.61379,87.04736c0,0 -6.81374,-24.29373 -16.22353,-24.72236c-16.7069,-0.76101 -20.61566,19.38334 -20.61566,19.38334c0,0 17.65951,-30.61113 40.02235,-30.02749c28.31595,0.73902 41.66455,26.64611 41.66455,26.64611c0,0 10.86708,7.3168 16.69312,19.93445c5.21039,11.28433 2.52724,24.40962 1.35708,23.5737c-9.20732,-6.57735 -15.73662,-4.71132 -15.73662,-4.71132c0,0 16.16099,21.58906 1.54134,39.1137c-2.86193,3.43061 -7.49301,11.47283 -9.02858,7.73596c-4.09709,-9.97036 -10.0612,-16.62557 -14.25397,-20.40139c-2.90089,-2.61241 -4.95385,-3.84645 -4.95385,-3.84645l-25.80523,-0.35593l-2.49154,1.77967" fill="url(#color-14)" stroke="#000000" stroke-width="0" stroke-linecap="round"/><path d="M296.24082,58.68278c0,0 -5.11153,2.99057 -10.46264,7.94284c-4.4142,4.08519 -8.57984,14.48102 -8.57984,14.48102c0,0 -4.07858,-4.47992 -5.24038,-10.88612c-0.46478,-2.56278 -1.02095,-5.14318 -1.46194,-7.84292c-0.74829,-4.58109 -0.80896,-8.81542 0.11552,-11.81688c0.10272,-0.3335 0.69361,0.0294 1.03473,0.04793c16.99053,0.92258 24.59455,8.07414 24.59455,8.07414z" fill="url(#color-15)" stroke="#000000" stroke-width="0" stroke-linecap="round"/><path d="M333.69039,59.97544c0,0 3.85869,-5.53338 20.68276,-8.07896c0.33778,-0.05111 5.87427,0.24294 6.00846,0.56506c1.20769,2.89913 1.7308,4.62826 1.42471,9.25996c-0.18039,2.72956 -1.02078,6.41917 -1.23797,9.01468c-0.54292,6.48803 -5.77539,9.73626 -5.77539,9.73626c0,0 -5.14213,-9.94908 -9.9273,-13.59273c-5.80081,-4.417 -11.17526,-6.90428 -11.17526,-6.90428z" data-paper-data="{&quot;index&quot;:null}" fill="url(#color-16)" stroke="#000000" stroke-width="0" stroke-linecap="round"/><path d="M276.73224,77.97104c0,0 13.3486,-25.90709 41.66456,-26.64611c22.36284,-0.58365 40.02235,30.02749 40.02235,30.02749c0,0 -3.90875,-20.14435 -20.61566,-19.38334c-9.40979,0.42862 -16.22353,24.72236 -16.22353,24.72236" data-paper-data="{&quot;index&quot;:null}" fill="url(#color-17)" stroke="#000000" stroke-width="0" stroke-linecap="round"/><path d="M355.8553,116.48127c0,0 -3.06166,22.28469 -38.78176,22.14713c-34.35654,-0.13231 -38.278,-19.47763 -38.278,-19.47763c0,0 1.54054,-6.1807 5.11253,-6.18267c6.2263,-0.00343 11.90385,0.07771 17.18967,-1.24485c6.39253,-1.59947 12.21213,-4.67572 17.73657,-4.96264c5.50054,-0.28569 9.80766,2.14272 14.87053,3.22214c5.51244,1.17527 11.75576,1.01543 17.16907,0.79889c4.75677,-0.19027 4.98138,5.69961 4.98138,5.69961z" fill="url(#color-18)" stroke="#000000" stroke-width="0.5" stroke-linecap="round"/><path d="M349.73323,111.14226c0,0 -1.32452,2.34612 -27.41249,-2.72228c-1.02406,-0.19896 -2.0896,-0.505 -3.18781,-0.42753c-6.2469,0.44063 -11.86441,4.12472 -17.32221,5.21666c-8.98765,1.79815 -16.32361,1.13657 -16.32361,1.13657c0,0 -7.99694,-8.478 -5.61494,-26.40174c1.63336,-12.29047 15.22516,-15.95443 15.22516,-15.95443c0,0 12.48468,30.61923 23.63816,30.10538c10.71922,-0.49384 18.89598,-30.46132 18.89598,-30.46132c0,0 15.17251,3.42252 16.03438,18.79026c0.44567,7.94661 -3.93261,20.71844 -3.93261,20.71844z" fill="url(#color-19)" stroke="#000000" stroke-width="0.5" stroke-linecap="round"/><path d="M318.32203,113.24899c-2.30978,0 -4.18223,-3.94409 -4.18223,-8.80937c0,-4.86528 1.87245,-8.80937 4.18223,-8.80937c2.30978,0 4.18223,3.94409 4.18223,8.80937c0,4.86528 -1.87245,8.80937 -4.18223,8.80937z" fill="#000000" stroke="none" stroke-width="0.5" stroke-linecap="butt"/><path d="M309.66097,97.89491c0,5.89731 -2.68251,10.67803 -5.99156,10.67803c-3.30905,0 -5.39834,-4.78072 -5.39834,-10.67803c0,-5.89731 1.14013,-10.79667 4.44918,-10.79667c1.3046,0 1.83193,3.0972 3.77717,5.62112c0.97013,1.25874 2.54078,2.60393 3.02188,3.2933c0.67905,0.97301 0.14167,-0.20865 0.14167,1.88225z" fill="url(#color-20)" stroke="#000000" stroke-width="0.5" stroke-linecap="butt"/><path d="M347.08152,118.14309c0,0 5.83732,4.67021 1.53805,7.87212c-5.14091,3.82872 -12.35845,2.37878 -12.35845,2.37878c0,0 4.90278,0.35205 8.94117,-4.36048c2.33319,-2.72268 1.87923,-5.89042 1.87923,-5.89042z" fill="#ffffff" stroke="#000000" stroke-width="0.5" stroke-linecap="round"/><path d="M347.29508,126.68551l-1.28136,-2.27798" fill="none" stroke="#000000" stroke-width="0.5" stroke-linecap="round"/><path d="M347.57983,122.62786l1.6373,2.7051" fill="none" stroke="#000000" stroke-width="0.5" stroke-linecap="round"/><path d="M303.91329,104.23199c-1.6254,0 -2.94305,-2.77547 -2.94305,-6.19919c0,-3.42372 1.31765,-6.19919 2.94305,-6.19919c1.6254,0 2.94305,2.77547 2.94305,6.19919c0,3.42372 -1.31765,6.19919 -2.94305,6.19919z" fill="#000000" stroke="none" stroke-width="0.5" stroke-linecap="butt"/><path d="M303.72873,101.3356c0,1.31051 -1.03582,2.3729 -2.31357,2.3729c-1.27775,0 -2.31357,-1.06238 -2.31357,-2.3729c0,-1.31051 1.03582,-2.3729 2.31357,-2.3729c1.27775,0 2.31357,1.06238 2.31357,2.3729z" fill="url(#color-21)" stroke="none" stroke-width="0.5" stroke-linecap="butt"/><path d="M326.59169,97.00508c0,-2.0909 -0.53738,-0.90924 0.14167,-1.88225c0.4811,-0.68937 2.05174,-2.03456 3.02187,-3.2933c1.94524,-2.52392 2.47257,-5.62112 3.77717,-5.62112c3.30905,0 4.44918,4.89936 4.44918,10.79667c0,5.89731 -2.08929,10.67803 -5.39834,10.67803c-3.30905,0 -5.99156,-4.78072 -5.99156,-10.67803z" data-paper-data="{&quot;index&quot;:null}" fill="url(#color-22)" stroke="#000000" stroke-width="0.5" stroke-linecap="butt"/><path d="M329.39632,97.14297c0,-3.42372 1.31765,-6.19919 2.94305,-6.19919c1.6254,0 2.94305,2.77547 2.94305,6.19919c0,3.42372 -1.31765,6.19919 -2.94305,6.19919c-1.6254,0 -2.94305,-2.77547 -2.94305,-6.19919z" data-paper-data="{&quot;index&quot;:null}" fill="#000000" stroke="none" stroke-width="0.5" stroke-linecap="butt"/><path d="M334.8375,98.07288c1.27775,0 2.31357,1.06238 2.31357,2.3729c0,1.31051 -1.03582,2.37289 -2.31357,2.37289c-1.27775,0 -2.31357,-1.06238 -2.31357,-2.37289c0,-1.31051 1.03582,-2.3729 2.31357,-2.3729z" data-paper-data="{&quot;index&quot;:null}" fill="url(#color-23)" stroke="none" stroke-width="0.5" stroke-linecap="butt"/><g fill="#000000" stroke="#000000" stroke-width="1" stroke-linecap="round"><path d="M322.60375,148.8683c0,0 0.43526,0.05821 -4.59064,0.0116c-0.54226,-0.00503 -0.88806,1.90173 -1.49168,2.17356c-5.06545,2.2812 -8.21223,3.69065 -10.36956,4.1201c-0.0401,0.00798 -0.3679,0.06571 -0.4061,0.07634c-0.21781,0.06055 -0.54869,-0.03904 -0.69965,-0.03447c-0.85658,0.02596 -1.637,-5.86607 -1.637,-5.86607c0,0 -0.06597,-2.28195 0.13429,-4.87349c0.28522,-3.69098 1.68804,-7.18437 2.93602,-7.56595c0.59797,-0.18284 1.48369,0.35371 2.77241,0.72117c0.44456,0.12677 1.00556,0.07441 1.43596,0.35292c2.28178,1.47652 1.74379,0.83938 2.43024,1.4016c0.05928,0.04856 1.07918,0.62708 1.1353,0.67722c1.26512,1.13025 2.23221,2.93716 3.44309,3.03351c3.53362,0.28118 4.90729,0.09537 4.90729,0.09537"/><path d="M317.7903,143.18986c0,0 1.37367,0.18581 4.90729,-0.09537c1.2109,-0.09636 2.17797,-1.90326 3.44309,-3.03351c0.05612,-0.05014 1.07602,-0.62866 1.1353,-0.67722c0.68646,-0.56222 0.14847,0.07493 2.43024,-1.4016c0.43041,-0.27851 0.99141,-0.22615 1.43596,-0.35292c1.28871,-0.36746 2.17444,-0.90401 2.77241,-0.72117c1.24797,0.38158 2.65078,3.87497 2.93602,7.56595c0.20027,2.59153 0.13429,4.87349 0.13429,4.87349c0,0 -0.78043,5.89203 -1.637,5.86607c-0.15095,-0.00457 -0.48184,0.09502 -0.69965,0.03447c-0.0382,-0.01061 -0.366,-0.06836 -0.4061,-0.07634c-2.15732,-0.42945 -5.3041,-1.8389 -10.36956,-4.1201c-0.60362,-0.27183 -0.94942,-2.17858 -1.49168,-2.17356c-5.02592,0.0466 -4.59064,-0.0116 -4.59064,-0.0116" data-paper-data="{&quot;index&quot;:null}"/></g></g></g></svg>