<svg version="1.1" xmlns="http://www.w3.org/2000/svg" xmlns:xlink="http://www.w3.org/1999/xlink" width="245.28681" height="298.28169" viewBox="0,0,245.28681,298.28169"><defs><linearGradient x1="240" y1="31.10915" x2="240" y2="328.70979" gradientUnits="userSpaceOnUse" id="color-1"><stop offset="0" stop-color="#ffffff"/><stop offset="1" stop-color="#a5a5a5"/></linearGradient><linearGradient x1="227.59467" y1="115.89897" x2="227.59467" y2="133.32855" gradientUnits="userSpaceOnUse" id="color-2"><stop offset="0" stop-color="#000000"/><stop offset="1" stop-color="#232323"/></linearGradient><linearGradient x1="254.70736" y1="117.83558" x2="254.70736" y2="135.26517" gradientUnits="userSpaceOnUse" id="color-3"><stop offset="0" stop-color="#000000"/><stop offset="1" stop-color="#232323"/></linearGradient><linearGradient x1="226.9549" y1="117.78371" x2="226.9549" y2="122.48693" gradientUnits="userSpaceOnUse" id="color-4"><stop offset="0" stop-color="#ffffff"/><stop offset="1" stop-color="#a5a5a5"/></linearGradient><linearGradient x1="254.44799" y1="118.92493" x2="254.44799" y2="123.62816" gradientUnits="userSpaceOnUse" id="color-5"><stop offset="0" stop-color="#ffffff"/><stop offset="1" stop-color="#a5a5a5"/></linearGradient></defs><g transform="translate(-117.35659,-30.85916)"><g data-paper-data="{&quot;isPaintingLayer&quot;:true}" fill-rule="nonzero" stroke="#000000" stroke-linejoin="miter" stroke-miterlimit="10" stroke-dasharray="" stroke-dashoffset="0" style="mix-blend-mode: normal"><path d="M198.8912,176.48781c0,0 -8.15753,-4.86234 -16.46537,-11.79411c-9.18718,-7.66546 -18.55816,-17.86163 -17.28448,-26.81155c0.19836,-1.39384 0.4361,-7.32731 0.7102,-8.67066c7.45042,-36.51554 42.58442,-49.83136 42.58442,-49.83136c0,0 1.47116,-2.64859 1.64015,-4.31738c0.30233,-2.98546 0.01981,-12.07473 0.01981,-12.07473c0,0 -20.93261,-4.74758 -21.04285,-9.13976c-0.33035,-13.1601 18.9679,-16.17464 18.9679,-16.17464c0,0 18.1578,-6.97492 26.53325,-6.54541c7.76256,0.39808 22.0206,9.03536 22.0206,9.03536c0,0 25.61042,41.14329 37.04175,58.19493c17.37697,25.92054 -0.10763,59.66225 -0.10763,59.66225c0,0 9.70564,-8.70228 13.21958,-6.33713c3.67224,2.4717 8.3599,20.86178 8.3599,20.86178c0,0 28.59588,1.80571 27.64358,21.15265c-0.45116,9.16577 -30.54851,18.27141 -30.54851,18.27141c0,0 8.2096,11.70327 18.53801,24.03034c4.70674,5.61755 18.76001,-10.5781 30.24588,3.13492c5.18347,6.18855 -4.77431,18.18598 -13.65895,31.8104c-10.89371,16.70529 -21.84527,34.8121 -21.84527,34.8121l-26.35187,16.8071c0,0 -2.75518,1.46591 -5.20333,2.98647c-4.17363,2.59226 -16.15731,5.34334 -75.1445,1.26066c-41.24849,-2.85493 -50.58155,-30.599 -50.58155,-30.599c0,0 -12.36303,-23.89898 -8.66816,-35.52806c6.12569,-19.27968 15.24257,-41.75946 15.24257,-41.75946c0,0 -44.93325,-11.2753 -54.13761,-23.63151c-2.07453,-2.78492 -5.20448,-14.70178 -0.72905,-17.63117c12.10545,-7.92362 24.22282,-10.23534 24.22282,-10.23534c0,0 4.61413,-20.44041 12.20334,-18.36279c3.71196,1.01619 10.57279,14.95516 18.8082,22.66163c10.01985,9.3763 21.27721,12.71575 21.27721,12.71575z" fill="url(#color-1)" stroke-width="0.5" stroke-linecap="round"/><path d="M233.95786,124.61376c0,4.81305 -2.84889,8.71479 -6.36318,8.71479c-3.51429,0 -6.36318,-3.90175 -6.36318,-8.71479c0,-4.81305 2.84889,-8.71479 6.36318,-8.71479c3.51429,0 6.36318,3.90175 6.36318,8.71479z" fill="url(#color-2)" stroke-width="0.5" stroke-linecap="butt"/><path d="M261.07055,126.55038c0,4.81305 -2.84889,8.71479 -6.36318,8.71479c-3.51429,0 -6.36318,-3.90175 -6.36318,-8.71479c0,-4.81305 2.8489,-8.71479 6.36318,-8.71479c3.51429,0 6.36318,3.90175 6.36318,8.71479z" fill="url(#color-3)" stroke-width="0.5" stroke-linecap="butt"/><path d="M224.25747,120.13532c0,-1.29876 1.20768,-2.35161 2.69744,-2.35161c1.48976,0 2.69744,1.05285 2.69744,2.35161c0,1.29876 -1.20768,2.35161 -2.69744,2.35161c-1.48976,0 -2.69744,-1.05285 -2.69744,-2.35161z" fill="url(#color-4)" stroke-width="0.5" stroke-linecap="butt"/><path d="M251.75056,121.27655c0,-1.29876 1.20768,-2.35161 2.69744,-2.35161c1.48976,0 2.69744,1.05285 2.69744,2.35161c0,1.29876 -1.20768,2.35161 -2.69744,2.35161c-1.48976,0 -2.69744,-1.05285 -2.69744,-2.35161z" fill="url(#color-5)" stroke-width="0.5" stroke-linecap="butt"/><path d="M253.68286,162.33192c0,0 -11.16399,4.06972 -16.81708,3.92927c-5.4769,-0.13607 -16.58962,-4.75925 -16.58962,-4.75925" fill="none" stroke-width="1.5" stroke-linecap="round"/><g fill="#000000" stroke-width="1" stroke-linecap="round"><path d="M243.72496,194.57714c0,0 0.68954,0.1284 -7.32352,-0.35643c-0.86455,-0.05231 -1.57186,2.96094 -2.5569,3.34524c-8.26625,3.22505 -13.40082,5.21627 -16.87707,5.72508c-0.06461,0.00945 -0.59221,0.07478 -0.65402,0.0886c-0.35238,0.07879 -0.87202,-0.10709 -1.11319,-0.11212c-1.36845,-0.02856 -2.1321,-9.49072 -2.1321,-9.49072c0,0 0.08114,-3.64535 0.61224,-7.76278c0.75642,-5.86422 3.27938,-11.32198 5.3012,-11.82872c0.96875,-0.24281 2.33777,0.68538 4.36339,1.37678c0.69878,0.23851 1.5979,0.20082 2.26169,0.68022c3.51909,2.54158 2.71297,1.48132 3.76203,2.43419c0.09059,0.0823 1.67019,1.0884 1.75562,1.17295c1.92569,1.90619 3.32072,4.8674 5.24435,5.11999c5.61353,0.73711 7.81986,0.55291 7.81986,0.55291"/><path d="M236.51077,185.12628c0,0 2.17598,0.40859 7.83544,0.24868c1.93938,-0.0548 3.62954,-2.85802 5.73986,-4.55758c0.09361,-0.07539 1.76771,-0.91489 1.86624,-0.98751c1.1409,-0.84074 0.2307,0.13164 3.99098,-2.03722c0.7093,-0.4091 1.59988,-0.27977 2.31934,-0.44567c2.08565,-0.48089 3.54231,-1.2644 4.48119,-0.92391c1.95948,0.71059 3.9118,6.39749 4.06533,12.3083c0.10779,4.15014 -0.18383,7.78471 -0.18383,7.78471c0,0 -1.72609,9.33469 -3.0903,9.22333c-0.2404,-0.01963 -0.77635,0.11221 -1.11883,-0.00217c-0.06007,-0.02005 -0.57823,-0.13893 -0.64154,-0.15494c-3.40608,-0.86121 -8.31043,-3.36644 -16.20407,-7.41891c-0.94064,-0.48291 -1.33649,-3.55262 -2.20186,-3.5889c-8.02068,-0.33616 -7.32162,-0.39343 -7.32162,-0.39343" data-paper-data="{&quot;index&quot;:null}"/></g></g></g></svg>