<svg version="1.1" xmlns="http://www.w3.org/2000/svg" xmlns:xlink="http://www.w3.org/1999/xlink" width="712" height="1038.11316" viewBox="0,0,712,1038.11316"><defs><linearGradient x1="174.85803" y1="361.79513" x2="252.89191" y2="458.69431" gradientUnits="userSpaceOnUse" id="color-1"><stop offset="0" stop-color="#0a00ff"/><stop offset="1" stop-color="#0034ff"/></linearGradient><linearGradient x1="492.35168" y1="373.4291" x2="407.69304" y2="464.59733" gradientUnits="userSpaceOnUse" id="color-2"><stop offset="0" stop-color="#0a00ff"/><stop offset="1" stop-color="#0034ff"/></linearGradient><linearGradient x1="153.53334" y1="496.88078" x2="231.56722" y2="593.77999" gradientUnits="userSpaceOnUse" id="color-3"><stop offset="0" stop-color="#0a00ff"/><stop offset="1" stop-color="#0034ff"/></linearGradient><linearGradient x1="154.86284" y1="603.55194" x2="205.19639" y2="666.05402" gradientUnits="userSpaceOnUse" id="color-4"><stop offset="0" stop-color="#0a00ff"/><stop offset="1" stop-color="#0034ff"/></linearGradient><linearGradient x1="504.11837" y1="509.68041" x2="419.45973" y2="600.84867" gradientUnits="userSpaceOnUse" id="color-5"><stop offset="0" stop-color="#0a00ff"/><stop offset="1" stop-color="#0034ff"/></linearGradient><linearGradient x1="494.73749" y1="615.48381" x2="441.22216" y2="673.11408" gradientUnits="userSpaceOnUse" id="color-6"><stop offset="0" stop-color="#0a00ff"/><stop offset="1" stop-color="#0034ff"/></linearGradient><linearGradient x1="327.75631" y1="289.04074" x2="327.75631" y2="579.08915" gradientUnits="userSpaceOnUse" id="color-7"><stop offset="0" stop-color="#0a00ff"/><stop offset="1" stop-color="#0034ff"/></linearGradient><linearGradient x1="250.17075" y1="847.32683" x2="250.17075" y2="932.82929" gradientUnits="userSpaceOnUse" id="color-8"><stop offset="0" stop-color="#0a00ff"/><stop offset="1" stop-color="#0034ff"/></linearGradient><linearGradient x1="373.6743" y1="850.49359" x2="373.6743" y2="935.99605" gradientUnits="userSpaceOnUse" id="color-9"><stop offset="0" stop-color="#0a00ff"/><stop offset="1" stop-color="#0034ff"/></linearGradient><linearGradient x1="329.16375" y1="49.75197" x2="329.16375" y2="301.06112" gradientUnits="userSpaceOnUse" id="color-10"><stop offset="0" stop-color="#0a00ff"/><stop offset="1" stop-color="#0034ff"/></linearGradient><linearGradient x1="247.00399" y1="-39.36534" x2="247.00399" y2="85.72159" gradientUnits="userSpaceOnUse" id="color-11"><stop offset="0" stop-color="#0a00ff"/><stop offset="1" stop-color="#0034ff"/></linearGradient><linearGradient x1="424.34243" y1="-33.03183" x2="424.34243" y2="101.55538" gradientUnits="userSpaceOnUse" id="color-12"><stop offset="0" stop-color="#0a00ff"/><stop offset="1" stop-color="#0034ff"/></linearGradient><linearGradient x1="427.50918" y1="-91.61684" x2="427.50918" y2="-15.61466" gradientUnits="userSpaceOnUse" id="color-13"><stop offset="0" stop-color="#0a00ff"/><stop offset="1" stop-color="#0034ff"/></linearGradient><linearGradient x1="247.00399" y1="-101.11712" x2="247.00399" y2="-25.11493" gradientUnits="userSpaceOnUse" id="color-14"><stop offset="0" stop-color="#0a00ff"/><stop offset="1" stop-color="#0034ff"/></linearGradient><linearGradient x1="329.33969" y1="183.89108" x2="329.33969" y2="269.39354" gradientUnits="userSpaceOnUse" id="color-15"><stop offset="0" stop-color="#00ffb5"/><stop offset="1" stop-color="#00c7aa"/></linearGradient><linearGradient x1="327.75631" y1="343.81235" x2="327.75631" y2="524.31754" gradientUnits="userSpaceOnUse" id="color-16"><stop offset="0" stop-color="#00ffb5"/><stop offset="1" stop-color="#00c7aa"/></linearGradient><linearGradient x1="329.8675" y1="189.16902" x2="329.8675" y2="224.00336" gradientUnits="userSpaceOnUse" id="color-17"><stop offset="0" stop-color="#000000"/><stop offset="1" stop-color="#101010"/></linearGradient><linearGradient x1="273.17633" y1="109.47227" x2="273.17633" y2="175.97419" gradientUnits="userSpaceOnUse" id="color-18"><stop offset="0" stop-color="#000000"/><stop offset="1" stop-color="#101010"/></linearGradient><linearGradient x1="387.17961" y1="114.22241" x2="387.17961" y2="180.72432" gradientUnits="userSpaceOnUse" id="color-19"><stop offset="0" stop-color="#000000"/><stop offset="1" stop-color="#101010"/></linearGradient><linearGradient x1="361.00727" y1="565.48539" x2="361.00727" y2="863.16062" gradientUnits="userSpaceOnUse" id="color-20"><stop offset="0" stop-color="#0a00ff"/><stop offset="1" stop-color="#0034ff"/></linearGradient><linearGradient x1="273.92143" y1="559.15188" x2="273.92143" y2="856.8271" gradientUnits="userSpaceOnUse" id="color-21"><stop offset="0" stop-color="#0a00ff"/><stop offset="1" stop-color="#0034ff"/></linearGradient><linearGradient x1="422.94532" y1="-6.11438" x2="422.94532" y2="73.05456" gradientUnits="userSpaceOnUse" id="color-22"><stop offset="0" stop-color="#00ffb5"/><stop offset="1" stop-color="#00c7aa"/></linearGradient><linearGradient x1="426.11207" y1="-78.94981" x2="426.11207" y2="-27.81988" gradientUnits="userSpaceOnUse" id="color-23"><stop offset="0" stop-color="#00ffb5"/><stop offset="1" stop-color="#00c7aa"/></linearGradient><linearGradient x1="245.60688" y1="-12.4479" x2="245.60688" y2="66.72104" gradientUnits="userSpaceOnUse" id="color-24"><stop offset="0" stop-color="#00ffb5"/><stop offset="1" stop-color="#00c7aa"/></linearGradient><linearGradient x1="248.77364" y1="-88.45009" x2="248.77364" y2="-37.32015" gradientUnits="userSpaceOnUse" id="color-25"><stop offset="0" stop-color="#00ffb5"/><stop offset="1" stop-color="#00c7aa"/></linearGradient><linearGradient x1="273.19957" y1="126.09775" x2="273.19957" y2="158.55702" gradientUnits="userSpaceOnUse" id="color-26"><stop offset="0" stop-color="#9800ff"/><stop offset="1" stop-color="#770079"/></linearGradient><linearGradient x1="386.41116" y1="130.84789" x2="386.41116" y2="163.30716" gradientUnits="userSpaceOnUse" id="color-27"><stop offset="0" stop-color="#9800ff"/><stop offset="1" stop-color="#770079"/></linearGradient><linearGradient x1="272.7339" y1="134.85583" x2="272.7339" y2="146.63221" gradientUnits="userSpaceOnUse" id="color-28"><stop offset="0" stop-color="#ffffff"/><stop offset="1" stop-color="#787878"/></linearGradient><linearGradient x1="386.73718" y1="140.39766" x2="386.73718" y2="152.17404" gradientUnits="userSpaceOnUse" id="color-29"><stop offset="0" stop-color="#ffffff"/><stop offset="1" stop-color="#787878"/></linearGradient></defs><g transform="translate(33.5,101.61711)"><g data-paper-data="{&quot;isPaintingLayer&quot;:true}" fill-rule="nonzero" stroke-linejoin="miter" stroke-miterlimit="10" stroke-dasharray="" stroke-dashoffset="0" style="mix-blend-mode: normal"><path d="M-33.5,419v-491h712v491z" fill="#000000" stroke="none" stroke-width="0" stroke-linecap="butt"/><path d="M224.83333,184.33334v-66.33334h60v66.33334z" fill="none" stroke="#ffffff" stroke-width="5" stroke-linecap="butt"/><path d="M224.83333,184v-66h60v66z" fill="none" stroke="#ffffff" stroke-width="5" stroke-linecap="butt"/><text transform="translate(52.45402,237.83677) scale(3.29167,3.29167)" font-size="40" xml:space="preserve" fill="#00f8ff" fill-rule="nonzero" stroke="none" stroke-width="1" stroke-linecap="butt" stroke-linejoin="miter" stroke-miterlimit="10" stroke-dasharray="" stroke-dashoffset="0" font-family="Pixel" font-weight="normal" text-anchor="start" style="mix-blend-mode: normal"><tspan x="0" dy="0">ONAZ37</tspan></text><path d="M233.52111,414.21593c-9.0302,49.4163 -27.00475,87.52925 -40.14739,85.12758c-13.14265,-2.40167 -16.47645,-44.40839 -7.44631,-93.8247c9.03014,-49.4163 52.15495,-86.20551 65.29759,-83.80387c13.14265,2.40167 -8.67375,43.08469 -17.70389,92.50099z" data-paper-data="{&quot;index&quot;:null}" fill="url(#color-1)" stroke="#000000" stroke-width="1" stroke-linecap="butt"/><path d="M406.91585,321.98987c13.27907,-1.47093 61.61966,44.43075 67.15037,94.35998c5.53065,49.92922 -0.75062,91.5973 -14.02969,93.06819c-13.27907,1.47093 -28.52736,-37.81229 -34.05804,-87.74152c-5.53065,-49.92922 -32.34169,-98.21576 -19.06265,-99.68665z" data-paper-data="{&quot;index&quot;:null}" fill="url(#color-2)" stroke="#000000" stroke-width="1" stroke-linecap="butt"/><path d="M212.19645,549.30161c-9.03014,49.4163 -27.00478,87.52922 -40.14743,85.12758c-13.14265,-2.40167 -16.47645,-44.40839 -7.44631,-93.8247c9.03014,-49.4163 27.00478,-87.52918 40.14743,-85.12758c13.14265,2.40167 16.47642,44.40839 7.44628,93.8247z" data-paper-data="{&quot;index&quot;:null}" fill="url(#color-3)" stroke="#000000" stroke-width="1" stroke-linecap="butt"/><path d="M218.5908,642.90625c-3.04107,18.21687 -24.62911,29.18769 -48.21826,24.50396c-23.58915,-4.68373 -40.24661,-23.24828 -37.20557,-41.46511c3.04107,-18.21687 24.62911,-29.18769 48.21826,-24.50399c23.58915,4.68373 40.24661,23.24828 37.20557,41.46511z" data-paper-data="{&quot;index&quot;:null}" fill="url(#color-4)" stroke="#000000" stroke-width="1" stroke-linecap="butt"/><path d="M451.77491,464.8597c13.27907,-1.47093 28.52736,37.81226 34.058,87.74148c5.53065,49.92922 -0.75062,91.59726 -14.02969,93.06822c-13.27907,1.47093 -28.52736,-37.81226 -34.05804,-87.74148c-5.53065,-49.92922 0.75062,-91.5973 14.02966,-93.06822z" data-paper-data="{&quot;index&quot;:null}" fill="url(#color-5)" stroke="#000000" stroke-width="1" stroke-linecap="butt"/><path d="M464.87148,611.67404c23.38337,-2.95208 43.73099,9.26147 45.44772,27.27972c1.7167,18.01825 -15.84756,35.01804 -39.23094,37.97012c-23.38337,2.95208 -43.73099,-9.26147 -45.44769,-27.27972c-1.7167,-18.01825 15.84756,-35.01804 39.23094,-37.97012z" data-paper-data="{&quot;index&quot;:null}" fill="url(#color-6)" stroke="#000000" stroke-width="1" stroke-linecap="butt"/><path d="M449.00602,434.06494c0,80.09465 -54.28535,145.0242 -121.24974,145.0242c-66.96439,0 -121.24974,-64.92955 -121.24974,-145.0242c0,-80.09465 54.28535,-145.0242 121.24974,-145.0242c66.96439,0 121.24974,64.92955 121.24974,145.0242z" fill="url(#color-7)" stroke="#000000" stroke-width="1" stroke-linecap="butt"/><path d="M305.58901,890.07806c0,23.61084 -24.81161,42.75123 -55.41826,42.75123c-30.60665,0 -55.41826,-19.14039 -55.41826,-42.75123c0,-23.61084 24.81161,-42.75123 55.41826,-42.75123c30.60665,0 55.41826,19.14039 55.41826,42.75123z" fill="url(#color-8)" stroke="#000000" stroke-width="1" stroke-linecap="butt"/><path d="M373.6743,850.49359c30.60668,0 55.41826,19.14036 55.41826,42.75123c0,23.61087 -24.81158,42.75123 -55.41826,42.75123c-30.60668,0 -55.41826,-19.14036 -55.41826,-42.75123c0,-23.61087 24.81158,-42.75123 55.41826,-42.75123z" data-paper-data="{&quot;index&quot;:null}" fill="url(#color-9)" stroke="#000000" stroke-width="1" stroke-linecap="butt"/><path d="M452.49139,175.40655c0,69.39709 -55.21565,125.65457 -123.32761,125.65457c-68.11196,0 -123.32761,-56.25745 -123.32761,-125.65457c0,-69.39709 55.21565,-125.65457 123.32761,-125.65457c68.11196,0 123.32761,56.25745 123.32761,125.65457z" fill="url(#color-10)" stroke="#000000" stroke-width="1" stroke-linecap="butt"/><path d="M285.00509,23.17812c0,34.54179 -17.01366,62.54347 -38.00109,62.54347c-20.98743,0 -38.00109,-28.00168 -38.00109,-62.54347c0,-34.54179 17.01366,-62.54347 38.00109,-62.54347c20.98743,0 38.00109,28.00168 38.00109,62.54347z" fill="url(#color-11)" stroke="#000000" stroke-width="1" stroke-linecap="butt"/><path d="M462.34352,34.26178c0,37.16523 -17.01369,67.2936 -38.00109,67.2936c-20.9874,0 -38.00109,-30.12837 -38.00109,-67.2936c0,-37.16523 17.01369,-67.2936 38.00109,-67.2936c20.9874,0 38.00109,30.12837 38.00109,67.2936z" fill="url(#color-12)" stroke="#000000" stroke-width="1" stroke-linecap="butt"/><path d="M452.84325,-53.61575c0,20.98743 -11.34244,38.00109 -25.33406,38.00109c-13.99162,0 -25.33406,-17.01366 -25.33406,-38.00109c0,-20.98743 11.34244,-38.00109 25.33406,-38.00109c13.99162,0 25.33406,17.01366 25.33406,38.00109z" fill="url(#color-13)" stroke="#000000" stroke-width="1" stroke-linecap="butt"/><path d="M272.33805,-63.11602c0,20.9874 -11.34244,38.00109 -25.33406,38.00109c-13.99162,0 -25.33406,-17.01369 -25.33406,-38.00109c0,-20.9874 11.34244,-38.00109 25.33406,-38.00109c13.99162,0 25.33406,17.01369 25.33406,38.00109z" fill="url(#color-14)" stroke="#000000" stroke-width="1" stroke-linecap="butt"/><path d="M386.34133,226.64231c0,23.61084 -25.52049,42.75123 -57.00164,42.75123c-31.48115,0 -57.00164,-19.14039 -57.00164,-42.75123c0,-23.61084 25.52049,-42.75123 57.00164,-42.75123c31.48115,0 57.00164,19.14039 57.00164,42.75123z" fill="url(#color-15)" stroke="#000000" stroke-width="1" stroke-linecap="butt"/><path d="M394.25823,434.06494c0,49.84515 -29.77392,90.2526 -66.50191,90.2526c-36.72799,0 -66.50191,-40.40745 -66.50191,-90.2526c0,-49.84515 29.77392,-90.2526 66.50191,-90.2526c36.72799,0 66.50191,40.40745 66.50191,90.2526z" fill="url(#color-16)" stroke="#000000" stroke-width="1" stroke-linecap="butt"/><path d="M356.78494,206.58619c0,9.61925 -12.05135,17.41717 -26.91744,17.41717c-14.86609,0 -26.91744,-7.79792 -26.91744,-17.41717c0,-9.61925 12.05135,-17.41717 26.91744,-17.41717c14.86609,0 26.91744,7.79792 26.91744,17.41717z" fill="url(#color-17)" stroke="#000000" stroke-width="1" stroke-linecap="butt"/><path d="M302.51539,142.72323c0,18.364 -13.13555,33.25096 -29.33909,33.25096c-16.20354,0 -29.33909,-14.88696 -29.33909,-33.25096c0,-18.364 13.13555,-33.25096 29.33909,-33.25096c16.20354,0 29.33909,14.88696 29.33909,33.25096z" fill="url(#color-18)" stroke="#000000" stroke-width="1" stroke-linecap="butt"/><path d="M416.51867,147.47337c0,18.364 -13.13555,33.25096 -29.33906,33.25096c-16.20354,0 -29.33906,-14.88696 -29.33906,-33.25096c0,-18.364 13.13555,-33.25096 29.33906,-33.25096c16.20354,0 29.33906,14.88696 29.33906,33.25096z" fill="url(#color-19)" stroke="#000000" stroke-width="1" stroke-linecap="butt"/><path d="M400.59174,714.32301c0,82.20073 -17.72257,148.83761 -39.58447,148.83761c-21.8619,0 -39.58447,-66.63688 -39.58447,-148.83761c0,-82.20073 17.72257,-148.83761 39.58447,-148.83761c21.8619,0 39.58447,66.63688 39.58447,148.83761z" fill="url(#color-20)" stroke="#000000" stroke-width="1" stroke-linecap="butt"/><path d="M313.5059,707.98949c0,82.20073 -17.72257,148.83761 -39.58447,148.83761c-21.8619,0 -39.58447,-66.63688 -39.58447,-148.83761c0,-82.20073 17.72257,-148.83761 39.58447,-148.83761c21.8619,0 39.58447,66.63688 39.58447,148.83761z" fill="url(#color-21)" stroke="#000000" stroke-width="1" stroke-linecap="butt"/><path d="M445.29889,33.47009c0,21.8619 -10.00806,39.58447 -22.35357,39.58447c-12.34554,0 -22.35357,-17.72257 -22.35357,-39.58447c0,-21.8619 10.00806,-39.58447 22.35357,-39.58447c12.34554,0 22.35357,17.72257 22.35357,39.58447z" fill="url(#color-22)" stroke="#000000" stroke-width="1" stroke-linecap="butt"/><path d="M426.11207,-78.94981c7.97314,0 14.43668,11.44583 14.43668,25.56498c0,14.11915 -6.46354,25.56498 -14.43668,25.56498c-7.97314,0 -14.43668,-11.44583 -14.43668,-25.56498c0,-14.11915 6.46354,-25.56498 14.43668,-25.56498z" data-paper-data="{&quot;index&quot;:null}" fill="url(#color-23)" stroke="#000000" stroke-width="1" stroke-linecap="butt"/><path d="M245.60688,-12.4479c12.34554,0 22.3536,17.72257 22.3536,39.58447c0,21.8619 -10.00806,39.58447 -22.3536,39.58447c-12.34554,0 -22.35357,-17.72257 -22.35357,-39.58447c0,-21.8619 10.00803,-39.58447 22.35357,-39.58447z" data-paper-data="{&quot;index&quot;:null}" fill="url(#color-24)" stroke="#000000" stroke-width="1" stroke-linecap="butt"/><path d="M263.21032,-62.8851c0,14.11915 -6.46351,25.56495 -14.43668,25.56495c-7.97314,0 -14.43671,-11.4458 -14.43671,-25.56495c0,-14.11915 6.46354,-25.56495 14.43671,-25.56495c7.97314,0 14.43668,11.4458 14.43668,25.56495z" data-paper-data="{&quot;index&quot;:null}" fill="url(#color-25)" stroke="#000000" stroke-width="1" stroke-linecap="butt"/><path d="M287.51984,142.32739c0,8.96338 -6.41139,16.22963 -14.32027,16.22963c-7.90888,0 -14.32027,-7.26625 -14.32027,-16.22963c0,-8.96338 6.41139,-16.22963 14.32027,-16.22963c7.90888,0 14.32027,7.26625 14.32027,16.22963z" fill="url(#color-26)" stroke="#000000" stroke-width="2" stroke-linecap="butt"/><path d="M400.73143,147.07752c0,8.96338 -6.41142,16.22963 -14.32027,16.22963c-7.90885,0 -14.32027,-7.26625 -14.32027,-16.22963c0,-8.96338 6.41142,-16.22963 14.32027,-16.22963c7.90885,0 14.32027,7.26625 14.32027,16.22963z" fill="url(#color-27)" stroke="#000000" stroke-width="2" stroke-linecap="butt"/><path d="M279.06741,140.74401c0,3.25194 -2.83561,5.88821 -6.33352,5.88821c-3.49791,0 -6.33352,-2.63623 -6.33352,-5.88817c0,-3.25194 2.83561,-5.88817 6.33352,-5.88817c3.49791,0 6.33352,2.63623 6.33352,5.88821z" fill="url(#color-28)" stroke="#000000" stroke-width="0" stroke-linecap="butt"/><path d="M393.07069,146.28583c0,3.25194 -2.83561,5.88821 -6.33352,5.88821c-3.49791,0 -6.33352,-2.63623 -6.33352,-5.88817c0,-3.25194 2.83561,-5.88817 6.33352,-5.88817c3.49791,0 6.33352,2.63623 6.33352,5.88821z" fill="url(#color-29)" stroke="#000000" stroke-width="0" stroke-linecap="butt"/><g fill="#000000" stroke="#000000" stroke-width="1" stroke-linecap="round"><path d="M335.10091,329.80619c0,0 1.17259,0.15682 -12.36704,0.03126c-1.46083,-0.01355 -2.39236,5.12318 -4.01849,5.85546c-13.64613,6.14547 -22.12344,9.94251 -27.93521,11.09942c-0.10802,0.0215 -0.9911,0.17702 -1.09402,0.20562c-0.58677,0.16312 -1.47815,-0.10517 -1.88479,-0.09282c-2.30758,0.06992 -4.41003,-15.80298 -4.41003,-15.80298c0,0 -0.17772,-6.14753 0.36177,-13.12903c0.76841,-9.94337 4.54753,-19.3544 7.90952,-20.38239c1.6109,-0.49256 3.99705,0.95288 7.4688,1.94281c1.19764,0.34147 2.70891,0.20046 3.86845,0.95076c6.14699,3.9777 4.6977,2.26126 6.54699,3.77585c0.1597,0.13079 2.90727,1.68934 3.05845,1.8244c3.40822,3.04484 6.01348,7.91259 9.27559,8.17214c9.51946,0.75746 13.22004,0.25692 13.22004,0.25692"/><path d="M322.13374,314.50869c0,0 3.70061,0.50057 13.22007,-0.25689c3.26208,-0.25955 5.86737,-5.12733 9.27556,-8.17217c0.15118,-0.13506 2.89876,-1.69361 3.05845,-1.8244c1.84929,-1.5146 0.39999,0.20185 6.54699,-3.77585c1.15951,-0.7503 2.67081,-0.60928 3.86845,-0.95076c3.47175,-0.98993 5.85787,-2.43536 7.46877,-1.94281c3.36196,1.02796 7.1411,10.43906 7.90952,20.38239c0.53952,6.9815 0.36177,13.129 0.36177,13.129c0,0 -2.10244,15.8729 -4.41,15.80298c-0.40664,-0.01232 -1.29805,0.25597 -1.88482,0.09282c-0.10292,-0.02863 -0.98597,-0.18412 -1.09399,-0.20562c-5.81176,-1.15691 -14.28904,-4.95395 -27.93517,-11.09942c-1.62613,-0.73231 -2.55773,-5.86902 -4.01852,-5.85549c-13.53963,0.12556 -12.36701,-0.03126 -12.36701,-0.03126" data-paper-data="{&quot;index&quot;:null}"/></g></g></g></svg>