<svg version="1.1" xmlns="http://www.w3.org/2000/svg" xmlns:xlink="http://www.w3.org/1999/xlink" width="152.72394" height="221.82356" viewBox="0,0,152.72394,221.82356"><g transform="translate(-244.34351,-74.46414)"><g data-paper-data="{&quot;isPaintingLayer&quot;:true}" fill-rule="nonzero" stroke="#000000" stroke-width="1.5" stroke-linejoin="miter" stroke-miterlimit="10" stroke-dasharray="" stroke-dashoffset="0" style="mix-blend-mode: normal"><path d="M328.125,144.75l1,82.25c0,0 -1.43292,15.12443 5.74604,27.89279c2.42739,4.3173 12.08898,6.35114 14.19659,10.75433c4.87849,10.19211 8.37826,18.18431 6.42509,22.67112c-1.1691,2.68566 -11.09307,7.9659 -38.89739,7.13096c-24.14947,-0.72518 -34.22034,-7.9492 -34.22034,-7.9492c0,0 2.13793,-9.14831 6.0418,-14.47856c1.54096,-2.10398 2.88054,-5.03836 4.84405,-8.40005c0.99556,-1.70447 9.91298,-3.6009 10.58019,-5.64044c1.79107,-5.47497 4.27605,-10.29065 5.48355,-14.37643c3.01541,-10.20315 2.3004,-16.10453 2.3004,-16.10453l1.5,-83z" fill="#333333" stroke-linecap="round"/><path d="M339.46712,138.16543c-4.40045,-5.88912 -12.87501,-10.67663 -12.87501,-10.67663c0,0 6.36559,-36.30499 25.20922,-38.76732c13.68006,-1.7876 37.92727,24.97989 37.92727,24.97989c0,0 15.84946,14.09231 -1.61558,42.61629c-5.26332,8.5961 -43.03731,-4.00612 -43.03731,-4.00612c0,0 -0.92646,-7.87996 -5.60862,-14.1461z" fill="#000000" stroke-linecap="round"/><path d="M323.3536,125.8449c0,0 -7.85002,1.15294 -13.97877,6.01356c-5.75999,4.56817 -10.30154,13.17706 -10.30154,13.17706c0,0 -36.47321,-5.31772 -39.47703,-24.08266c-2.18071,-13.62292 23.87759,-38.63072 23.87759,-38.63072c0,0 13.63016,-16.24861 42.64514,0.38798c8.74406,5.01366 -2.76541,43.1348 -2.76541,43.1348z" fill="#000000" stroke-linecap="round"/><path d="M293.68102,150.73854c0,0 1.86852,7.71108 7.2711,13.36786c5.07752,5.31643 14.06687,9.04873 14.06687,9.04873c0,0 -1.94792,36.80732 -20.35801,41.52062c-13.36529,3.42175 -40.65908,-20.23147 -40.65908,-20.23147c0,0 -17.43095,-12.08142 -3.52744,-42.50077c4.19002,-9.16729 43.20656,-1.20497 43.20656,-1.20497z" fill="#000000" stroke-linecap="round"/><path d="M318.88257,176.04552c0,0 7.91921,-0.48797 14.4354,-4.81537c6.12411,-4.06702 11.37431,-12.263 11.37431,-12.263c0,0 35.89604,8.36945 37.3094,27.32067c1.02606,13.75815 -27.04507,36.48337 -27.04507,36.48337c0,0 -14.94973,15.04343 -42.46109,-3.97682c-8.29092,-5.73201 6.38704,-42.74886 6.38704,-42.74886z" fill="#000000" stroke-linecap="round"/><path d="M344.375,151.64344c0,12.6437 -10.96902,22.89344 -24.5,22.89344c-13.53098,0 -24.5,-10.24974 -24.5,-22.89344c0,-12.6437 10.96902,-22.89344 24.5,-22.89344c13.53098,0 24.5,10.24974 24.5,22.89344z" fill="#333333" stroke-linecap="butt"/></g></g></svg>