<svg version="1.1" xmlns="http://www.w3.org/2000/svg" xmlns:xlink="http://www.w3.org/1999/xlink" width="1023.77628" height="631.82517" viewBox="0,0,1023.77628,631.82517"><defs><linearGradient x1="255.29403" y1="254.19807" x2="272.65065" y2="321.52923" gradientUnits="userSpaceOnUse" id="color-1"><stop offset="0" stop-color="#0a00ff"/><stop offset="1" stop-color="#0034ff"/></linearGradient><linearGradient x1="227.12678" y1="235.99595" x2="235.76588" y2="269.50946" gradientUnits="userSpaceOnUse" id="color-2"><stop offset="0" stop-color="#0a00ff"/><stop offset="1" stop-color="#0034ff"/></linearGradient><linearGradient x1="275.07701" y1="225.445" x2="284.37225" y2="261.50383" gradientUnits="userSpaceOnUse" id="color-3"><stop offset="0" stop-color="#0a00ff"/><stop offset="1" stop-color="#0034ff"/></linearGradient><linearGradient x1="271.87929" y1="209.53009" x2="277.12836" y2="229.89272" gradientUnits="userSpaceOnUse" id="color-4"><stop offset="0" stop-color="#0a00ff"/><stop offset="1" stop-color="#0034ff"/></linearGradient><linearGradient x1="222.8619" y1="219.45131" x2="228.11098" y2="239.81395" gradientUnits="userSpaceOnUse" id="color-5"><stop offset="0" stop-color="#0a00ff"/><stop offset="1" stop-color="#0034ff"/></linearGradient><linearGradient x1="264.60546" y1="290.12469" x2="270.51067" y2="313.03265" gradientUnits="userSpaceOnUse" id="color-6"><stop offset="0" stop-color="#00ffb5"/><stop offset="1" stop-color="#00c7aa"/></linearGradient><linearGradient x1="265.11139" y1="291.5023" x2="267.51722" y2="300.83518" gradientUnits="userSpaceOnUse" id="color-7"><stop offset="0" stop-color="#000000"/><stop offset="1" stop-color="#101010"/></linearGradient><linearGradient x1="244.41836" y1="274.06519" x2="249.0113" y2="291.8825" gradientUnits="userSpaceOnUse" id="color-8"><stop offset="0" stop-color="#000000"/><stop offset="1" stop-color="#101010"/></linearGradient><linearGradient x1="275.29037" y1="267.46423" x2="279.88331" y2="285.28153" gradientUnits="userSpaceOnUse" id="color-9"><stop offset="0" stop-color="#000000"/><stop offset="1" stop-color="#101010"/></linearGradient><linearGradient x1="276.56174" y1="232.75326" x2="282.02953" y2="253.96432" gradientUnits="userSpaceOnUse" id="color-10"><stop offset="0" stop-color="#00ffb5"/><stop offset="1" stop-color="#00c7aa"/></linearGradient><linearGradient x1="272.37982" y1="213.02036" x2="275.9111" y2="226.71916" gradientUnits="userSpaceOnUse" id="color-11"><stop offset="0" stop-color="#00ffb5"/><stop offset="1" stop-color="#00c7aa"/></linearGradient><linearGradient x1="228.61151" y1="243.30422" x2="234.0793" y2="264.51529" gradientUnits="userSpaceOnUse" id="color-12"><stop offset="0" stop-color="#00ffb5"/><stop offset="1" stop-color="#00c7aa"/></linearGradient><linearGradient x1="224.21087" y1="222.72288" x2="227.74215" y2="236.42168" gradientUnits="userSpaceOnUse" id="color-13"><stop offset="0" stop-color="#00ffb5"/><stop offset="1" stop-color="#00c7aa"/></linearGradient><linearGradient x1="245.57282" y1="278.51791" x2="247.81461" y2="287.21445" gradientUnits="userSpaceOnUse" id="color-14"><stop offset="0" stop-color="#9800ff"/><stop offset="1" stop-color="#770079"/></linearGradient><linearGradient x1="276.23272" y1="271.97164" x2="278.47452" y2="280.66817" gradientUnits="userSpaceOnUse" id="color-15"><stop offset="0" stop-color="#9800ff"/><stop offset="1" stop-color="#770079"/></linearGradient><linearGradient x1="246.05293" y1="280.89655" x2="246.86626" y2="284.0517" gradientUnits="userSpaceOnUse" id="color-16"><stop offset="0" stop-color="#ffffff"/><stop offset="1" stop-color="#787878"/></linearGradient><linearGradient x1="276.97962" y1="274.50771" x2="277.79296" y2="277.66285" gradientUnits="userSpaceOnUse" id="color-17"><stop offset="0" stop-color="#ffffff"/><stop offset="1" stop-color="#787878"/></linearGradient><radialGradient cx="320" cy="179.99998" r="511.88814" gradientUnits="userSpaceOnUse" id="color-18"><stop offset="0" stop-color="#000000" stop-opacity="0"/><stop offset="1" stop-color="#000000"/></radialGradient></defs><g transform="translate(191.88814,135.91259)"><g data-paper-data="{&quot;isPaintingLayer&quot;:true}" fill-rule="nonzero" stroke-linejoin="miter" stroke-miterlimit="10" stroke-dasharray="" stroke-dashoffset="0" style="mix-blend-mode: normal"><path d="M-139.28281,472.79281v-585.58559h918.56562v585.58559z" fill="#ffffff" stroke="none" stroke-width="0" stroke-linecap="butt"/><path d="M155.58559,-3.93393l64.56456,367.86787" fill="none" stroke="#000000" stroke-width="1.5" stroke-linecap="round"/><path d="M413.84385,-15.94594l82.58258,396.3964" fill="none" stroke="#000000" stroke-width="1.5" stroke-linecap="round"/><path d="M193.12312,207.77779l-199.6997,49.54955" fill="none" stroke="#000000" stroke-width="1.5" stroke-linecap="round"/><path d="M646.57658,63.63364l-210.21021,37.53754" fill="none" stroke="#000000" stroke-width="1.5" stroke-linecap="round"/><path d="M179.79103,137.64545l-12.64959,-81.51436l259.55402,-17.9597l15.64959,67.51436z" fill="#000000" stroke="none" stroke-width="0" stroke-linecap="butt"/><text transform="translate(197.35572,115.21963) rotate(-9.59144) scale(0.82503,0.82503)" font-size="40" xml:space="preserve" fill="#ffffff" fill-rule="nonzero" stroke="none" stroke-width="1" stroke-linecap="butt" stroke-linejoin="miter" stroke-miterlimit="10" stroke-dasharray="" stroke-dashoffset="0" font-family="&quot;ヒラギノ角ゴ Pro W3&quot;, &quot;Hiragino Kaku Gothic Pro&quot;, Osaka, &quot;メイリオ&quot;, Meiryo, &quot;ＭＳ Ｐゴシック&quot;, &quot;MS PGothic&quot;" font-weight="normal" text-anchor="start" style="mix-blend-mode: normal"><tspan x="0" dy="0">Help Wanted!</tspan></text><path d="M214.79103,340.64545l-19.64959,-125.51436l106.55402,-17.9597l30.64959,116.51437z" fill="#000000" stroke="none" stroke-width="0.5" stroke-linecap="butt"/><path d="M297.01448,279.34605c4.7929,18.59298 -6.11516,37.47904 -24.36383,42.18318c-18.24867,4.70414 -36.92755,-6.55499 -41.72045,-25.14798c-4.7929,-18.59298 6.11516,-37.47904 24.36383,-42.18318c18.24867,-4.70414 36.92755,6.55499 41.72045,25.14798z" fill="url(#color-1)" stroke="#000000" stroke-width="0.5" stroke-linecap="butt"/><path d="M241.62765,250.12817c2.38562,9.25449 -0.23877,17.93179 -5.86176,19.38129c-5.62299,1.44949 -12.11525,-4.87772 -14.50087,-14.13221c-2.38562,-9.25449 0.23877,-17.93179 5.86176,-19.38129c5.62299,-1.44949 12.11525,4.87772 14.50087,14.13221z" fill="url(#color-2)" stroke="#000000" stroke-width="0.5" stroke-linecap="butt"/><path d="M289.90594,240.84986c2.56681,9.95737 0.08928,19.20446 -5.53369,20.65395c-5.62298,1.44949 -12.26213,-5.44751 -14.82894,-15.40487c-2.56681,-9.95737 -0.08928,-19.20446 5.53369,-20.65395c5.62298,-1.44949 12.26213,5.44751 14.82894,15.40487z" fill="url(#color-3)" stroke="#000000" stroke-width="0.5" stroke-linecap="butt"/><path d="M281.29137,217.96171c1.44949,5.62299 -0.41435,10.96468 -4.16301,11.93101c-3.74866,0.96633 -7.96259,-2.80864 -9.41208,-8.43162c-1.44949,-5.62299 0.41435,-10.96468 4.16301,-11.93101c3.74866,-0.96633 7.96259,2.80864 9.41208,8.43162z" fill="url(#color-4)" stroke="#000000" stroke-width="0.5" stroke-linecap="butt"/><path d="M232.27398,227.88295c1.44949,5.62298 -0.41435,10.96468 -4.16301,11.93101c-3.74866,0.96633 -7.96259,-2.80864 -9.41208,-8.43162c-1.44949,-5.62298 0.41435,-10.96468 4.16301,-11.93101c3.74866,-0.96633 7.96259,2.80864 9.41208,8.43162z" fill="url(#color-5)" stroke="#000000" stroke-width="0.5" stroke-linecap="butt"/><path d="M282.83004,297.64185c1.63068,6.32586 -3.88489,13.21655 -12.31937,15.39079c-8.43448,2.17424 -16.5939,-1.19132 -18.22458,-7.51717c-1.63068,-6.32586 3.88489,-13.21655 12.31937,-15.39079c8.43448,-2.17424 16.5939,1.19132 18.22458,7.51717z" fill="url(#color-6)" stroke="#000000" stroke-width="0.5" stroke-linecap="butt"/><path d="M273.52607,294.30969c0.66435,2.5772 -2.0259,5.49876 -6.00885,6.52548c-3.98295,1.02672 -7.75033,-0.23018 -8.41468,-2.80739c-0.66435,-2.5772 2.0259,-5.49876 6.00885,-6.52548c3.98295,-1.02672 7.75033,0.23018 8.41468,2.80739z" fill="url(#color-7)" stroke="#000000" stroke-width="0.5" stroke-linecap="butt"/><path d="M254.5754,280.94755c1.26831,4.92011 -1.22283,9.81586 -5.56411,10.93495c-4.34128,1.11909 -8.88874,-1.96224 -10.15705,-6.88235c-1.26831,-4.92011 1.22283,-9.81586 5.56411,-10.93495c4.34128,-1.11909 8.88874,1.96224 10.15705,6.88235z" fill="url(#color-8)" stroke="#000000" stroke-width="0.5" stroke-linecap="butt"/><path d="M285.44741,274.34659c1.26831,4.92011 -1.22283,9.81586 -5.5641,10.93495c-4.34128,1.11909 -8.88873,-1.96224 -10.15704,-6.88235c-1.26831,-4.92011 1.22283,-9.81586 5.5641,-10.93495c4.34128,-1.11909 8.88873,1.96224 10.15704,6.88235z" fill="url(#color-9)" stroke="#000000" stroke-width="0.5" stroke-linecap="butt"/><path d="M285.28464,241.81495c1.50989,5.85728 0.05252,11.29674 -3.25511,12.14938c-3.30764,0.85264 -7.21301,-3.20441 -8.7229,-9.06169c-1.50989,-5.85728 -0.05252,-11.29674 3.25511,-12.14938c3.30764,-0.85264 7.21301,3.20441 8.7229,9.06169z" fill="url(#color-10)" stroke="#000000" stroke-width="0.5" stroke-linecap="butt"/><path d="M272.37982,213.02036c2.13618,-0.55066 4.6584,2.06952 5.63354,5.85235c0.97514,3.78283 0.03392,7.29582 -2.10226,7.84648c-2.13618,0.55066 -4.6584,-2.06952 -5.63354,-5.85235c-0.97514,-3.78283 -0.03392,-7.29582 2.10226,-7.84648z" data-paper-data="{&quot;index&quot;:null}" fill="url(#color-11)" stroke="#000000" stroke-width="0.5" stroke-linecap="butt"/><path d="M228.61151,243.30422c3.30764,-0.85264 7.21302,3.20441 8.72291,9.06169c1.50989,5.85728 0.05252,11.29674 -3.25512,12.14938c-3.30764,0.85264 -7.21301,-3.20441 -8.7229,-9.06169c-1.50989,-5.85728 -0.05253,-11.29674 3.25511,-12.14938z" data-paper-data="{&quot;index&quot;:null}" fill="url(#color-12)" stroke="#000000" stroke-width="0.5" stroke-linecap="butt"/><path d="M229.84441,228.57522c0.97514,3.78283 0.03392,7.2958 -2.10226,7.84647c-2.13618,0.55066 -4.65841,-2.06951 -5.63355,-5.85233c-0.97514,-3.78283 -0.03392,-7.29581 2.10227,-7.84647c2.13618,-0.55066 4.6584,2.06951 5.63354,5.85234z" data-paper-data="{&quot;index&quot;:null}" fill="url(#color-13)" stroke="#000000" stroke-width="0.5" stroke-linecap="butt"/><path d="M250.53043,281.87715c0.61905,2.40148 -0.59685,4.79107 -2.71581,5.3373c-2.11896,0.54623 -4.33855,-0.95776 -4.95761,-3.35924c-0.61905,-2.40148 0.59685,-4.79107 2.71581,-5.3373c2.11896,-0.54623 4.33855,0.95776 4.95761,3.35924z" fill="url(#color-14)" stroke="#000000" stroke-width="0.5" stroke-linecap="butt"/><path d="M281.19033,275.33088c0.61905,2.40148 -0.59686,4.79107 -2.71581,5.3373c-2.11895,0.54622 -4.33855,-0.95776 -4.95761,-3.35924c-0.61905,-2.40148 0.59686,-4.79107 2.71581,-5.3373c2.11895,-0.54622 4.33855,0.95776 4.95761,3.35924z" fill="url(#color-15)" stroke="#000000" stroke-width="0.5" stroke-linecap="butt"/><path d="M248.15648,282.0367c0.22459,0.87127 -0.35305,1.77342 -1.29022,2.015c-0.93716,0.24158 -1.87896,-0.26888 -2.10355,-1.14015c-0.22459,-0.87127 0.35306,-1.77341 1.29022,-2.01499c0.93716,-0.24158 1.87896,0.26888 2.10355,1.14015z" fill="url(#color-16)" stroke="#000000" stroke-width="0.5" stroke-linecap="butt"/><path d="M279.08317,275.64786c0.22459,0.87127 -0.35305,1.77342 -1.29022,2.015c-0.93716,0.24158 -1.87896,-0.26888 -2.10355,-1.14015c-0.22459,-0.87127 0.35306,-1.77341 1.29022,-2.01499c0.93716,-0.24158 1.87896,0.26888 2.10355,1.14015z" fill="url(#color-17)" stroke="#000000" stroke-width="0.5" stroke-linecap="butt"/><text transform="translate(310.34077,217.62371) rotate(-11.26465) scale(0.26948,0.26948)" font-size="40" xml:space="preserve" fill="#000000" fill-rule="nonzero" stroke="none" stroke-width="1" stroke-linecap="butt" stroke-linejoin="miter" stroke-miterlimit="10" stroke-dasharray="" stroke-dashoffset="0" font-family="&quot;ヒラギノ角ゴ Pro W3&quot;, &quot;Hiragino Kaku Gothic Pro&quot;, Osaka, &quot;メイリオ&quot;, Meiryo, &quot;ＭＳ Ｐゴシック&quot;, &quot;MS PGothic&quot;" font-weight="normal" text-anchor="start" style="mix-blend-mode: normal"><tspan x="0" dy="0">Family pizzeria looking for </tspan><tspan x="0" dy="46.150000000000006px">security guard to work </tspan><tspan x="0" dy="46.150000000000006px">the nightshift.</tspan><tspan x="0" dy="46.150000000000006px">12am-6am.</tspan></text><text transform="translate(323.84078,271.6237) rotate(-11.26448) scale(0.26948,0.26948)" font-size="40" xml:space="preserve" fill="#000000" fill-rule="nonzero" stroke="none" stroke-width="1" stroke-linecap="butt" stroke-linejoin="miter" stroke-miterlimit="10" stroke-dasharray="" stroke-dashoffset="0" font-family="&quot;ヒラギノ角ゴ Pro W3&quot;, &quot;Hiragino Kaku Gothic Pro&quot;, Osaka, &quot;メイリオ&quot;, Meiryo, &quot;ＭＳ Ｐゴシック&quot;, &quot;MS PGothic&quot;" font-weight="normal" text-anchor="start" style="mix-blend-mode: normal"><tspan x="0" dy="0">Monitor cameras, </tspan><tspan x="0" dy="46.150000000000006px">ensure safety of equipment </tspan><tspan x="0" dy="46.150000000000006px">and animatronic characters.</tspan></text><text transform="translate(273.14517,338.5192) rotate(-12.39089) scale(0.24515,0.24515)" font-size="40" xml:space="preserve" fill="#000000" fill-rule="nonzero" stroke="none" stroke-width="1" stroke-linecap="butt" stroke-linejoin="miter" stroke-miterlimit="10" stroke-dasharray="" stroke-dashoffset="0" font-family="&quot;ヒラギノ角ゴ Pro W3&quot;, &quot;Hiragino Kaku Gothic Pro&quot;, Osaka, &quot;メイリオ&quot;, Meiryo, &quot;ＭＳ Ｐゴシック&quot;, &quot;MS PGothic&quot;" font-weight="normal" text-anchor="start" style="mix-blend-mode: normal"><tspan x="0" dy="0">Not responsible for injury/dismemberment.</tspan></text><text transform="translate(409.39057,330.61449) rotate(-10.48751) scale(0.24279,0.24279)" font-size="40" xml:space="preserve" fill="#000000" fill-rule="nonzero" stroke="none" stroke-width="1" stroke-linecap="butt" stroke-linejoin="miter" stroke-miterlimit="10" stroke-dasharray="" stroke-dashoffset="0" font-family="&quot;ヒラギノ角ゴ Pro W3&quot;, &quot;Hiragino Kaku Gothic Pro&quot;, Osaka, &quot;メイリオ&quot;, Meiryo, &quot;ＭＳ Ｐゴシック&quot;, &quot;MS PGothic&quot;" font-weight="normal" text-anchor="start" style="mix-blend-mode: normal"><tspan x="0" dy="0">$35 a day.</tspan><tspan x="0" dy="46.150000000000006px">To apply call:</tspan><tspan x="0" dy="46.150000000000006px">1-888-ZAJ-37</tspan></text><text transform="translate(204.83394,191.31413) rotate(-10.48701) scale(0.70999,0.70999)" font-size="40" xml:space="preserve" fill="#000000" fill-rule="nonzero" stroke="none" stroke-width="1" stroke-linecap="butt" stroke-linejoin="miter" stroke-miterlimit="10" stroke-dasharray="" stroke-dashoffset="0" font-family="Malgun Gothic" font-weight="normal" text-anchor="start" style="mix-blend-mode: normal"><tspan x="0" dy="0">Zajcu37's Pizzeria</tspan></text><path d="M-191.88814,495.91259v-631.82517h1023.77628v631.82517z" fill="url(#color-18)" stroke="none" stroke-width="0" stroke-linecap="butt"/></g></g></svg>