<svg version="1.1" xmlns="http://www.w3.org/2000/svg" xmlns:xlink="http://www.w3.org/1999/xlink" width="255.66791" height="542.65808" viewBox="0,0,255.66791,542.65808"><defs><linearGradient x1="492.19722" y1="290.23551" x2="539.35164" y2="334.78041" gradientUnits="userSpaceOnUse" id="color-1"><stop offset="0" stop-color="#0a00ff"/><stop offset="1" stop-color="#0034ff"/></linearGradient><linearGradient x1="522.85166" y1="324.48686" x2="459.76846" y2="309.37734" gradientUnits="userSpaceOnUse" id="color-2"><stop offset="0" stop-color="#0a00ff"/><stop offset="1" stop-color="#0034ff"/></linearGradient><linearGradient x1="654.87163" y1="256.36574" x2="625.05281" y2="313.97324" gradientUnits="userSpaceOnUse" id="color-3"><stop offset="0" stop-color="#0a00ff"/><stop offset="1" stop-color="#0034ff"/></linearGradient><linearGradient x1="561.04778" y1="242.49776" x2="596.42181" y2="389.52942" gradientUnits="userSpaceOnUse" id="color-4"><stop offset="0" stop-color="#0a00ff"/><stop offset="1" stop-color="#0034ff"/></linearGradient><linearGradient x1="589.80606" y1="534.96702" x2="600.23386" y2="578.31002" gradientUnits="userSpaceOnUse" id="color-5"><stop offset="0" stop-color="#0a00ff"/><stop offset="1" stop-color="#0034ff"/></linearGradient><linearGradient x1="652.79883" y1="521.50994" x2="663.22663" y2="564.85294" gradientUnits="userSpaceOnUse" id="color-6"><stop offset="0" stop-color="#0a00ff"/><stop offset="1" stop-color="#0034ff"/></linearGradient><linearGradient x1="679.78279" y1="323.17652" x2="649.96398" y2="380.78403" gradientUnits="userSpaceOnUse" id="color-7"><stop offset="0" stop-color="#0a00ff"/><stop offset="1" stop-color="#0034ff"/></linearGradient><linearGradient x1="689.82374" y1="377.63944" x2="670.97436" y2="414.05491" gradientUnits="userSpaceOnUse" id="color-8"><stop offset="0" stop-color="#0a00ff"/><stop offset="1" stop-color="#0034ff"/></linearGradient><linearGradient x1="488.8728" y1="275.53887" x2="447.04313" y2="276.50865" gradientUnits="userSpaceOnUse" id="color-9"><stop offset="0" stop-color="#0a00ff"/><stop offset="1" stop-color="#0034ff"/></linearGradient><linearGradient x1="567.72768" y1="270.26265" x2="589.74192" y2="361.76453" gradientUnits="userSpaceOnUse" id="color-10"><stop offset="0" stop-color="#00ffb5"/><stop offset="1" stop-color="#00c7aa"/></linearGradient><linearGradient x1="611.61832" y1="378.57813" x2="647.92251" y2="529.47598" gradientUnits="userSpaceOnUse" id="color-11"><stop offset="0" stop-color="#0a00ff"/><stop offset="1" stop-color="#0034ff"/></linearGradient><linearGradient x1="566.70024" y1="385.98844" x2="603.00443" y2="536.88629" gradientUnits="userSpaceOnUse" id="color-12"><stop offset="0" stop-color="#0a00ff"/><stop offset="1" stop-color="#0034ff"/></linearGradient><linearGradient x1="531.01281" y1="116.87353" x2="561.66224" y2="244.26744" gradientUnits="userSpaceOnUse" id="color-13"><stop offset="0" stop-color="#0a00ff"/><stop offset="1" stop-color="#0034ff"/></linearGradient><linearGradient x1="478.49562" y1="81.71822" x2="493.7511" y2="145.12742" gradientUnits="userSpaceOnUse" id="color-14"><stop offset="0" stop-color="#0a00ff"/><stop offset="1" stop-color="#0034ff"/></linearGradient><linearGradient x1="563.43195" y1="67.68499" x2="585.17094" y2="134.40457" gradientUnits="userSpaceOnUse" id="color-15"><stop offset="0" stop-color="#0a00ff"/><stop offset="1" stop-color="#0034ff"/></linearGradient><linearGradient x1="555.53896" y1="38.13084" x2="567.8151" y2="75.80778" gradientUnits="userSpaceOnUse" id="color-16"><stop offset="0" stop-color="#0a00ff"/><stop offset="1" stop-color="#0034ff"/></linearGradient><linearGradient x1="547.46146" y1="184.85002" x2="557.88926" y2="228.19302" gradientUnits="userSpaceOnUse" id="color-17"><stop offset="0" stop-color="#00ffb5"/><stop offset="1" stop-color="#00c7aa"/></linearGradient><linearGradient x1="548.37271" y1="187.46115" x2="552.62107" y2="205.11941" gradientUnits="userSpaceOnUse" id="color-18"><stop offset="0" stop-color="#000000"/><stop offset="1" stop-color="#101010"/></linearGradient><linearGradient x1="509.91502" y1="153.97519" x2="518.02553" y2="187.68641" gradientUnits="userSpaceOnUse" id="color-19"><stop offset="0" stop-color="#000000"/><stop offset="1" stop-color="#101010"/></linearGradient><linearGradient x1="568.28501" y1="142.4794" x2="576.39552" y2="176.19062" gradientUnits="userSpaceOnUse" id="color-20"><stop offset="0" stop-color="#000000"/><stop offset="1" stop-color="#101010"/></linearGradient><linearGradient x1="567.08715" y1="81.25457" x2="579.87479" y2="120.50139" gradientUnits="userSpaceOnUse" id="color-21"><stop offset="0" stop-color="#00ffb5"/><stop offset="1" stop-color="#00c7aa"/></linearGradient><linearGradient x1="556.89239" y1="44.636" x2="565.15107" y2="69.98289" gradientUnits="userSpaceOnUse" id="color-22"><stop offset="0" stop-color="#00ffb5"/><stop offset="1" stop-color="#00c7aa"/></linearGradient><linearGradient x1="481.32022" y1="95.53363" x2="490.97559" y2="135.66603" gradientUnits="userSpaceOnUse" id="color-23"><stop offset="0" stop-color="#00ffb5"/><stop offset="1" stop-color="#00c7aa"/></linearGradient><linearGradient x1="485.32739" y1="117.728" x2="478.37063" y2="82.10632" gradientUnits="userSpaceOnUse" id="color-24"><stop offset="0" stop-color="#0a00ff"/><stop offset="1" stop-color="#0034ff"/></linearGradient><linearGradient x1="512.7865" y1="166.89661" x2="514.22274" y2="172.8663" gradientUnits="userSpaceOnUse" id="color-25"><stop offset="0" stop-color="#ffffff"/><stop offset="1" stop-color="#787878"/></linearGradient><linearGradient x1="571.25304" y1="155.80215" x2="572.68928" y2="161.77184" gradientUnits="userSpaceOnUse" id="color-26"><stop offset="0" stop-color="#ffffff"/><stop offset="1" stop-color="#787878"/></linearGradient></defs><g transform="translate(-446.65275,-37.18749)"><g data-paper-data="{&quot;isPaintingLayer&quot;:true}" fill-rule="nonzero" stroke="#000000" stroke-linejoin="miter" stroke-miterlimit="10" stroke-dasharray="" stroke-dashoffset="0" style="mix-blend-mode: normal"><path d="M528.37453,313.07364c-1.17469,26.16526 -7.76822,47.1231 -14.72706,46.81068c-6.95885,-0.31243 -11.64783,-21.77682 -10.47315,-47.94206c1.17469,-26.16525 7.76824,-47.12309 14.72706,-46.81068c6.95885,0.31243 11.64782,21.77681 10.47313,47.94205z" data-paper-data="{&quot;index&quot;:null}" fill="url(#color-1)" stroke-width="1" stroke-linecap="butt"/><path d="M480.10512,322.72279c-12.02488,-23.26805 -16.75636,-44.72311 -10.56804,-47.92121c6.18832,-3.1981 20.95303,13.07181 32.97792,36.33985c12.02488,23.26805 16.75634,44.72311 10.56804,47.92121c-6.18832,3.1981 -20.95302,-13.0718 -32.9779,-36.33985z" data-paper-data="{&quot;index&quot;:null}" fill="url(#color-2)" stroke-width="1" stroke-linecap="butt"/><path d="M622.3246,241.14722c6.46618,-2.5907 19.60468,15.01858 29.34568,39.3314c9.74098,24.31282 12.39575,46.12243 5.92957,48.71311c-6.46618,2.5907 -19.60468,-15.01858 -29.34568,-39.3314c-9.74098,-24.31282 -12.39575,-46.12243 -5.92957,-48.71311z" data-paper-data="{&quot;index&quot;:null}" fill="url(#color-3)" stroke-width="1" stroke-linecap="butt"/><path d="M640.19883,301.22609c9.76827,40.60167 -9.83138,80.13642 -43.77704,88.30333c-33.94566,8.16691 -69.3828,-18.12666 -79.15106,-58.72833c-9.76827,-40.60167 9.83138,-80.13642 43.77704,-88.30333c33.94566,-8.16691 69.3828,18.12666 79.15106,58.72833z" fill="url(#color-4)" stroke-width="1" stroke-linecap="butt"/><path d="M623.11265,549.87976c2.87956,11.96883 -7.36363,24.6975 -22.87879,28.43026c-15.51516,3.73276 -30.42703,-2.94391 -33.30658,-14.91274c-2.87956,-11.96883 7.36363,-24.6975 22.87879,-28.43026c15.51516,-3.73276 30.42703,2.94391 33.30658,14.91274z" fill="url(#color-5)" stroke-width="1" stroke-linecap="butt"/><path d="M652.79883,521.50994c15.51517,-3.73276 30.42702,2.94389 33.30658,14.91274c2.87956,11.96885 -7.36361,24.6975 -22.87879,28.43026c-15.51517,3.73276 -30.42702,-2.94389 -33.30658,-14.91274c-2.87956,-11.96885 7.36361,-24.6975 22.87879,-28.43026z" data-paper-data="{&quot;index&quot;:null}" fill="url(#color-6)" stroke-width="1" stroke-linecap="butt"/><path d="M647.23577,307.95802c6.46618,-2.5907 19.60468,15.01858 29.34566,39.33139c9.74098,24.31282 12.39575,46.12243 5.92957,48.71313c-6.46618,2.5907 -19.60468,-15.01858 -29.34566,-39.33139c-9.74098,-24.31282 -12.39575,-46.12243 -5.92957,-48.71311z" data-paper-data="{&quot;index&quot;:null}" fill="url(#color-7)" stroke-width="1" stroke-linecap="butt"/><path d="M674.28802,379.89014c11.33596,-4.7438 23.26158,-1.44522 26.63662,7.36763c3.37502,8.81285 -3.07859,19.80266 -14.41454,24.54648c-11.33596,4.7438 -23.26158,1.44522 -26.63662,-7.36763c-3.37502,-8.81285 3.07859,-19.80266 14.41454,-24.54648z" data-paper-data="{&quot;index&quot;:null}" fill="url(#color-8)" stroke-width="1" stroke-linecap="butt"/><path d="M450.88893,290.99452c-6.56799,-7.04187 -4.25034,-19.45305 5.17664,-27.72119c9.42698,-8.26812 22.39346,-9.26222 28.96144,-2.22037c6.56799,7.04187 4.25034,19.45305 -5.17664,27.72119c-9.42698,8.26812 -22.39346,9.26222 -28.96144,2.22037z" data-paper-data="{&quot;index&quot;:null}" fill="url(#color-9)" stroke-width="1" stroke-linecap="butt"/><path d="M612.44602,307.90308c6.07907,25.26756 -4.08591,49.38214 -22.7041,53.86145c-18.61819,4.47931 -38.63928,-12.37288 -44.71834,-37.64043c-6.07907,-25.26756 4.08591,-49.38214 22.7041,-53.86145c18.61819,-4.47931 38.63928,12.37288 44.71834,37.64043z" fill="url(#color-10)" stroke-width="1" stroke-linecap="butt"/><path d="M649.83662,449.19937c10.02512,41.66929 9.16815,77.61035 -1.91411,80.27661c-11.08226,2.66626 -28.19317,-28.95196 -38.2183,-70.62124c-10.02512,-41.66929 -9.16815,-77.61035 1.91411,-80.27661c11.08226,-2.66626 28.19317,28.95196 38.2183,70.62124z" fill="url(#color-11)" stroke-width="1" stroke-linecap="butt"/><path d="M604.91854,456.60969c10.02512,41.66929 9.16815,77.61035 -1.91411,80.27661c-11.08226,2.66626 -28.19317,-28.95196 -38.2183,-70.62124c-10.02512,-41.66929 -9.16815,-77.61035 1.91411,-80.27661c11.08226,-2.66626 28.19317,28.95196 38.2183,70.62124z" fill="url(#color-12)" stroke-width="1" stroke-linecap="butt"/><g fill="#000000" stroke-width="1" stroke-linecap="round"><path d="M569.74263,262.26689c0,0 0.61353,-0.06351 -6.2653,1.52412c-0.74218,0.17129 -0.58792,2.88882 -1.32293,3.45835c-6.16801,4.77954 -10.00226,7.73822 -12.80727,9.03348c-0.05213,0.02407 -0.48082,0.21061 -0.5295,0.23766c-0.27755,0.15425 -0.76213,0.12696 -0.96676,0.18282c-1.16124,0.31688 -4.16285,-7.47302 -4.16285,-7.47302c0,0 -0.83984,-3.09464 -1.41781,-6.6995c-0.82316,-5.13422 -0.05521,-10.36577 1.52368,-11.2969c0.75653,-0.44615 2.1424,-0.00444 4.02303,0.07396c0.64875,0.02704 1.39765,-0.22876 2.07695,0.01017c3.60116,1.2667 2.65714,0.57335 3.7793,1.11559c0.09691,0.04682 1.67979,0.50179 1.7729,0.55182c2.09905,1.12783 4.01337,3.27766 5.69866,3.01139c4.918,-0.77701 6.73285,-1.48207 6.73285,-1.48207"/><path d="M561.30363,256.09373c0,0 1.93697,-0.19757 6.6702,-1.74253c1.62196,-0.52941 2.34897,-3.31473 3.70531,-5.27388c0.06016,-0.0869 1.26289,-1.21206 1.32789,-1.29783c0.75273,-0.99332 0.22738,0.05354 2.85831,-2.71252c0.49627,-0.52176 1.27958,-0.63459 1.84504,-0.95375c1.63917,-0.92523 2.67246,-1.94896 3.54913,-1.89573c1.82962,0.11107 4.89311,4.42086 6.49532,9.36763c1.12495,3.47327 1.78459,6.61124 1.78459,6.61124c0,0 0.87007,8.30272 -0.3082,8.5487c-0.20764,0.04335 -0.62679,0.28807 -0.94414,0.27692c-0.05566,-0.00196 -0.52226,0.02692 -0.57964,0.02919c-3.0872,0.12233 -7.8476,-0.76858 -15.5146,-2.21958c-0.91363,-0.1729 -2.01235,-2.66319 -2.7512,-2.47818c-6.84821,1.71493 -6.27291,1.49242 -6.27291,1.49242" data-paper-data="{&quot;index&quot;:null}"/></g><path d="M608.85489,165.52957c8.4636,35.17885 -12.66527,70.431 -47.19265,78.73787c-34.52739,8.30687 -69.37847,-13.47717 -77.84208,-48.65604c-8.4636,-35.17885 12.66527,-70.431 47.19265,-78.73787c34.52739,-8.30687 69.37847,13.47717 77.84208,48.65604z" fill="url(#color-13)" stroke-width="1" stroke-linecap="butt"/><path d="M505.38692,108.78824c4.21268,17.50996 -0.99684,33.77957 -11.63581,36.33918c-10.63897,2.55961 -22.67861,-9.56006 -26.8913,-27.07002c-4.21268,-17.50996 0.99684,-33.77957 11.63581,-36.33918c10.63897,-2.55961 22.67861,9.56006 26.8913,27.07002z" fill="url(#color-14)" stroke-width="1" stroke-linecap="butt"/><path d="M593.13991,94.90671c6.00306,18.4241 2.43521,36.1079 -7.96897,39.49786c-10.40419,3.38996 -23.70491,-8.79762 -29.70797,-27.22172c-6.00306,-18.4241 -2.43521,-36.1079 7.96897,-39.49786c10.40419,-3.38996 23.70491,8.79762 29.70797,27.22172z" fill="url(#color-15)" stroke-width="1" stroke-linecap="butt"/><path d="M574.23601,52.87727c3.38996,10.4042 0.51522,20.67054 -6.42091,22.93052c-6.93614,2.25998 -15.30709,-4.34222 -18.69705,-14.74643c-3.38996,-10.4042 -0.51522,-20.67054 6.42091,-22.93052c6.93614,-2.25998 15.30709,4.34222 18.69705,14.74643z" fill="url(#color-16)" stroke-width="1" stroke-linecap="butt"/><path d="M581.5707,199.56966c2.87956,11.96883 -7.72297,24.78395 -23.68143,28.62337c-15.95846,3.83941 -31.22968,-2.7508 -34.10923,-14.71963c-2.87956,-11.96883 7.72297,-24.78395 23.68143,-28.62337c15.95846,-3.83941 31.22968,2.7508 34.10923,14.71963z" fill="url(#color-17)" stroke-width="1" stroke-linecap="butt"/><path d="M564.14191,193.00745c1.17315,4.8762 -3.9849,10.2989 -11.52084,12.11195c-7.53593,1.81305 -14.59605,-0.6701 -15.7692,-5.5463c-1.17315,-4.8762 3.9849,-10.2989 11.52084,-12.11195c7.53593,-1.81305 14.59605,0.6701 15.7692,5.5463z" fill="url(#color-18)" stroke-width="1" stroke-linecap="butt"/><path d="M528.84287,167.25264c2.23966,9.3091 -2.60343,18.45761 -10.81735,20.43378c-8.21392,1.97617 -16.6882,-3.96835 -18.92786,-13.27744c-2.23966,-9.3091 2.60343,-18.45761 10.81735,-20.43378c8.21392,-1.97617 16.6882,3.96835 18.92786,13.27744z" fill="url(#color-19)" stroke-width="1" stroke-linecap="butt"/><path d="M587.21285,155.75685c2.23966,9.3091 -2.60343,18.45761 -10.81733,20.43377c-8.21392,1.97617 -16.68819,-3.96835 -18.92784,-13.27745c-2.23966,-9.3091 2.60343,-18.45761 10.81733,-20.43377c8.21392,-1.97617 16.68819,3.96835 18.92784,13.27745z" fill="url(#color-20)" stroke-width="1" stroke-linecap="butt"/><path d="M584.56242,97.26735c3.53121,10.83771 1.43247,21.23994 -4.68763,23.23403c-6.12012,1.99409 -13.94406,-5.17507 -17.47527,-16.01278c-3.53121,-10.83771 -1.43247,-21.23994 4.68763,-23.23403c6.12012,-1.99409 13.94406,5.17507 17.47527,16.01278z" fill="url(#color-21)" stroke-width="1" stroke-linecap="butt"/><path d="M556.89239,44.636c3.95256,-1.28785 9.00554,3.34224 11.28611,10.34159c2.28057,6.99936 0.92514,13.71747 -3.02742,15.00532c-3.95256,1.28785 -9.00554,-3.34224 -11.28611,-10.34159c-2.28057,-6.99936 -0.92514,-13.71747 3.02742,-15.00532z" data-paper-data="{&quot;index&quot;:null}" fill="url(#color-22)" stroke-width="1" stroke-linecap="butt"/><path d="M481.32022,95.53363c6.25822,-1.50565 13.49294,6.25772 16.1592,17.33998c2.66626,11.08226 -0.24561,21.28678 -6.50383,22.79243c-6.25822,1.50565 -13.49293,-6.25772 -16.15918,-17.33998c-2.66626,-11.08226 0.2456,-21.28677 6.50381,-22.79242z" data-paper-data="{&quot;index&quot;:null}" fill="url(#color-23)" stroke-width="1" stroke-linecap="butt"/><path d="M485.3274,117.728c-7.39524,1.98958 -17.44759,-2.62175 -19.36865,-12.45839c-1.92106,-9.83664 5.01664,-21.1737 12.41188,-23.16328c7.39524,-1.98958 19.44759,5.37175 21.36865,15.20839c1.92106,9.83664 -7.01664,18.4237 -14.41188,20.41328z" fill="url(#color-24)" stroke-width="1" stroke-linecap="butt"/><path d="M516.71521,169.10902c0.3966,1.64848 -0.71931,3.33068 -2.49247,3.75729c-1.77316,0.4266 -3.5321,-0.56393 -3.92871,-2.21241c-0.3966,-1.64848 0.71931,-3.33067 2.49248,-3.75727c1.77316,-0.4266 3.5321,0.56393 3.92871,2.21243z" fill="url(#color-25)" stroke-width="0" stroke-linecap="butt"/><path d="M575.18175,158.01456c0.3966,1.64848 -0.71931,3.33068 -2.49247,3.75729c-1.77316,0.4266 -3.5321,-0.56393 -3.92871,-2.21241c-0.3966,-1.64848 0.71931,-3.33067 2.49248,-3.75727c1.77316,-0.4266 3.5321,0.56393 3.92871,2.21243z" fill="url(#color-26)" stroke-width="0" stroke-linecap="butt"/></g></g></svg>