<svg version="1.1" xmlns="http://www.w3.org/2000/svg" xmlns:xlink="http://www.w3.org/1999/xlink" width="784.85043" height="485.04511" viewBox="0,0,784.85043,485.04511"><defs><linearGradient x1="320" y1="-28" x2="320" y2="388" gradientUnits="userSpaceOnUse" id="color-1"><stop offset="0" stop-color="#292929"/><stop offset="1" stop-color="#2b2b2b"/></linearGradient><linearGradient x1="482.5" y1="70.88484" x2="482.5" y2="121.88484" gradientUnits="userSpaceOnUse" id="color-2"><stop offset="0" stop-color="#828282"/><stop offset="1" stop-color="#afafaf"/></linearGradient><linearGradient x1="354.5" y1="264.74185" x2="354.5" y2="364.74185" gradientUnits="userSpaceOnUse" id="color-3"><stop offset="0" stop-color="#66411f"/><stop offset="1" stop-color="#352210"/></linearGradient><linearGradient x1="93.0381" y1="64.88484" x2="93.0381" y2="115.88484" gradientUnits="userSpaceOnUse" id="color-4"><stop offset="0" stop-color="#828282"/><stop offset="1" stop-color="#afafaf"/></linearGradient><linearGradient x1="-92.5" y1="185.63409" x2="89.35043" y2="185.63409" gradientUnits="userSpaceOnUse" id="color-5"><stop offset="0" stop-color="#484848"/><stop offset="1" stop-color="#666666"/></linearGradient><linearGradient x1="518.5" y1="196.13559" x2="692.35043" y2="196.13559" gradientUnits="userSpaceOnUse" id="color-6"><stop offset="0" stop-color="#484848"/><stop offset="1" stop-color="#666666"/></linearGradient><linearGradient x1="283.48793" y1="-56.07508" x2="286.07417" y2="9.87422" gradientUnits="userSpaceOnUse" id="color-7"><stop offset="0" stop-color="#828282"/><stop offset="1" stop-color="#afafaf"/></linearGradient><linearGradient x1="128" y1="236.88484" x2="128" y2="377.88484" gradientUnits="userSpaceOnUse" id="color-8"><stop offset="0" stop-color="#212121"/><stop offset="1" stop-color="#131313"/></linearGradient><linearGradient x1="123" y1="249.88484" x2="123" y2="301.88484" gradientUnits="userSpaceOnUse" id="color-9"><stop offset="0" stop-color="#5a5a5a"/><stop offset="1" stop-color="#878787"/></linearGradient><linearGradient x1="123" y1="321.88484" x2="123" y2="373.88484" gradientUnits="userSpaceOnUse" id="color-10"><stop offset="0" stop-color="#5a5a5a"/><stop offset="1" stop-color="#878787"/></linearGradient><linearGradient x1="466" y1="235.88484" x2="466" y2="376.88484" gradientUnits="userSpaceOnUse" id="color-11"><stop offset="0" stop-color="#212121"/><stop offset="1" stop-color="#131313"/></linearGradient><linearGradient x1="472" y1="248.88484" x2="472" y2="300.88484" gradientUnits="userSpaceOnUse" id="color-12"><stop offset="0" stop-color="#5a5a5a"/><stop offset="1" stop-color="#878787"/></linearGradient><linearGradient x1="472" y1="320.88484" x2="472" y2="372.88484" gradientUnits="userSpaceOnUse" id="color-13"><stop offset="0" stop-color="#5a5a5a"/><stop offset="1" stop-color="#878787"/></linearGradient></defs><g transform="translate(92.5,63.01729)"><g data-paper-data="{&quot;isPaintingLayer&quot;:true}" fill-rule="nonzero" stroke-linecap="butt" stroke-linejoin="miter" stroke-miterlimit="10" stroke-dasharray="" stroke-dashoffset="0" style="mix-blend-mode: normal"><path d="M-40,388v-416h720v416c0,0 -16.73428,0 -36.5,0c-85.53333,0 -683.5,0 -683.5,0z" fill="url(#color-1)" stroke="none" stroke-width="0"/><path d="M474,58.88484l-119,-61c0,0 -27.31317,-53 -23,-53c18.23555,0 256,126 256,126l-21,53z" fill="url(#color-2)" stroke="#000000" stroke-width="0.5"/><path d="M74.5,364.74185l-18,-66l449,-34l147,89z" fill="url(#color-3)" stroke="none" stroke-width="0"/><path d="M8.5381,117.88484l9,-53c0,0 207.76445,-126 226,-126c4.31316,0 -23,53 -23,53l-119,61z" data-paper-data="{&quot;index&quot;:null}" fill="url(#color-4)" stroke="#000000" stroke-width="0.5"/><path d="M-92.5,399.74185v-440h115.03886c0,0 25.13881,158.98468 25.63713,254.24711c0.21192,40.51264 39.10173,123.30756 40.32023,160.74839c2.04331,62.78465 -0.22086,23.56795 -0.22086,35.0045c0,4.6945 -35.39657,-10 -35.39657,-10z" fill="url(#color-5)" stroke="none" stroke-width="0"/><path d="M553.36718,410.24335c0,0 -33.8394,14.6945 -33.8394,10c0,-11.43655 -2.16456,27.78015 -0.21115,-35.0045c1.1649,-37.44083 38.34386,-120.23575 38.54646,-160.7484c0.4764,-95.26243 24.50928,-254.2471 24.50928,-254.2471h109.97805v440z" data-paper-data="{&quot;index&quot;:null}" fill="url(#color-6)" stroke="none" stroke-width="0"/><path d="M212.8006,-9.26921l21.50716,-49.88108c0,0 16.55211,-2.65064 39.322,-3.54357c25.24798,-0.99012 67.51816,8.36068 67.51816,8.36068l17.9324,49.3352c0,0 -55.79994,5.19054 -81.87781,6.2132c-21.16226,0.8299 -64.4019,-10.48442 -64.4019,-10.48442z" fill="url(#color-7)" stroke="#000000" stroke-width="0.5"/><path d="M71,377.88484v-141h114v141z" fill="url(#color-8)" stroke="none" stroke-width="0"/><path d="M150,275.88484c0,14.3594 -12.08831,26 -27,26c-14.91169,0 -27,-11.6406 -27,-26c0,-14.3594 12.08831,-26 27,-26c14.91169,0 27,11.6406 27,26z" fill="url(#color-9)" stroke="none" stroke-width="0"/><path d="M150,347.88484c0,14.3594 -12.08831,26 -27,26c-14.91169,0 -27,-11.6406 -27,-26c0,-14.3594 12.08831,-26 27,-26c14.91169,0 27,11.6406 27,26z" fill="url(#color-10)" stroke="none" stroke-width="0"/><path d="M407,376.88484v-141h118v141z" data-paper-data="{&quot;index&quot;:null}" fill="url(#color-11)" stroke="none" stroke-width="0"/><path d="M472,248.88484c14.91169,0 27,11.6406 27,26c0,14.3594 -12.08831,26 -27,26c-14.91169,0 -27,-11.6406 -27,-26c0,-14.3594 12.08831,-26 27,-26z" data-paper-data="{&quot;index&quot;:null}" fill="url(#color-12)" stroke="none" stroke-width="0"/><path d="M472,320.88484c14.91169,0 27,11.6406 27,26c0,14.3594 -12.08831,26 -27,26c-14.91169,0 -27,-11.6406 -27,-26c0,-14.3594 12.08831,-26 27,-26z" data-paper-data="{&quot;index&quot;:null}" fill="url(#color-13)" stroke="none" stroke-width="0"/></g></g></svg>