<svg version="1.1" xmlns="http://www.w3.org/2000/svg" xmlns:xlink="http://www.w3.org/1999/xlink" width="154.62055" height="219.4968" viewBox="0,0,154.62055,219.4968"><g transform="translate(-243.07609,-76.7909)"><g data-paper-data="{&quot;isPaintingLayer&quot;:true}" fill-rule="nonzero" stroke="#000000" stroke-width="1.5" stroke-linejoin="miter" stroke-miterlimit="10" stroke-dasharray="" stroke-dashoffset="0" style="mix-blend-mode: normal"><path d="M328.125,144.75l1,82.25c0,0 -1.43292,15.12443 5.74604,27.89279c2.42739,4.3173 12.08898,6.35114 14.19659,10.75433c4.87849,10.19211 8.37826,18.18431 6.42509,22.67112c-1.1691,2.68566 -11.09307,7.9659 -38.89739,7.13096c-24.14947,-0.72518 -34.22034,-7.9492 -34.22034,-7.9492c0,0 2.13793,-9.14831 6.0418,-14.47856c1.54096,-2.10398 2.88054,-5.03836 4.84405,-8.40005c0.99556,-1.70447 9.91298,-3.6009 10.58019,-5.64044c1.79107,-5.47497 4.27605,-10.29065 5.48355,-14.37643c3.01541,-10.20315 2.3004,-16.10453 2.3004,-16.10453l1.5,-83z" fill="#333333" stroke-linecap="round"/><path d="M344.6843,156.6007c1.64374,-7.16546 -0.18829,-16.72486 -0.18829,-16.72486c0,0 31.80186,-18.6337 45.87042,-5.85789c10.21346,9.27495 5.48929,45.08149 5.48929,45.08149c0,0 -0.49193,21.20275 -33.54137,26.33884c-9.9599,1.54784 -24.78836,-35.40898 -24.78836,-35.40898c0,0 5.40932,-5.80442 7.1583,-13.42861z" fill="#000000" stroke-linecap="round"/><path d="M336.75471,136.63937c0,0 -6.04602,-5.13787 -13.7423,-6.53591c-7.23321,-1.31392 -16.6987,0.95391 -16.6987,0.95391c0,0 -20.07034,-30.91528 -7.95211,-45.55408c8.79756,-10.62744 44.78284,-7.54779 44.78284,-7.54779c0,0 21.20303,-0.47944 27.84705,32.30016c2.00227,9.87858 -34.2368,26.38371 -34.2368,26.38371z" fill="#000000" stroke-linecap="round"/><path d="M302.93091,132.53305c0,0 -4.36592,6.62502 -4.81933,14.43408c-0.42613,7.33921 2.97397,16.4594 2.97397,16.4594c0,0 -28.25022,23.67484 -44.25185,13.42328c-11.61681,-7.44239 -12.92833,-43.5354 -12.92833,-43.5354c0,0 -3.04981,-20.98803 28.68082,-31.56214c9.56246,-3.18665 30.34472,30.78079 30.34472,30.78079z" fill="#000000" stroke-linecap="round"/><path d="M302.93279,168.37221c0,0 6.28194,4.84657 14.03566,5.87953c7.28718,0.97081 16.635,-1.74155 16.635,-1.74155c0,0 21.50813,29.93282 10.09483,45.12765c-8.2858,11.03109 -44.37637,9.65454 -44.37637,9.65454c0,0 -21.15674,1.48035 -29.34157,-30.94885c-2.46661,-9.77298 32.95245,-27.97133 32.95245,-27.97133z" fill="#000000" stroke-linecap="round"/><path d="M344.375,151.64344c0,12.6437 -10.96902,22.89344 -24.5,22.89344c-13.53098,0 -24.5,-10.24974 -24.5,-22.89344c0,-12.6437 10.96902,-22.89344 24.5,-22.89344c13.53098,0 24.5,10.24974 24.5,22.89344z" fill="#333333" stroke-linecap="butt"/></g></g></svg>