<svg version="1.1" xmlns="http://www.w3.org/2000/svg" xmlns:xlink="http://www.w3.org/1999/xlink" width="948.14414" height="450.96284" viewBox="0,0,948.14414,450.96284"><defs><linearGradient x1="20.27028" y1="-4.46734" x2="20.27028" y2="369.40653" gradientUnits="userSpaceOnUse" id="color-1"><stop offset="0" stop-color="#212121"/><stop offset="1" stop-color="#232323"/></linearGradient><linearGradient x1="638.23724" y1="0.03716" x2="638.23724" y2="360.39752" gradientUnits="userSpaceOnUse" id="color-2"><stop offset="0" stop-color="#212121"/><stop offset="1" stop-color="#232323"/></linearGradient><linearGradient x1="322.50451" y1="289.82695" x2="322.50451" y2="445.4955" gradientUnits="userSpaceOnUse" id="color-3"><stop offset="0" stop-color="#212121"/><stop offset="1" stop-color="#232323"/></linearGradient><linearGradient x1="321.4985" y1="0.03716" x2="321.4985" y2="51.08821" gradientUnits="userSpaceOnUse" id="color-4"><stop offset="0" stop-color="#212121"/><stop offset="1" stop-color="#232323"/></linearGradient></defs><g transform="translate(150.07507,4.96734)"><g data-paper-data="{&quot;isPaintingLayer&quot;:true}" fill-rule="nonzero" stroke-linecap="butt" stroke-linejoin="miter" stroke-miterlimit="10" stroke-dasharray="" stroke-dashoffset="0" style="mix-blend-mode: normal"><path d="M-149.57507,369.40653v-373.87387h339.69069v373.87387z" fill="url(#color-1)" stroke="#000000" stroke-width="1"/><path d="M478.90541,360.39752v-360.36036h318.66366v360.36036z" fill="url(#color-2)" stroke="#000000" stroke-width="1"/><path d="M-149.56606,445.4955v-155.66854h944.14114v155.66854z" fill="url(#color-3)" stroke="#000000" stroke-width="1"/><path d="M-148.07657,51.08821v-51.05105h939.15015v51.05105z" fill="url(#color-4)" stroke="#000000" stroke-width="1"/><text transform="translate(79.01818,227.19411) rotate(-28.65264) scale(0.63503,0.63503)" font-size="40" xml:space="preserve" fill="#700000" fill-rule="nonzero" stroke="none" stroke-width="1" stroke-linecap="butt" stroke-linejoin="miter" stroke-miterlimit="10" stroke-dasharray="" stroke-dashoffset="0" font-family="Handwriting" font-weight="normal" text-anchor="start" style="mix-blend-mode: normal"><tspan x="0" dy="0">This Way</tspan></text><path d="M152.62171,242.4436c0,0 -0.21798,-3.96778 -0.88621,0.02939c-1.29737,7.76048 -9.20379,-17.06291 -9.20379,-17.06291l12.01176,-9.99219l16.09,22.70019z" fill="#700000" stroke="none" stroke-width="0"/><path d="M169.0139,239.14979l-16.28869,-23.88842l30.75861,-10.90421l1.32095,0.94826z" fill="#700000" stroke="none" stroke-width="0"/></g></g></svg>