<svg version="1.1" xmlns="http://www.w3.org/2000/svg" xmlns:xlink="http://www.w3.org/1999/xlink" width="781.19819" height="567.56757" viewBox="0,0,781.19819,567.56757"><defs><linearGradient x1="-76.1096" y1="35.30405" x2="232.97654" y2="35.30405" gradientUnits="userSpaceOnUse" id="color-1"><stop offset="0" stop-color="#222222"/><stop offset="1" stop-color="#1e1e1e"/></linearGradient><linearGradient x1="-33.31306" y1="283.80255" x2="682.69314" y2="283.80255" gradientUnits="userSpaceOnUse" id="color-2"><stop offset="0" stop-color="#222222"/><stop offset="1" stop-color="#1e1e1e"/></linearGradient><linearGradient x1="-40.19221" y1="145.1539" x2="216.58705" y2="145.1539" gradientUnits="userSpaceOnUse" id="color-3"><stop offset="0" stop-color="#ffffff" stop-opacity="0.1451"/><stop offset="1" stop-color="#ffffff" stop-opacity="0.1451"/></linearGradient><linearGradient x1="-9.5" y1="444.38485" x2="656.5" y2="444.38485" gradientUnits="userSpaceOnUse" id="color-4"><stop offset="0" stop-color="#484848"/><stop offset="1" stop-color="#666666"/></linearGradient><linearGradient x1="-51.57807" y1="442.21096" x2="691.08858" y2="442.21096" gradientUnits="userSpaceOnUse" id="color-5"><stop offset="0" stop-color="#484848"/><stop offset="1" stop-color="#666666"/></linearGradient><linearGradient x1="241.66817" y1="57.82658" x2="393.31982" y2="57.82658" gradientUnits="userSpaceOnUse" id="color-6"><stop offset="0" stop-color="#222222"/><stop offset="1" stop-color="#1e1e1e"/></linearGradient><linearGradient x1="241.66817" y1="114.13288" x2="400.82733" y2="114.13288" gradientUnits="userSpaceOnUse" id="color-7"><stop offset="0" stop-color="#222222"/><stop offset="1" stop-color="#1e1e1e"/></linearGradient><linearGradient x1="407.54903" y1="27.0458" x2="705.08859" y2="27.0458" gradientUnits="userSpaceOnUse" id="color-8"><stop offset="0" stop-color="#222222"/><stop offset="1" stop-color="#1e1e1e"/></linearGradient><linearGradient x1="427.27303" y1="138.6524" x2="686.42038" y2="138.6524" gradientUnits="userSpaceOnUse" id="color-9"><stop offset="0" stop-color="#ffffff" stop-opacity="0.1451"/><stop offset="1" stop-color="#ffffff" stop-opacity="0.1451"/></linearGradient><linearGradient x1="312.23874" y1="252.27102" x2="312.23874" y2="340.85961" gradientUnits="userSpaceOnUse" id="color-10"><stop offset="0" stop-color="#cccccc"/><stop offset="1" stop-color="#c9c9c9"/></linearGradient></defs><g transform="translate(76.1096,14.99625)"><g data-paper-data="{&quot;isPaintingLayer&quot;:true}" fill-rule="nonzero" stroke="none" stroke-linecap="butt" stroke-linejoin="miter" stroke-miterlimit="10" stroke-dasharray="" stroke-dashoffset="0" style="mix-blend-mode: normal"><path d="M-76.1096,72.09084v-73.57357h309.08615v73.57357z" fill="url(#color-1)" stroke-width="0"/><path d="M-33.31306,349.86862v-132.13213h716.00621v132.13213z" fill="url(#color-2)" stroke-width="0"/><path d="M-40.19221,218.72748v-147.14715h256.77926v147.14715z" fill="url(#color-3)" stroke-width="0"/><path d="M-9.5,505.38485v-122c0,0 4.95501,-39.71948 8.58921,-39.21098c34.60219,4.84162 216.62654,8.42876 317.41924,8.21635c1.68667,-0.00355 9.35088,0.99463 10.99156,0.99463c100.40238,0 282.457,-16.72423 320.27512,-22.04427c4.36161,-0.61357 8.72488,52.04427 8.72488,52.04427v122z" fill="url(#color-4)" stroke-width="0"/><path d="M-51.57807,552.57132v-220.72072h742.66667v220.72072z" fill="url(#color-5)" stroke-width="0"/><path d="M241.66817,127.6464v-139.63964h151.65165v139.63964z" fill="url(#color-6)" stroke-width="0"/><path d="M241.66817,243.26201v-258.25826h159.15916v258.25826z" fill="url(#color-7)" stroke-width="0"/><path d="M407.54903,64.58333v-75.07508h297.53955v75.07508z" fill="url(#color-8)" stroke-width="0"/><path d="M427.27303,212.22597v-147.14715h259.14735v147.14715z" fill="url(#color-9)" stroke-width="0"/><path d="M159.08559,340.85961v-88.58859h306.30631v88.58859z" fill="url(#color-10)" stroke-width="0"/><text transform="translate(287.1907,269.75601) scale(0.5,0.5)" font-size="40" xml:space="preserve" fill="#000000" fill-rule="nonzero" stroke="none" stroke-width="1" stroke-linecap="butt" stroke-linejoin="miter" stroke-miterlimit="10" stroke-dasharray="" stroke-dashoffset="0" font-family="Sans Serif" font-weight="normal" text-anchor="start" style="mix-blend-mode: normal"><tspan x="0" dy="0">Menu</tspan></text><text transform="translate(170.09009,286.79069) scale(0.29187,0.29187)" font-size="40" xml:space="preserve" fill="#000000" fill-rule="nonzero" stroke="none" stroke-width="1" stroke-linecap="butt" stroke-linejoin="miter" stroke-miterlimit="10" stroke-dasharray="" stroke-dashoffset="0" font-family="Sans Serif" font-weight="normal" text-anchor="start" style="mix-blend-mode: normal"><tspan x="0" dy="0">The Zajcu37 Dish- 6.99$</tspan><tspan x="0" dy="46.150000000000006px">The Ghosty Soup-2.99$</tspan><tspan x="0" dy="46.150000000000006px">Onion Rings-1.00$</tspan></text><text transform="translate(322.0901,287.29069) scale(0.29187,0.29187)" font-size="40" xml:space="preserve" fill="#000000" fill-rule="nonzero" stroke="none" stroke-width="1" stroke-linecap="butt" stroke-linejoin="miter" stroke-miterlimit="10" stroke-dasharray="" stroke-dashoffset="0" font-family="Sans Serif" font-weight="normal" text-anchor="start" style="mix-blend-mode: normal"><tspan x="0" dy="0">Pineapple Pizza-Not Avai</tspan><tspan x="0" dy="46.150000000000006px">-ble</tspan><tspan x="0" dy="46.150000000000006px">Pepporoni Pizza-7.99$ </tspan><tspan x="0" dy="46.150000000000006px">Medium, 9.99$ Big.</tspan></text></g></g></svg>