<svg version="1.1" xmlns="http://www.w3.org/2000/svg" xmlns:xlink="http://www.w3.org/1999/xlink" width="128.51349" height="160.50669" viewBox="0,0,128.51349,160.50669"><defs><linearGradient x1="117.7174" y1="85.65609" x2="102.9477" y2="163.62806" gradientUnits="userSpaceOnUse" id="color-1"><stop offset="0" stop-color="#0a00ff"/><stop offset="1" stop-color="#0034ff"/></linearGradient><linearGradient x1="97.46376" y1="53.17766" x2="90.11227" y2="91.98752" gradientUnits="userSpaceOnUse" id="color-2"><stop offset="0" stop-color="#0a00ff"/><stop offset="1" stop-color="#0034ff"/></linearGradient><linearGradient x1="152.11312" y1="65.56508" x2="144.20329" y2="107.32253" gradientUnits="userSpaceOnUse" id="color-3"><stop offset="0" stop-color="#0a00ff"/><stop offset="1" stop-color="#0034ff"/></linearGradient><linearGradient x1="156.53875" y1="47.57442" x2="152.07202" y2="71.1551" gradientUnits="userSpaceOnUse" id="color-4"><stop offset="0" stop-color="#0a00ff"/><stop offset="1" stop-color="#0034ff"/></linearGradient><linearGradient x1="101.09298" y1="34.01836" x2="96.62625" y2="57.59904" gradientUnits="userSpaceOnUse" id="color-5"><stop offset="0" stop-color="#0a00ff"/><stop offset="1" stop-color="#0034ff"/></linearGradient><linearGradient x1="109.88849" y1="127.28485" x2="104.86342" y2="153.81312" gradientUnits="userSpaceOnUse" id="color-6"><stop offset="0" stop-color="#00ffb5"/><stop offset="1" stop-color="#00c7aa"/></linearGradient><linearGradient x1="109.74205" y1="128.95342" x2="107.6948" y2="139.76123" gradientUnits="userSpaceOnUse" id="color-7"><stop offset="0" stop-color="#000000"/><stop offset="1" stop-color="#101010"/></linearGradient><linearGradient x1="96.83673" y1="100.89466" x2="92.92835" y2="121.52775" gradientUnits="userSpaceOnUse" id="color-8"><stop offset="0" stop-color="#000000"/><stop offset="1" stop-color="#101010"/></linearGradient><linearGradient x1="131.92858" y1="109.06854" x2="128.02019" y2="129.70164" gradientUnits="userSpaceOnUse" id="color-9"><stop offset="0" stop-color="#000000"/><stop offset="1" stop-color="#101010"/></linearGradient><linearGradient x1="150.09768" y1="73.83446" x2="145.44484" y2="98.39766" gradientUnits="userSpaceOnUse" id="color-10"><stop offset="0" stop-color="#00ffb5"/><stop offset="1" stop-color="#00c7aa"/></linearGradient><linearGradient x1="155.36082" y1="51.42242" x2="152.35586" y2="67.28616" gradientUnits="userSpaceOnUse" id="color-11"><stop offset="0" stop-color="#00ffb5"/><stop offset="1" stop-color="#00c7aa"/></linearGradient><linearGradient x1="95.44832" y1="61.44704" x2="90.79548" y2="86.01025" gradientUnits="userSpaceOnUse" id="color-12"><stop offset="0" stop-color="#00ffb5"/><stop offset="1" stop-color="#00c7aa"/></linearGradient><linearGradient x1="100.89758" y1="38.05248" x2="97.89262" y2="53.91621" gradientUnits="userSpaceOnUse" id="color-13"><stop offset="0" stop-color="#00ffb5"/><stop offset="1" stop-color="#00c7aa"/></linearGradient><linearGradient x1="95.86685" y1="106.0543" x2="93.95918" y2="116.12522" gradientUnits="userSpaceOnUse" id="color-14"><stop offset="0" stop-color="#9800ff"/><stop offset="1" stop-color="#770079"/></linearGradient><linearGradient x1="130.71306" y1="114.18165" x2="128.8054" y2="124.25257" gradientUnits="userSpaceOnUse" id="color-15"><stop offset="0" stop-color="#9800ff"/><stop offset="1" stop-color="#770079"/></linearGradient><linearGradient x1="95.20765" y1="108.74424" x2="94.51554" y2="112.39802" gradientUnits="userSpaceOnUse" id="color-16"><stop offset="0" stop-color="#ffffff"/><stop offset="1" stop-color="#787878"/></linearGradient><linearGradient x1="130.25296" y1="117.16376" x2="129.56085" y2="120.81753" gradientUnits="userSpaceOnUse" id="color-17"><stop offset="0" stop-color="#ffffff"/><stop offset="1" stop-color="#787878"/></linearGradient><radialGradient cx="117.63901" cy="107.3711" r="72.66667" gradientUnits="userSpaceOnUse" id="color-18"><stop offset="0" stop-color="#000000" stop-opacity="0"/><stop offset="1" stop-color="#000000"/></radialGradient></defs><g transform="translate(-53.38226,-27.11776)"><g data-paper-data="{&quot;isPaintingLayer&quot;:true}" fill-rule="nonzero" stroke-linecap="butt" stroke-linejoin="miter" stroke-miterlimit="10" stroke-dasharray="" stroke-dashoffset="0" style="mix-blend-mode: normal"><path d="M148.59656,131.89017c-4.07854,21.53136 -24.51623,35.7409 -45.64886,31.73789c-21.13263,-4.00301 -34.9577,-24.7027 -30.87916,-46.23407c4.07854,-21.53136 24.51623,-35.7409 45.64886,-31.73789c21.13263,4.00301 34.9577,24.7027 30.87916,46.23407z" fill="url(#color-1)" stroke="#000000" stroke-width="1"/><path d="M105.57836,74.81596c-2.03006,10.71704 -8.95446,18.40502 -15.46608,17.17157c-6.51163,-1.23345 -10.14465,-10.92125 -8.11459,-21.6383c2.03006,-10.71704 8.95446,-18.40502 15.46608,-17.17157c6.51163,1.23345 10.14465,10.92125 8.11459,21.6383z" fill="url(#color-2)" stroke="#000000" stroke-width="1"/><path d="M159.94854,88.67717c-2.18424,11.531 -9.23364,19.87881 -15.74525,18.64536c-6.51162,-1.23345 -10.01966,-11.58109 -7.83542,-23.11209c2.18424,-11.531 9.23364,-19.87881 15.74525,-18.64536c6.51162,1.23345 10.01966,11.58109 7.83542,23.11209z" fill="url(#color-3)" stroke="#000000" stroke-width="1"/><path d="M162.16561,60.85367c-1.23345,6.51163 -5.7525,11.12373 -10.09359,10.30143c-4.34108,-0.8223 -6.86032,-6.76762 -5.62686,-13.27925c1.23345,-6.51163 5.7525,-11.12373 10.09359,-10.30143c4.34108,0.8223 6.86032,6.76762 5.62686,13.27925z" fill="url(#color-4)" stroke="#000000" stroke-width="1"/><path d="M106.71984,47.29761c-1.23345,6.51162 -5.7525,11.12373 -10.09359,10.30143c-4.34108,-0.8223 -6.86031,-6.76763 -5.62686,-13.27925c1.23345,-6.51162 5.7525,-11.12373 10.09359,-10.30143c4.34108,0.8223 6.86031,6.76763 5.62686,13.27925z" fill="url(#color-5)" stroke="#000000" stroke-width="1"/><path d="M125.06146,143.89903c-1.38763,7.32557 -10.4306,11.76427 -20.19804,9.91409c-9.76744,-1.85018 -16.56061,-9.2886 -15.17297,-16.61418c1.38763,-7.32557 10.4306,-11.76427 20.19804,-9.91409c9.76744,1.85018 16.56061,9.2886 15.17297,16.61418z" fill="url(#color-6)" stroke="#000000" stroke-width="1"/><path d="M117.06992,135.93929c-0.56533,2.9845 -4.76271,4.69564 -9.37511,3.82194c-4.6124,-0.8737 -7.8932,-4.00137 -7.32787,-6.98587c0.56533,-2.9845 4.76271,-4.69564 9.37511,-3.82194c4.6124,0.8737 7.8932,4.00137 7.32787,6.98587z" fill="url(#color-7)" stroke="#000000" stroke-width="1"/><path d="M103.98537,112.93549c-1.07927,5.69767 -6.02967,9.54456 -11.05703,8.59226c-5.02736,-0.9523 -8.22792,-6.34316 -7.14865,-12.04084c1.07927,-5.69767 6.02967,-9.54456 11.05703,-8.59226c5.02736,0.9523 8.22792,6.34316 7.14865,12.04084z" fill="url(#color-8)" stroke="#000000" stroke-width="1"/><path d="M139.07722,121.10938c-1.07927,5.69767 -6.02967,9.54456 -11.05702,8.59226c-5.02736,-0.9523 -8.22791,-6.34316 -7.14864,-12.04083c1.07927,-5.69767 6.02967,-9.54456 11.05702,-8.59226c5.02736,0.9523 8.22791,6.34316 7.14864,12.04083z" fill="url(#color-9)" stroke="#000000" stroke-width="1"/><path d="M154.70675,87.4298c-1.28485,6.78294 -5.43155,11.69342 -9.26191,10.96786c-3.83037,-0.72556 -5.89392,-6.8124 -4.60907,-13.59535c1.28485,-6.78294 5.43155,-11.69342 9.26191,-10.96786c3.83037,0.72556 5.89392,6.8124 4.60907,13.59535z" fill="url(#color-10)" stroke="#000000" stroke-width="1"/><path d="M155.36082,51.42242c2.47377,0.46859 3.80649,4.39968 2.97669,8.78033c-0.8298,4.38065 -3.50788,7.552 -5.98165,7.08341c-2.47377,-0.46859 -3.80649,-4.39968 -2.97669,-8.78033c0.8298,-4.38065 3.50788,-7.552 5.98165,-7.08341z" data-paper-data="{&quot;index&quot;:null}" fill="url(#color-11)" stroke="#000000" stroke-width="1"/><path d="M95.44832,61.44704c3.83037,0.72556 5.89393,6.8124 4.60908,13.59535c-1.28485,6.78294 -5.43155,11.69342 -9.26192,10.96786c-3.83037,-0.72556 -5.89392,-6.8124 -4.60907,-13.59535c1.28485,-6.78294 5.43154,-11.69342 9.26191,-10.96786z" data-paper-data="{&quot;index&quot;:null}" fill="url(#color-12)" stroke="#000000" stroke-width="1"/><path d="M103.87427,46.83281c-0.8298,4.38065 -3.50787,7.55199 -5.98165,7.0834c-2.47377,-0.46859 -3.8065,-4.39967 -2.9767,-8.78032c0.8298,-4.38065 3.50788,-7.55199 5.98166,-7.0834c2.47377,0.46859 3.80649,4.39967 2.97669,8.78032z" data-paper-data="{&quot;index&quot;:null}" fill="url(#color-13)" stroke="#000000" stroke-width="1"/><path d="M99.35607,111.93137c-0.52679,2.78101 -2.94305,4.65865 -5.39688,4.19384c-2.45383,-0.46481 -4.01601,-3.09607 -3.48922,-5.87707c0.52679,-2.78101 2.94305,-4.65865 5.39688,-4.19384c2.45383,0.46481 4.01601,3.09607 3.48922,5.87707z" fill="url(#color-14)" stroke="#000000" stroke-width="2"/><path d="M134.20228,120.05873c-0.52679,2.78101 -2.94306,4.65865 -5.39688,4.19384c-2.45382,-0.46481 -4.01601,-3.09607 -3.48922,-5.87707c0.52679,-2.78101 2.94306,-4.65865 5.39688,-4.19384c2.45382,0.46481 4.01601,3.09607 3.48922,5.87707z" fill="url(#color-15)" stroke="#000000" stroke-width="2"/><path d="M96.82665,110.94335c-0.19112,1.00896 -1.22584,1.66024 -2.31111,1.45467c-1.08527,-0.20558 -1.81012,-1.19015 -1.619,-2.19911c0.19112,-1.00896 1.22584,-1.66023 2.31111,-1.45466c1.08527,0.20558 1.81012,1.19015 1.619,2.19912z" fill="url(#color-16)" stroke="#000000" stroke-width="0"/><path d="M131.87197,119.36287c-0.19112,1.00896 -1.22584,1.66024 -2.31111,1.45467c-1.08527,-0.20558 -1.81012,-1.19015 -1.619,-2.19911c0.19112,-1.00896 1.22584,-1.66023 2.31111,-1.45466c1.08527,0.20558 1.81012,1.19015 1.619,2.19912z" fill="url(#color-17)" stroke="#000000" stroke-width="0"/><path d="M53.38226,170.58471l23.21664,-143.46695l105.29684,17.03974l-23.21664,143.46695z" fill="url(#color-18)" stroke="none" stroke-width="none"/></g></g></svg>