<svg version="1.1" xmlns="http://www.w3.org/2000/svg" xmlns:xlink="http://www.w3.org/1999/xlink" width="178.42447" height="542.86201" viewBox="0,0,178.42447,542.86201"><defs><linearGradient x1="235.05227" y1="241.14629" x2="271.53774" y2="294.78021" gradientUnits="userSpaceOnUse" id="color-1"><stop offset="0" stop-color="#0a00ff"/><stop offset="1" stop-color="#0034ff"/></linearGradient><linearGradient x1="215.54903" y1="320.55527" x2="260.60166" y2="367.22483" gradientUnits="userSpaceOnUse" id="color-2"><stop offset="0" stop-color="#0a00ff"/><stop offset="1" stop-color="#0034ff"/></linearGradient><linearGradient x1="312.54981" y1="209.31197" x2="315.51567" y2="360.50997" gradientUnits="userSpaceOnUse" id="color-3"><stop offset="0" stop-color="#0a00ff"/><stop offset="1" stop-color="#0034ff"/></linearGradient><linearGradient x1="277.81428" y1="501.13169" x2="278.68857" y2="545.70287" gradientUnits="userSpaceOnUse" id="color-4"><stop offset="0" stop-color="#0a00ff"/><stop offset="1" stop-color="#0034ff"/></linearGradient><linearGradient x1="342.22725" y1="501.5196" x2="343.10155" y2="546.09078" gradientUnits="userSpaceOnUse" id="color-5"><stop offset="0" stop-color="#0a00ff"/><stop offset="1" stop-color="#0034ff"/></linearGradient><linearGradient x1="217.86484" y1="380.09606" x2="253.64942" y2="401.77843" gradientUnits="userSpaceOnUse" id="color-6"><stop offset="0" stop-color="#0a00ff"/><stop offset="1" stop-color="#0034ff"/></linearGradient><linearGradient x1="313.10988" y1="237.86362" x2="314.95561" y2="331.95832" gradientUnits="userSpaceOnUse" id="color-7"><stop offset="0" stop-color="#00ffb5"/><stop offset="1" stop-color="#00c7aa"/></linearGradient><linearGradient x1="332.7098" y1="353.07852" x2="335.75365" y2="508.25226" gradientUnits="userSpaceOnUse" id="color-8"><stop offset="0" stop-color="#0a00ff"/><stop offset="1" stop-color="#0034ff"/></linearGradient><linearGradient x1="287.24846" y1="350.66743" x2="290.29231" y2="505.84118" gradientUnits="userSpaceOnUse" id="color-9"><stop offset="0" stop-color="#0a00ff"/><stop offset="1" stop-color="#0034ff"/></linearGradient><linearGradient x1="303.65735" y1="80.29334" x2="313.95747" y2="210.91686" gradientUnits="userSpaceOnUse" id="color-10"><stop offset="0" stop-color="#0a00ff"/><stop offset="1" stop-color="#0034ff"/></linearGradient><linearGradient x1="257.30043" y1="37.34003" x2="262.42722" y2="102.35674" gradientUnits="userSpaceOnUse" id="color-11"><stop offset="0" stop-color="#0a00ff"/><stop offset="1" stop-color="#0034ff"/></linearGradient><linearGradient x1="343.38652" y1="36.79499" x2="354.39772" y2="106.09752" gradientUnits="userSpaceOnUse" id="color-12"><stop offset="0" stop-color="#0a00ff"/><stop offset="1" stop-color="#0034ff"/></linearGradient><linearGradient x1="340.22405" y1="6.36892" x2="346.44214" y2="45.50446" gradientUnits="userSpaceOnUse" id="color-13"><stop offset="0" stop-color="#0a00ff"/><stop offset="1" stop-color="#0034ff"/></linearGradient><linearGradient x1="309.24659" y1="150.00792" x2="312.75098" y2="194.44972" gradientUnits="userSpaceOnUse" id="color-14"><stop offset="0" stop-color="#00ffb5"/><stop offset="1" stop-color="#00c7aa"/></linearGradient><linearGradient x1="309.73725" y1="152.72961" x2="311.16496" y2="170.83553" gradientUnits="userSpaceOnUse" id="color-15"><stop offset="0" stop-color="#000000"/><stop offset="1" stop-color="#101010"/></linearGradient><linearGradient x1="277.00432" y1="129.60938" x2="279.72996" y2="148.21446" gradientUnits="userSpaceOnUse" id="color-16"><stop offset="0" stop-color="#000000"/><stop offset="1" stop-color="#101010"/></linearGradient><linearGradient x1="336.45474" y1="129.65369" x2="339.18038" y2="146.51307" gradientUnits="userSpaceOnUse" id="color-17"><stop offset="0" stop-color="#000000"/><stop offset="1" stop-color="#101010"/></linearGradient><linearGradient x1="344.86935" y1="50.7698" x2="351.34653" y2="91.53599" gradientUnits="userSpaceOnUse" id="color-18"><stop offset="0" stop-color="#00ffb5"/><stop offset="1" stop-color="#00c7aa"/></linearGradient><linearGradient x1="340.54099" y1="13.00582" x2="344.72417" y2="39.33397" gradientUnits="userSpaceOnUse" id="color-19"><stop offset="0" stop-color="#00ffb5"/><stop offset="1" stop-color="#00c7aa"/></linearGradient><linearGradient x1="257.92439" y1="51.42742" x2="261.1692" y2="92.57724" gradientUnits="userSpaceOnUse" id="color-20"><stop offset="0" stop-color="#00ffb5"/><stop offset="1" stop-color="#00c7aa"/></linearGradient><linearGradient x1="278.06473" y1="135.3408" x2="278.54739" y2="141.46183" gradientUnits="userSpaceOnUse" id="color-21"><stop offset="0" stop-color="#ffffff"/><stop offset="1" stop-color="#787878"/></linearGradient><linearGradient x1="337.5476" y1="133.54877" x2="338.03026" y2="139.6698" gradientUnits="userSpaceOnUse" id="color-22"><stop offset="0" stop-color="#ffffff"/><stop offset="1" stop-color="#787878"/></linearGradient><linearGradient x1="257.85054" y1="4.22877" x2="256.28911" y2="43.82445" gradientUnits="userSpaceOnUse" id="color-23"><stop offset="0" stop-color="#0a00ff"/><stop offset="1" stop-color="#0034ff"/></linearGradient><linearGradient x1="258.31817" y1="10.85676" x2="257.26773" y2="37.49446" gradientUnits="userSpaceOnUse" id="color-24"><stop offset="0" stop-color="#00ffb5"/><stop offset="1" stop-color="#00c7aa"/></linearGradient><linearGradient x1="387.46892" y1="263.34806" x2="353.15345" y2="208.30048" gradientUnits="userSpaceOnUse" id="color-25"><stop offset="0" stop-color="#0a00ff"/><stop offset="1" stop-color="#0034ff"/></linearGradient><linearGradient x1="375.97297" y1="171.6504" x2="317.50642" y2="199.74754" gradientUnits="userSpaceOnUse" id="color-26"><stop offset="0" stop-color="#0a00ff"/><stop offset="1" stop-color="#0034ff"/></linearGradient><linearGradient x1="330.53513" y1="175.48607" x2="290.16998" y2="168.27217" gradientUnits="userSpaceOnUse" id="color-27"><stop offset="0" stop-color="#0a00ff"/><stop offset="1" stop-color="#0034ff"/></linearGradient></defs><g transform="translate(-212.5898,-3.72877)"><g data-paper-data="{&quot;isPaintingLayer&quot;:true}" fill-rule="nonzero" stroke="#000000" stroke-linejoin="miter" stroke-miterlimit="10" stroke-dasharray="" stroke-dashoffset="0" style="mix-blend-mode: normal"><path d="M265.47949,271.22223c-6.76758,25.30219 -17.70896,44.35454 -24.43825,42.55464c-6.72931,-1.7999 -6.69827,-23.77046 0.06929,-49.07263c6.76758,-25.30218 17.70898,-44.35452 24.43826,-42.55465c6.72931,1.7999 6.69826,23.77045 -0.06931,49.07262z" data-paper-data="{&quot;index&quot;:null}" fill="url(#color-1)" stroke-width="1" stroke-linecap="butt"/><path d="M250.63603,345.03549c-2.3786,26.08337 -9.93044,46.71529 -16.86751,46.08267c-6.93707,-0.63262 -10.63243,-22.2902 -8.25384,-48.37356c2.3786,-26.08337 9.93046,-46.71528 16.86751,-46.08267c6.93707,0.63262 10.63243,22.29019 8.25382,48.37356z" data-paper-data="{&quot;index&quot;:null}" fill="url(#color-2)" stroke-width="1" stroke-linecap="butt"/><path d="M377.23844,283.67114c0.819,41.75218 -26.81523,76.15409 -61.72279,76.83882c-34.90755,0.68473 -63.86965,-32.60701 -64.68864,-74.35917c-0.819,-41.75217 26.81524,-76.15409 61.72279,-76.83882c34.90756,-0.68473 63.86964,32.607 64.68863,74.35917z" fill="url(#color-3)" stroke-width="1" stroke-linecap="butt"/><path d="M307.14016,522.85061c0.24144,12.30799 -12.49678,22.5393 -28.45158,22.85226c-15.95481,0.31296 -29.08445,-9.41093 -29.32587,-21.71891c-0.24143,-12.30798 12.49678,-22.5393 28.45158,-22.85227c15.95481,-0.31297 29.08445,9.41093 29.32587,21.71891z" fill="url(#color-4)" stroke-width="1" stroke-linecap="butt"/><path d="M342.22725,501.5196c15.95481,-0.31297 29.08445,9.41091 29.32587,21.71891c0.24143,12.308 -12.49676,22.53931 -28.45159,22.85226c-15.95481,0.31296 -29.08445,-9.41091 -29.32587,-21.71892c-0.24143,-12.308 12.49676,-22.5393 28.45159,-22.85226z" data-paper-data="{&quot;index&quot;:null}" fill="url(#color-5)" stroke-width="1" stroke-linecap="butt"/><path d="M258.19921,387.49803c1.74912,9.46927 -6.88057,18.6854 -19.27502,20.58483c-12.39443,1.89942 -23.86006,-4.23712 -25.60918,-13.70637c-1.74912,-9.46927 6.88058,-18.6854 19.27502,-20.58483c12.39443,-1.89942 23.86006,4.23712 25.60918,13.70637z" data-paper-data="{&quot;index&quot;:null}" fill="url(#color-6)" stroke-width="1" stroke-linecap="butt"/><path d="M348.69922,284.23096c0.50969,25.98355 -14.59785,47.3518 -33.7436,47.72736c-19.14576,0.37556 -35.07966,-20.3838 -35.58934,-46.36734c-0.50969,-25.98355 14.59785,-47.3518 33.74361,-47.72736c19.14576,-0.37556 35.07966,20.3838 35.58934,46.36734z" fill="url(#color-7)" stroke-width="1" stroke-linecap="butt"/><path d="M354.86653,430.26062c0.84053,42.85005 -7.71659,77.76809 -19.11289,77.99164c-11.39629,0.22355 -21.31619,-34.33207 -22.15673,-77.1821c-0.84053,-42.85005 7.71659,-77.76808 19.11288,-77.99163c11.39629,-0.22355 21.31619,34.33207 22.15673,77.1821z" fill="url(#color-8)" stroke-width="1" stroke-linecap="butt"/><path d="M309.40519,427.84955c0.84053,42.85005 -7.71659,77.76809 -19.11289,77.99164c-11.39629,0.22355 -21.31619,-34.33207 -22.15673,-77.1821c-0.84053,-42.85005 7.71659,-77.76809 19.11289,-77.99164c11.39629,-0.22355 21.31619,34.33207 22.15673,77.1821z" fill="url(#color-9)" stroke-width="1" stroke-linecap="butt"/><g fill="#000000" stroke-width="1" stroke-linecap="round"><path d="M316.79528,230.4873c0,0 0.61285,0.06976 -6.44644,0.14275c-0.76165,0.00787 -1.19471,2.6951 -2.0349,3.09346c-7.05068,3.34309 -11.43095,5.40911 -14.44871,6.07162c-0.05608,0.01231 -0.51484,0.10241 -0.56819,0.11837c-0.30421,0.09103 -0.77161,-0.03971 -0.98346,-0.02911c-1.2022,0.06005 -2.46047,-8.19277 -2.46047,-8.19277c0,0 -0.1555,-3.2028 0.05434,-6.84767c0.29888,-5.19119 2.17264,-10.13567 3.91469,-10.70592c0.8347,-0.27323 2.09335,0.45585 3.91324,0.93638c0.6278,0.16576 1.41417,0.0768 2.02629,0.45606c3.24502,2.01066 2.47196,1.13072 3.45145,1.90135c0.08459,0.06654 1.5328,0.85089 1.61299,0.91975c1.80779,1.55238 3.21565,4.06323 4.91879,4.16518c4.9701,0.29752 6.89404,-0.00125 6.89404,-0.00125"/><path d="M309.87926,222.64554c0,0 1.93419,0.2231 6.8888,-0.26909c1.69782,-0.16866 3.00615,-2.7328 4.75165,-4.35487c0.07742,-0.07195 1.49376,-0.9125 1.57567,-0.9823c0.94853,-0.80845 0.21057,0.10113 3.37424,-2.03523c0.59676,-0.40298 1.38602,-0.34493 2.00684,-0.53518c1.79965,-0.55154 3.02871,-1.32942 3.87349,-1.08912c1.76306,0.50148 3.82929,5.36871 4.33153,10.54417c0.35263,3.63384 0.32284,6.84025 0.32284,6.84025c0,0 -0.93367,8.29581 -2.13727,8.28295c-0.21211,-0.00226 -0.67404,0.14671 -0.98158,0.06766c-0.05394,-0.01387 -0.51585,-0.08589 -0.57238,-0.096c-3.04141,-0.54366 -7.49933,-2.4363 -14.67569,-5.50031c-0.85516,-0.36511 -1.39332,-3.03328 -2.15467,-3.0113c-7.05672,0.2039 -6.44706,0.11016 -6.44706,0.11016" data-paper-data="{&quot;index&quot;:null}"/></g><path d="M372.90968,140.55041c2.84429,36.07068 -23.54951,67.57482 -58.9522,70.36645c-35.40271,2.79163 -66.40802,-24.18638 -69.25232,-60.25708c-2.84429,-36.07068 23.54951,-67.57481 58.9522,-70.36644c35.40271,-2.79162 66.40802,24.18637 69.25232,60.25707z" fill="url(#color-10)" stroke-width="1" stroke-linecap="butt"/><path d="M279.61574,68.29088c1.41572,17.95386 -6.27983,33.20568 -17.18851,34.06587c-10.90868,0.8602 -20.89959,-12.99698 -22.31531,-30.95084c-1.41572,-17.95386 6.27983,-33.20568 17.18851,-34.06587c10.90868,-0.86019 20.89958,12.99698 22.31531,30.95085z" fill="url(#color-11)" stroke-width="1" stroke-linecap="butt"/><path d="M368.45989,68.33721c3.04066,19.13736 -3.2552,36.04323 -14.06216,37.76031c-10.80697,1.71708 -22.03271,-12.40485 -25.07337,-31.54221c-3.04066,-19.13736 3.2552,-36.04323 14.06216,-37.76031c10.80697,-1.71708 22.03271,12.40485 25.07338,31.54222z" fill="url(#color-12)" stroke-width="1" stroke-linecap="butt"/><path d="M356.37828,23.864c1.71708,10.80698 -2.73148,20.49574 -9.93613,21.64047c-7.20466,1.14472 -14.43715,-6.68809 -16.15423,-17.49508c-1.71708,-10.80698 2.73148,-20.49574 9.93613,-21.64047c7.20466,-1.14472 14.43715,6.68809 16.15423,17.49508z" fill="url(#color-13)" stroke-width="1" stroke-linecap="butt"/><path d="M340.62666,169.89257c0.96771,12.27226 -11.51264,23.26688 -27.87567,24.55717c-16.36303,1.29028 -30.41235,-7.61238 -31.38006,-19.88464c-0.96771,-12.27226 11.51264,-23.26687 27.87567,-24.55716c16.36303,-1.29028 30.41235,7.61238 31.38006,19.88464z" fill="url(#color-14)" stroke-width="1" stroke-linecap="butt"/><path d="M324.44205,160.67933c0.39425,4.99982 -5.55009,9.5469 -13.27708,10.15619c-7.72697,0.6093 -14.31055,-2.9499 -14.7048,-7.94972c-0.39425,-4.99982 5.5501,-9.54689 13.27709,-10.15619c7.72697,-0.6093 14.31054,2.9499 14.70479,7.94972z" fill="url(#color-15)" stroke-width="1" stroke-linecap="butt"/><path d="M293.61677,138.26468c0.75267,5.13765 -5.46467,9.59232 -13.88683,9.94979c-8.42215,0.35746 -15.85979,-3.51765 -16.61246,-8.6553c-0.75267,-5.13765 5.46467,-9.59232 13.88682,-9.94979c8.42215,-0.35746 15.85979,3.51765 16.61246,8.6553z" fill="url(#color-16)" stroke-width="1" stroke-linecap="butt"/><path d="M353.06719,137.49687c0.75267,4.65559 -5.46467,8.69228 -13.8868,9.01619c-8.42215,0.32392 -15.85979,-3.18759 -16.61245,-7.84318c-0.75267,-4.65559 5.46468,-8.69227 13.88681,-9.01619c8.42215,-0.32392 15.85978,3.18759 16.61244,7.84318z" fill="url(#color-17)" stroke-width="1" stroke-linecap="butt"/><path d="M359.61839,69.32404c1.78863,11.25727 -1.91483,21.20189 -8.27186,22.21194c-6.35705,1.01004 -12.96041,-7.29697 -14.74903,-18.55424c-1.78863,-11.25727 1.91483,-21.20189 8.27186,-22.21194c6.35705,-1.01004 12.96042,7.29697 14.74904,18.55424z" fill="url(#color-18)" stroke-width="1" stroke-linecap="butt"/><path d="M340.54099,13.00582c4.10558,-0.65232 8.37027,4.71263 9.52542,11.98296c1.15515,7.27033 -1.23666,13.69289 -5.34224,14.34522c-4.10558,0.65232 -8.37027,-4.71263 -9.52542,-11.98295c-1.15515,-7.27033 1.23666,-13.6929 5.34224,-14.34522z" data-paper-data="{&quot;index&quot;:null}" fill="url(#color-19)" stroke-width="1" stroke-linecap="butt"/><path d="M257.92439,51.42742c6.41688,-0.50599 12.34515,8.29552 13.24118,19.65873c0.89603,11.36321 -3.5795,20.98511 -9.99637,21.4911c-6.41688,0.50599 -12.34515,-8.29552 -13.24117,-19.65873c-0.89603,-11.36321 3.5795,-20.98509 9.99636,-21.49109z" data-paper-data="{&quot;index&quot;:null}" fill="url(#color-20)" stroke-width="1" stroke-linecap="butt"/><path d="M281.59804,138.14172c0.13328,1.69027 -1.23253,3.17675 -3.05064,3.32012c-1.81811,0.14336 -3.40003,-1.11065 -3.53332,-2.80093c-0.13328,-1.69027 1.23254,-3.17673 3.05066,-3.32009c1.81811,-0.14336 3.40003,1.11064 3.53332,2.80094z" fill="url(#color-21)" stroke-width="0" stroke-linecap="butt"/><path d="M341.08091,136.34969c0.13328,1.69027 -1.23254,3.17674 -3.05065,3.32011c-1.81811,0.14336 -3.40003,-1.11065 -3.53332,-2.80093c-0.13328,-1.69027 1.23254,-3.17673 3.05066,-3.32009c1.81811,-0.14336 3.40003,1.11065 3.53332,2.80094z" fill="url(#color-22)" stroke-width="0" stroke-linecap="butt"/><path d="M257.85054,4.22877c7.28936,0.28746 12.84902,9.38428 12.41784,20.31832c-0.43117,10.93405 -6.6899,19.56482 -13.97927,19.27737c-7.28936,-0.28746 -12.84902,-9.38428 -12.41784,-20.31832c0.43117,-10.93405 6.68991,-19.56482 13.97928,-19.27736z" data-paper-data="{&quot;index&quot;:null}" fill="url(#color-23)" stroke-width="1" stroke-linecap="butt"/><path d="M265.31417,24.47222c-0.29007,7.3558 -3.89261,13.18607 -8.04645,13.02226c-4.15385,-0.16381 -7.28607,-6.25965 -6.99601,-13.61546c0.29007,-7.3558 3.89261,-13.18607 8.04646,-13.02226c4.15385,0.1638 7.28607,6.25965 6.99601,13.61546z" data-paper-data="{&quot;index&quot;:null}" fill="url(#color-24)" stroke-width="1" stroke-linecap="butt"/><path d="M358.26651,232.08152c7.7722,-25.01186 19.46539,-43.6123 26.11748,-41.54522c6.65209,2.06706 5.74406,24.01888 -2.02812,49.03074c-7.7722,25.01186 -19.46538,43.6123 -26.11748,41.54522c-6.65209,-2.06706 -5.74407,-24.01888 2.02811,-49.03074z" data-paper-data="{&quot;index&quot;:null}" fill="url(#color-25)" stroke-width="1" stroke-linecap="butt"/><path d="M390.21946,204.63446c-2.78132,6.3865 -24.5026,3.08606 -48.51582,-7.37172c-24.01321,-10.45778 -41.22508,-24.11277 -38.44374,-30.49927c2.78134,-6.3865 24.50262,-3.08605 48.51584,7.37173c24.01321,10.45778 41.22508,24.11276 38.44374,30.49926z" data-paper-data="{&quot;index&quot;:null}" fill="url(#color-26)" stroke-width="1" stroke-linecap="butt"/><path d="M291.04297,182.93433c-4.93715,-8.04249 -0.2943,-19.5118 10.37007,-25.61743c10.66438,-6.10562 23.3119,-4.53551 28.24907,3.50697c4.93715,8.04249 0.2943,19.5118 -10.37007,25.61743c-10.66438,6.10562 -23.3119,4.53551 -28.24907,-3.50697z" data-paper-data="{&quot;index&quot;:null}" fill="url(#color-27)" stroke-width="1" stroke-linecap="butt"/></g></g></svg>