<svg version="1.1" xmlns="http://www.w3.org/2000/svg" xmlns:xlink="http://www.w3.org/1999/xlink" width="947.00001" height="273.5" viewBox="0,0,947.00001,273.5"><defs><linearGradient x1="-153.5" y1="442.63247" x2="793.5" y2="442.63247" gradientUnits="userSpaceOnUse" id="color-1"><stop offset="0" stop-color="#484848"/><stop offset="1" stop-color="#666666"/></linearGradient><linearGradient x1="34" y1="289.88485" x2="34" y2="348.88485" gradientUnits="userSpaceOnUse" id="color-2"><stop offset="0" stop-color="#66411f"/><stop offset="1" stop-color="#352210"/></linearGradient><linearGradient x1="157.5" y1="287.88485" x2="157.5" y2="346.88485" gradientUnits="userSpaceOnUse" id="color-3"><stop offset="0" stop-color="#66411f"/><stop offset="1" stop-color="#352210"/></linearGradient><linearGradient x1="99" y1="236.88485" x2="99" y2="292.88485" gradientUnits="userSpaceOnUse" id="color-4"><stop offset="0" stop-color="#666565"/><stop offset="1" stop-color="#363636"/></linearGradient><linearGradient x1="476" y1="284.88485" x2="476" y2="343.88485" gradientUnits="userSpaceOnUse" id="color-5"><stop offset="0" stop-color="#66411f"/><stop offset="1" stop-color="#352210"/></linearGradient><linearGradient x1="599" y1="282.88485" x2="599" y2="341.88485" gradientUnits="userSpaceOnUse" id="color-6"><stop offset="0" stop-color="#66411f"/><stop offset="1" stop-color="#352210"/></linearGradient><linearGradient x1="541" y1="231.88485" x2="541" y2="287.88485" gradientUnits="userSpaceOnUse" id="color-7"><stop offset="0" stop-color="#666565"/><stop offset="1" stop-color="#363636"/></linearGradient><linearGradient x1="261" y1="291.88485" x2="261" y2="350.88485" gradientUnits="userSpaceOnUse" id="color-8"><stop offset="0" stop-color="#66411f"/><stop offset="1" stop-color="#352210"/></linearGradient><linearGradient x1="384" y1="289.88485" x2="384" y2="348.88485" gradientUnits="userSpaceOnUse" id="color-9"><stop offset="0" stop-color="#66411f"/><stop offset="1" stop-color="#352210"/></linearGradient><linearGradient x1="326" y1="238.88485" x2="326" y2="294.88485" gradientUnits="userSpaceOnUse" id="color-10"><stop offset="0" stop-color="#666565"/><stop offset="1" stop-color="#363636"/></linearGradient></defs><g transform="translate(153.5,-231.88484)"><g data-paper-data="{&quot;isPaintingLayer&quot;:true}" fill-rule="nonzero" stroke="none" stroke-width="0" stroke-linecap="butt" stroke-linejoin="miter" stroke-miterlimit="10" stroke-dasharray="" stroke-dashoffset="0" style="mix-blend-mode: normal"><path d="M-153.5,505.38485v-125.50475c0,0 7.04564,-40.86052 12.21319,-40.33741c49.20161,4.98071 308.02602,8.6709 451.34537,8.45238c2.39831,-0.00365 13.29622,1.0232 15.62914,1.0232c142.76434,0 401.6318,-17.20467 455.40621,-22.67755c6.20187,-0.6312 12.4061,53.53937 12.4061,53.53937v125.50475z" fill="url(#color-1)"/><path d="M7.5,344.88485l7.5,-55h38l5.5,57.5z" fill="url(#color-2)"/><path d="M136,347.38485l2.5,-59.5h38v59c0,0 -1.78858,3.02825 -4.00857,3.05566c-6.27236,0.07744 -36.49143,-2.55566 -36.49143,-2.55566z" fill="url(#color-3)"/><path d="M-1,292.88485v-56h200v56z" fill="url(#color-4)"/><path d="M457.5,348.38485l-0.5,-63.5h38l1,59z" fill="url(#color-5)"/><path d="M575.5,336.38485l4.5,-53.5h38l2.5,48z" fill="url(#color-6)"/><path d="M441,287.88485v-56h200v56z" fill="url(#color-7)"/><path d="M242,350.88485v-59h38v59z" fill="url(#color-8)"/><path d="M364,350.38485l1,-60.5h38l1.5,60z" fill="url(#color-9)"/><path d="M226,294.88485v-56h200v56z" fill="url(#color-10)"/></g></g></svg>