<svg version="1.1" xmlns="http://www.w3.org/2000/svg" xmlns:xlink="http://www.w3.org/1999/xlink" width="130.60932" height="328.5" viewBox="0,0,130.60932,328.5"><defs><linearGradient x1="264.69404" y1="172.56062" x2="286.15037" y2="205.47146" gradientUnits="userSpaceOnUse" id="color-1"><stop offset="0" stop-color="#0a00ff"/><stop offset="1" stop-color="#0034ff"/></linearGradient><linearGradient x1="253.7258" y1="214.33019" x2="275.18212" y2="247.24104" gradientUnits="userSpaceOnUse" id="color-2"><stop offset="0" stop-color="#0a00ff"/><stop offset="1" stop-color="#0034ff"/></linearGradient><linearGradient x1="365.28382" y1="175.66253" x2="339.56359" y2="205.36045" gradientUnits="userSpaceOnUse" id="color-3"><stop offset="0" stop-color="#0a00ff"/><stop offset="1" stop-color="#0034ff"/></linearGradient><linearGradient x1="312" y1="154.2042" x2="312" y2="245.7958" gradientUnits="userSpaceOnUse" id="color-4"><stop offset="0" stop-color="#0a00ff"/><stop offset="1" stop-color="#0034ff"/></linearGradient><linearGradient x1="287.5" y1="330.5" x2="287.5" y2="357.5" gradientUnits="userSpaceOnUse" id="color-5"><stop offset="0" stop-color="#0a00ff"/><stop offset="1" stop-color="#0034ff"/></linearGradient><linearGradient x1="326.5" y1="331.5" x2="326.5" y2="358.5" gradientUnits="userSpaceOnUse" id="color-6"><stop offset="0" stop-color="#0a00ff"/><stop offset="1" stop-color="#0034ff"/></linearGradient><linearGradient x1="312.44444" y1="78.6415" x2="312.44444" y2="158" gradientUnits="userSpaceOnUse" id="color-7"><stop offset="0" stop-color="#0a00ff"/><stop offset="1" stop-color="#0034ff"/></linearGradient><linearGradient x1="286.5" y1="50.5" x2="286.5" y2="90" gradientUnits="userSpaceOnUse" id="color-8"><stop offset="0" stop-color="#0a00ff"/><stop offset="1" stop-color="#0034ff"/></linearGradient><linearGradient x1="342.5" y1="52.5" x2="342.5" y2="95" gradientUnits="userSpaceOnUse" id="color-9"><stop offset="0" stop-color="#0a00ff"/><stop offset="1" stop-color="#0034ff"/></linearGradient><linearGradient x1="343.5" y1="34" x2="343.5" y2="58" gradientUnits="userSpaceOnUse" id="color-10"><stop offset="0" stop-color="#0a00ff"/><stop offset="1" stop-color="#0034ff"/></linearGradient><linearGradient x1="286.5" y1="31" x2="286.5" y2="55" gradientUnits="userSpaceOnUse" id="color-11"><stop offset="0" stop-color="#0a00ff"/><stop offset="1" stop-color="#0034ff"/></linearGradient><linearGradient x1="370.4877" y1="218.53349" x2="344.76747" y2="248.23142" gradientUnits="userSpaceOnUse" id="color-12"><stop offset="0" stop-color="#0a00ff"/><stop offset="1" stop-color="#0034ff"/></linearGradient><linearGradient x1="368.68453" y1="252.02669" x2="352.42599" y2="270.79966" gradientUnits="userSpaceOnUse" id="color-13"><stop offset="0" stop-color="#0a00ff"/><stop offset="1" stop-color="#0034ff"/></linearGradient><linearGradient x1="250.77318" y1="247.88782" x2="264.61297" y2="269.11603" gradientUnits="userSpaceOnUse" id="color-14"><stop offset="0" stop-color="#0a00ff"/><stop offset="1" stop-color="#0034ff"/></linearGradient><linearGradient x1="312.5" y1="121" x2="312.5" y2="148" gradientUnits="userSpaceOnUse" id="color-15"><stop offset="0" stop-color="#00ffb5"/><stop offset="1" stop-color="#00c7aa"/></linearGradient><linearGradient x1="312" y1="171.5" x2="312" y2="228.5" gradientUnits="userSpaceOnUse" id="color-16"><stop offset="0" stop-color="#00ffb5"/><stop offset="1" stop-color="#00c7aa"/></linearGradient><linearGradient x1="312.66667" y1="122.66667" x2="312.66667" y2="133.66667" gradientUnits="userSpaceOnUse" id="color-17"><stop offset="0" stop-color="#000000"/><stop offset="1" stop-color="#101010"/></linearGradient><linearGradient x1="294.76471" y1="97.5" x2="294.76471" y2="118.5" gradientUnits="userSpaceOnUse" id="color-18"><stop offset="0" stop-color="#000000"/><stop offset="1" stop-color="#101010"/></linearGradient><linearGradient x1="330.76471" y1="99" x2="330.76471" y2="120" gradientUnits="userSpaceOnUse" id="color-19"><stop offset="0" stop-color="#000000"/><stop offset="1" stop-color="#101010"/></linearGradient><linearGradient x1="322.5" y1="241.5" x2="322.5" y2="335.5" gradientUnits="userSpaceOnUse" id="color-20"><stop offset="0" stop-color="#0a00ff"/><stop offset="1" stop-color="#0034ff"/></linearGradient><linearGradient x1="295" y1="239.5" x2="295" y2="333.5" gradientUnits="userSpaceOnUse" id="color-21"><stop offset="0" stop-color="#0a00ff"/><stop offset="1" stop-color="#0034ff"/></linearGradient><linearGradient x1="342.05882" y1="61" x2="342.05882" y2="86" gradientUnits="userSpaceOnUse" id="color-22"><stop offset="0" stop-color="#00ffb5"/><stop offset="1" stop-color="#00c7aa"/></linearGradient><linearGradient x1="343.05882" y1="38" x2="343.05882" y2="54.14583" gradientUnits="userSpaceOnUse" id="color-23"><stop offset="0" stop-color="#00ffb5"/><stop offset="1" stop-color="#00c7aa"/></linearGradient><linearGradient x1="286.05882" y1="59" x2="286.05882" y2="84" gradientUnits="userSpaceOnUse" id="color-24"><stop offset="0" stop-color="#00ffb5"/><stop offset="1" stop-color="#00c7aa"/></linearGradient><linearGradient x1="287.05882" y1="35" x2="287.05882" y2="51.14583" gradientUnits="userSpaceOnUse" id="color-25"><stop offset="0" stop-color="#00ffb5"/><stop offset="1" stop-color="#00c7aa"/></linearGradient><linearGradient x1="294.77205" y1="102.75" x2="294.77205" y2="113" gradientUnits="userSpaceOnUse" id="color-26"><stop offset="0" stop-color="#000000"/><stop offset="1" stop-color="#101010"/></linearGradient><linearGradient x1="330.52205" y1="104.25" x2="330.52205" y2="114.5" gradientUnits="userSpaceOnUse" id="color-27"><stop offset="0" stop-color="#000000"/><stop offset="1" stop-color="#101010"/></linearGradient><linearGradient x1="294.625" y1="105.51564" x2="294.625" y2="109.23438" gradientUnits="userSpaceOnUse" id="color-28"><stop offset="0" stop-color="#000000"/><stop offset="1" stop-color="#101010"/></linearGradient><linearGradient x1="330.625" y1="107.26564" x2="330.625" y2="110.98438" gradientUnits="userSpaceOnUse" id="color-29"><stop offset="0" stop-color="#000000"/><stop offset="1" stop-color="#101010"/></linearGradient></defs><g transform="translate(-243.74938,-30.5)"><g data-paper-data="{&quot;isPaintingLayer&quot;:true}" fill-rule="nonzero" stroke-linejoin="miter" stroke-miterlimit="10" stroke-dasharray="" stroke-dashoffset="0" style="mix-blend-mode: normal"><path d="M282.76168,191.13421c-4.39858,15.24109 -11.25032,26.64808 -15.3038,25.47824c-4.05348,-1.16984 -3.77372,-14.47352 0.62485,-29.7146c4.39858,-15.24108 11.25033,-26.64807 15.3038,-25.47824c4.05348,1.16984 3.77372,14.47351 -0.62486,29.71459z" data-paper-data="{&quot;index&quot;:null}" fill="url(#color-1)" stroke="#000000" stroke-width="1" stroke-linecap="butt"/><path d="M271.79344,232.90379c-4.39858,15.24108 -11.25032,26.64808 -15.3038,25.47824c-4.05348,-1.16984 -3.77372,-14.47352 0.62485,-29.7146c4.39858,-15.24108 11.25033,-26.64807 15.3038,-25.47824c4.05348,1.16984 3.77372,14.47351 -0.62486,29.71459z" data-paper-data="{&quot;index&quot;:null}" fill="url(#color-2)" stroke="#000000" stroke-width="1" stroke-linecap="butt"/><path d="M348.27441,162.09008c4.17466,-0.60947 9.41659,11.62116 11.70819,27.31787c2.29159,15.69671 0.76507,28.91548 -3.40959,29.52494c-4.17466,0.60947 -9.41659,-11.62116 -11.70819,-27.31787c-2.29159,-15.69671 -0.76507,-28.91548 3.40959,-29.52494z" data-paper-data="{&quot;index&quot;:null}" fill="url(#color-3)" stroke="#000000" stroke-width="1" stroke-linecap="butt"/><path d="M350.28828,200c0,25.29232 -17.14225,45.7958 -38.28829,45.7958c-21.14604,0 -38.28829,-20.50348 -38.28829,-45.7958c0,-25.29232 17.14225,-45.7958 38.28829,-45.7958c21.14604,0 38.28829,20.50348 38.28829,45.7958z" fill="url(#color-4)" stroke="#000000" stroke-width="1" stroke-linecap="butt"/><path d="M305,344c0,7.45584 -7.83502,13.5 -17.5,13.5c-9.66498,0 -17.5,-6.04416 -17.5,-13.5c0,-7.45584 7.83502,-13.5 17.5,-13.5c9.66498,0 17.5,6.04416 17.5,13.5z" fill="url(#color-5)" stroke="#000000" stroke-width="1" stroke-linecap="butt"/><path d="M326.5,331.5c9.66499,0 17.5,6.04415 17.5,13.5c0,7.45585 -7.83501,13.5 -17.5,13.5c-9.66499,0 -17.5,-6.04415 -17.5,-13.5c0,-7.45585 7.83501,-13.5 17.5,-13.5z" data-paper-data="{&quot;index&quot;:null}" fill="url(#color-6)" stroke="#000000" stroke-width="1" stroke-linecap="butt"/><path d="M351.38889,118.32075c0,21.91424 -17.43602,39.67925 -38.94444,39.67925c-21.50842,0 -38.94444,-17.765 -38.94444,-39.67925c0,-21.91424 17.43602,-39.67925 38.94444,-39.67925c21.50842,0 38.94444,17.765 38.94444,39.67925z" fill="url(#color-7)" stroke="#000000" stroke-width="1" stroke-linecap="butt"/><path d="M298.5,70.25c0,10.90762 -5.37258,19.75 -12,19.75c-6.62742,0 -12,-8.84238 -12,-19.75c0,-10.90762 5.37258,-19.75 12,-19.75c6.62742,0 12,8.84238 12,19.75z" fill="url(#color-8)" stroke="#000000" stroke-width="1" stroke-linecap="butt"/><path d="M354.5,73.75c0,11.73605 -5.37259,21.25 -12,21.25c-6.62741,0 -12,-9.51395 -12,-21.25c0,-11.73605 5.37259,-21.25 12,-21.25c6.62741,0 12,9.51395 12,21.25z" fill="url(#color-9)" stroke="#000000" stroke-width="1" stroke-linecap="butt"/><path d="M351.5,46c0,6.62742 -3.58172,12 -8,12c-4.41828,0 -8,-5.37258 -8,-12c0,-6.62742 3.58172,-12 8,-12c4.41828,0 8,5.37258 8,12z" fill="url(#color-10)" stroke="#000000" stroke-width="1" stroke-linecap="butt"/><path d="M294.5,43c0,6.62741 -3.58172,12 -8,12c-4.41828,0 -8,-5.37259 -8,-12c0,-6.62741 3.58172,-12 8,-12c4.41828,0 8,5.37259 8,12z" fill="url(#color-11)" stroke="#000000" stroke-width="1" stroke-linecap="butt"/><path d="M353.47829,204.96105c4.17466,-0.60947 9.41659,11.62116 11.70818,27.31786c2.29159,15.69671 0.76507,28.91548 -3.40959,29.52495c-4.17466,0.60947 -9.41659,-11.62116 -11.70818,-27.31786c-2.29159,-15.69671 -0.76507,-28.91548 3.40959,-29.52494z" data-paper-data="{&quot;index&quot;:null}" fill="url(#color-12)" stroke="#000000" stroke-width="1" stroke-linecap="butt"/><path d="M359.21741,251.15106c7.34728,-1.18743 13.90241,2.44447 14.64129,8.11209c0.73887,5.66762 -4.6183,11.22472 -11.96558,12.41216c-7.34728,1.18743 -13.90241,-2.44447 -14.64129,-8.11209c-0.73887,-5.66762 4.6183,-11.22472 11.96558,-12.41216z" data-paper-data="{&quot;index&quot;:null}" fill="url(#color-13)" stroke="#000000" stroke-width="1" stroke-linecap="butt"/><path d="M270.84502,262.516c-1.53107,5.62758 -8.66056,8.39247 -15.92419,6.17556c-7.26362,-2.21692 -11.91078,-8.57613 -10.37972,-14.2037c1.53107,-5.62758 8.66056,-8.39247 15.92419,-6.17556c7.26362,2.21692 11.91078,8.57613 10.37972,14.2037z" data-paper-data="{&quot;index&quot;:null}" fill="url(#color-14)" stroke="#000000" stroke-width="1" stroke-linecap="butt"/><path d="M330.5,134.5c0,7.45584 -8.05887,13.5 -18,13.5c-9.94113,0 -18,-6.04416 -18,-13.5c0,-7.45584 8.05887,-13.5 18,-13.5c9.94113,0 18,6.04416 18,13.5z" fill="url(#color-15)" stroke="#000000" stroke-width="1" stroke-linecap="butt"/><path d="M333,200c0,15.74012 -9.40202,28.5 -21,28.5c-11.59798,0 -21,-12.75988 -21,-28.5c0,-15.74012 9.40202,-28.5 21,-28.5c11.59798,0 21,12.75988 21,28.5z" fill="url(#color-16)" stroke="#000000" stroke-width="1" stroke-linecap="butt"/><path d="M321.16667,128.16667c0,3.03757 -3.80558,5.5 -8.5,5.5c-4.69442,0 -8.5,-2.46243 -8.5,-5.5c0,-3.03757 3.80558,-5.5 8.5,-5.5c4.69442,0 8.5,2.46243 8.5,5.5z" fill="url(#color-17)" stroke="#000000" stroke-width="1" stroke-linecap="butt"/><path d="M304.02941,108c0,5.79899 -4.14795,10.5 -9.26471,10.5c-5.11676,0 -9.26471,-4.70101 -9.26471,-10.5c0,-5.79899 4.14795,-10.5 9.26471,-10.5c5.11676,0 9.26471,4.70101 9.26471,10.5z" fill="url(#color-18)" stroke="#000000" stroke-width="1" stroke-linecap="butt"/><path d="M340.02941,109.5c0,5.79899 -4.14795,10.5 -9.2647,10.5c-5.11676,0 -9.2647,-4.70101 -9.2647,-10.5c0,-5.79899 4.14795,-10.5 9.2647,-10.5c5.11676,0 9.2647,4.70101 9.2647,10.5z" fill="url(#color-19)" stroke="#000000" stroke-width="1" stroke-linecap="butt"/><path d="M335,288.5c0,25.95738 -5.59644,47 -12.5,47c-6.90356,0 -12.5,-21.04262 -12.5,-47c0,-25.95738 5.59644,-47 12.5,-47c6.90356,0 12.5,21.04262 12.5,47z" fill="url(#color-20)" stroke="#000000" stroke-width="1" stroke-linecap="butt"/><path d="M307.5,286.5c0,25.95738 -5.59644,47 -12.5,47c-6.90356,0 -12.5,-21.04262 -12.5,-47c0,-25.95738 5.59644,-47 12.5,-47c6.90356,0 12.5,21.04262 12.5,47z" fill="url(#color-21)" stroke="#000000" stroke-width="1" stroke-linecap="butt"/><path d="M349.11764,73.5c0,6.90356 -3.16035,12.5 -7.05882,12.5c-3.89848,0 -7.05882,-5.59644 -7.05882,-12.5c0,-6.90356 3.16035,-12.5 7.05882,-12.5c3.89848,0 7.05882,5.59644 7.05882,12.5z" fill="url(#color-22)" stroke="#000000" stroke-width="1" stroke-linecap="butt"/><path d="M343.05882,38c2.51776,0 4.55882,3.61437 4.55882,8.07292c0,4.45855 -2.04106,8.07292 -4.55882,8.07292c-2.51776,0 -4.55882,-3.61437 -4.55882,-8.07292c0,-4.45855 2.04106,-8.07292 4.55882,-8.07292z" data-paper-data="{&quot;index&quot;:null}" fill="url(#color-23)" stroke="#000000" stroke-width="1" stroke-linecap="butt"/><path d="M286.05882,59c3.89848,0 7.05883,5.59644 7.05883,12.5c0,6.90356 -3.16035,12.5 -7.05883,12.5c-3.89848,0 -7.05882,-5.59644 -7.05882,-12.5c0,-6.90356 3.16034,-12.5 7.05882,-12.5z" data-paper-data="{&quot;index&quot;:null}" fill="url(#color-24)" stroke="#000000" stroke-width="1" stroke-linecap="butt"/><path d="M291.61764,43.07292c0,4.45855 -2.04105,8.07291 -4.55882,8.07291c-2.51776,0 -4.55883,-3.61436 -4.55883,-8.07291c0,-4.45855 2.04106,-8.07291 4.55883,-8.07291c2.51776,0 4.55882,3.61436 4.55882,8.07291z" data-paper-data="{&quot;index&quot;:null}" fill="url(#color-25)" stroke="#000000" stroke-width="1" stroke-linecap="butt"/><path d="M299.29411,107.875c0,2.83046 -2.02459,5.125 -4.52206,5.125c-2.49747,0 -4.52206,-2.29454 -4.52206,-5.125c0,-2.83046 2.02459,-5.125 4.52206,-5.125c2.49747,0 4.52206,2.29454 4.52206,5.125z" fill="url(#color-26)" stroke="none" stroke-width="0" stroke-linecap="butt"/><path d="M335.04411,109.375c0,2.83046 -2.0246,5.125 -4.52206,5.125c-2.49746,0 -4.52206,-2.29454 -4.52206,-5.125c0,-2.83046 2.0246,-5.125 4.52206,-5.125c2.49746,0 4.52206,2.29454 4.52206,5.125z" fill="url(#color-27)" stroke="#000000" stroke-width="0" stroke-linecap="butt"/><path d="M296.625,107.375c0,1.0269 -0.89543,1.85938 -2,1.85938c-1.10457,0 -2,-0.83247 -2,-1.85937c0,-1.0269 0.89543,-1.85937 2,-1.85937c1.10457,0 2,0.83247 2,1.85938z" fill="url(#color-28)" stroke="#000000" stroke-width="0" stroke-linecap="butt"/><path d="M332.625,109.125c0,1.0269 -0.89543,1.85938 -2,1.85938c-1.10457,0 -2,-0.83247 -2,-1.85937c0,-1.0269 0.89543,-1.85937 2,-1.85937c1.10457,0 2,0.83247 2,1.85938z" fill="url(#color-29)" stroke="#000000" stroke-width="0" stroke-linecap="butt"/><g fill="#000000" stroke="#000000" stroke-width="1" stroke-linecap="round"><path d="M314.31928,167.07713c0,0 0.37028,0.04952 -3.90527,0.00987c-0.4613,-0.00428 -0.75546,1.6178 -1.26896,1.84904c-4.30918,1.94062 -6.98615,3.13965 -8.82139,3.50498c-0.03411,0.00679 -0.31297,0.0559 -0.34547,0.06493c-0.18529,0.05151 -0.46677,-0.03321 -0.59518,-0.02931c-0.72869,0.02208 -1.3926,-4.99027 -1.3926,-4.99027c0,0 -0.05612,-1.94127 0.11424,-4.14589c0.24265,-3.13992 1.43602,-6.11174 2.49767,-6.43636c0.50869,-0.15554 1.26219,0.3009 2.3585,0.6135c0.37819,0.10783 0.85542,0.0633 1.22158,0.30023c1.9411,1.25608 1.48344,0.71406 2.06741,1.19234c0.05043,0.0413 0.91806,0.53346 0.9658,0.57611c1.07625,0.9615 1.89894,2.49864 2.92905,2.5806c3.00606,0.23919 4.17463,0.08113 4.17463,0.08113"/><path d="M310.2245,162.24648c0,0 1.16858,0.15807 4.17464,-0.08112c1.0301,-0.08196 1.8528,-1.61911 2.92904,-2.58061c0.04774,-0.04265 0.91537,-0.53481 0.9658,-0.57611c0.58397,-0.47828 0.12631,0.06374 2.06741,-1.19234c0.36615,-0.23693 0.84339,-0.1924 1.22158,-0.30023c1.09631,-0.3126 1.8498,-0.76904 2.35849,-0.6135c1.06164,0.32461 2.25502,3.29645 2.49767,6.43636c0.17037,2.20462 0.11424,4.14588 0.11424,4.14588c0,0 -0.66391,5.01235 -1.39259,4.99027c-0.12841,-0.00389 -0.4099,0.08083 -0.59519,0.02931c-0.0325,-0.00904 -0.31135,-0.05814 -0.34546,-0.06493c-1.83524,-0.36533 -4.5122,-1.56436 -8.82138,-3.50498c-0.5135,-0.23125 -0.80768,-1.85332 -1.26897,-1.84905c-4.27555,0.03965 -3.90526,-0.00987 -3.90526,-0.00987" data-paper-data="{&quot;index&quot;:null}"/></g></g></g></svg>