<svg version="1.1" xmlns="http://www.w3.org/2000/svg" xmlns:xlink="http://www.w3.org/1999/xlink" width="20.504" height="124.4371" viewBox="0,0,20.504,124.4371"><defs><linearGradient x1="75.39217" y1="204.24998" x2="75.39217" y2="210.32286" gradientUnits="userSpaceOnUse" id="color-1"><stop offset="0" stop-color="#000000"/><stop offset="1" stop-color="#101010"/></linearGradient></defs><g transform="translate(-69.49769,-203.99998)"><g data-paper-data="{&quot;isPaintingLayer&quot;:true}" fill-rule="nonzero" stroke-width="0.5" stroke-linecap="butt" stroke-linejoin="miter" stroke-miterlimit="10" stroke-dasharray="" stroke-dashoffset="0" style="mix-blend-mode: normal"><path d="M80.08485,207.28642c0,1.67698 -2.10098,3.03644 -4.69268,3.03644c-2.5917,0 -4.69268,-1.35946 -4.69268,-3.03644c0,-1.67698 2.10098,-3.03644 4.69268,-3.03644c2.5917,0 4.69268,1.35946 4.69268,3.03644z" fill="url(#color-1)" stroke="#000000"/><path d="M89.87506,328.39772c-0.21604,0.12581 -0.34185,-0.09023 -0.34185,-0.09023c-0.58709,-1.00818 -1.35518,-2.32716 -1.94227,-3.33534c-1.82545,-3.13472 -3.8433,-5.59057 -6.30155,-8.25406c-2.3738,-2.57198 -4.7476,-5.14396 -7.12139,-7.71594c-2.1071,-2.28302 -3.25783,-4.93961 -4.64235,-7.70866c0,0 -0.1118,-0.22361 0.1118,-0.33541c0.22361,-0.1118 0.33541,0.1118 0.33541,0.1118c1.36309,2.72618 2.48957,5.34709 4.56256,7.59315c2.3738,2.57198 4.7476,5.14396 7.12139,7.71594c2.48068,2.68779 4.52369,5.17753 6.3662,8.34156c0.58709,1.00818 1.17419,2.01636 1.76128,3.02455l0.18099,0.3108c0,0 0.12581,0.21604 -0.09023,0.34185z" fill-opacity="0.68627" fill="#000000" stroke="none"/></g></g></svg>