<svg version="1.1" xmlns="http://www.w3.org/2000/svg" xmlns:xlink="http://www.w3.org/1999/xlink" width="170.05342" height="197.39999" viewBox="0,0,170.05342,197.39999"><g transform="translate(-225.33334,-83.33334)"><g data-paper-data="{&quot;isPaintingLayer&quot;:true}" fill-rule="nonzero" stroke-width="1" stroke-linecap="butt" stroke-linejoin="miter" stroke-miterlimit="10" stroke-dasharray="" stroke-dashoffset="0" style="mix-blend-mode: normal"><path d="M294.63334,273.83332v-7.6h5.4v7.6z" fill="#000000" stroke="#ffffff"/><path d="M294.43334,280.23333v-6.2h75.6v6.2z" fill="#000000" stroke="#ffffff"/><path d="M362.93297,274.43332v-89.83166h6.90038v89.83166z" fill="#000000" stroke="#ffffff"/><path d="M332.16668,225.16741v-14.00075h6.66667v14.00075z" fill="#000000" stroke="#ffffff"/><path d="M331.50001,274.16666v-32.64209h5.66667v32.64209z" fill="#000000" stroke="#ffffff"/><path d="M327.20758,241.7243v-15.96286h15.96745v15.96286z" fill="#000000" stroke="#ffffff"/><path d="M249.50002,210.50001v-104h103v104z" fill="none" stroke-opacity="0.20392" stroke="#ffffff"/><path d="M267.25001,219.50001v-8.5h10.14273v8.5z" fill="none" stroke-opacity="0.20392" stroke="#ffffff"/><path d="M264.75001,245.70001v-25.7h15.5v25.7z" fill="none" stroke-opacity="0.20392" stroke="#ffffff"/><path d="M230.75002,249.50001v-16h26v16z" fill="none" stroke-opacity="0.20392" stroke="#ffffff"/><path d="M256.89275,245.00001v-6.5h7.35727v6.5z" fill="none" stroke-opacity="0.20392" stroke="#ffffff"/><path d="M288.75001,265.50001v-30h16v30z" fill="none" stroke-opacity="0.20392" stroke="#ffffff"/><path d="M280.41903,234.83334v-5.6h14.21432v5.6z" fill="none" stroke-opacity="0.20392" stroke="#ffffff"/><path d="M319.16669,106.61903v-7.78568h8.33333v7.78568z" fill="none" stroke-opacity="0.20392" stroke="#ffffff"/><path d="M318.83334,98.83334v-15h41.33333v15z" fill="none" stroke-opacity="0.20392" stroke="#ffffff"/><path d="M225.83335,201.83333v-16.66667h23.33333v16.66667z" fill="none" stroke-opacity="0.20392" stroke="#ffffff"/><path d="M269.16669,106.83334v-12.33333h35.33333v12.33333z" fill="none" stroke-opacity="0.20392" stroke="#ffffff"/><path d="M317.45466,210.70416v-30.75769h35.25881v30.75769z" fill="none" stroke-opacity="0.20392" stroke="#ffffff"/><path d="M362.45825,184.20169v-57.70167h15.87022v57.70167z" fill="none" stroke-opacity="0.2" stroke="#ffffff"/><path d="M352.50001,144.5v-3.33333h10v3.33333z" fill="none" stroke-opacity="0.2" stroke="#ffffff"/><path d="M378.74532,151.33313v-10h15.64209v10z" fill="none" stroke-opacity="0.2" stroke="#ffffff"/><path d="M365.19881,126.30806v-4.82268h5.62641v4.82268z" fill="none" stroke-opacity="0.2" stroke="#ffffff"/><path d="M364.25633,121.06302v-8.57265h20.78868v8.57265z" fill="none" stroke-opacity="0.2" stroke="#ffffff"/><path d="M379.24468,177.12181v-10h15.64209v10z" fill="none" stroke-opacity="0.2" stroke="#ffffff"/></g></g></svg>