<svg version="1.1" xmlns="http://www.w3.org/2000/svg" xmlns:xlink="http://www.w3.org/1999/xlink" width="740.15618" height="373.87388" viewBox="0,0,740.15618,373.87388"><defs><linearGradient x1="343.994" y1="0.03717" x2="343.994" y2="363.40053" gradientUnits="userSpaceOnUse" id="color-1"><stop offset="0" stop-color="#484848"/><stop offset="1" stop-color="#666666"/></linearGradient><linearGradient x1="231.93598" y1="-4.46734" x2="231.93598" y2="369.40653" gradientUnits="userSpaceOnUse" id="color-2"><stop offset="0" stop-color="#212121"/><stop offset="1" stop-color="#232323"/></linearGradient><linearGradient x1="224.43804" y1="189.36695" x2="289.82022" y2="314.29161" gradientUnits="userSpaceOnUse" id="color-3"><stop offset="0" stop-color="#212121"/><stop offset="1" stop-color="#131313"/></linearGradient><linearGradient x1="226.03623" y1="203.20335" x2="250.14881" y2="249.27485" gradientUnits="userSpaceOnUse" id="color-4"><stop offset="0" stop-color="#5a5a5a"/><stop offset="1" stop-color="#878787"/></linearGradient><linearGradient x1="259.42288" y1="266.99466" x2="283.53546" y2="313.06616" gradientUnits="userSpaceOnUse" id="color-5"><stop offset="0" stop-color="#5a5a5a"/><stop offset="1" stop-color="#878787"/></linearGradient><linearGradient x1="390.0987" y1="74.24683" x2="455.48089" y2="199.17148" gradientUnits="userSpaceOnUse" id="color-6"><stop offset="0" stop-color="#212121"/><stop offset="1" stop-color="#131313"/></linearGradient><linearGradient x1="391.69689" y1="88.08322" x2="415.80947" y2="134.15473" gradientUnits="userSpaceOnUse" id="color-7"><stop offset="0" stop-color="#5a5a5a"/><stop offset="1" stop-color="#878787"/></linearGradient><linearGradient x1="425.08354" y1="151.87454" x2="449.19612" y2="197.94604" gradientUnits="userSpaceOnUse" id="color-8"><stop offset="0" stop-color="#5a5a5a"/><stop offset="1" stop-color="#878787"/></linearGradient></defs><g transform="translate(46.0886,4.46735)"><g data-paper-data="{&quot;isPaintingLayer&quot;:true}" fill-rule="nonzero" stroke="none" stroke-width="0" stroke-linecap="butt" stroke-linejoin="miter" stroke-miterlimit="10" stroke-dasharray="" stroke-dashoffset="0" style="mix-blend-mode: normal"><path d="M-6.07957,363.40053v-363.36336h700.14715v363.36336z" fill="url(#color-1)"/><path d="M-36.12951,369.40653l-9.95909,-373.87388l556.04915,4.69297l-358.52722,369.18089z" fill="url(#color-2)"/><path d="M252.83228,352.73472l-78.8957,-136.93667l101.00291,-52.86219l65.38219,124.92466z" fill="url(#color-3)"/><path d="M262.01426,213.7191c6.6585,12.72229 1.34616,28.64114 -11.86545,35.55575c-13.21162,6.9146 -29.31953,2.20653 -35.97803,-10.51576c-6.6585,-12.72229 -1.34616,-28.64114 11.86545,-35.55575c13.21162,-6.9146 29.31953,-2.20653 35.97803,10.51576z" fill="url(#color-4)"/><path d="M295.40091,277.51042c6.6585,12.72229 1.34616,28.64114 -11.86545,35.55575c-13.21162,6.9146 -29.31953,2.20653 -35.97803,-10.51576c-6.6585,-12.72229 -1.34616,-28.64114 11.86545,-35.55575c13.21162,-6.9146 29.31953,-2.20653 35.97803,10.51576z" fill="url(#color-5)"/><path d="M418.49294,240.6176l-78.8957,-139.93967l85.98789,-49.85919l65.38219,118.91865z" fill="url(#color-6)"/><path d="M427.67492,98.59898c6.6585,12.72229 1.34617,28.64114 -11.86545,35.55574c-13.21162,6.9146 -29.31953,2.20653 -35.97804,-10.51576c-6.6585,-12.72229 -1.34616,-28.64114 11.86545,-35.55574c13.21161,-6.9146 29.31953,-2.20653 35.97803,10.51576z" fill="url(#color-7)"/><path d="M461.06157,162.39029c6.6585,12.72229 1.34616,28.64115 -11.86545,35.55575c-13.21161,6.9146 -29.31953,2.20653 -35.97803,-10.51576c-6.6585,-12.72229 -1.34617,-28.64114 11.86545,-35.55574c13.21161,-6.9146 29.31953,-2.20653 35.97804,10.51576z" fill="url(#color-8)"/></g></g></svg>