<svg version="1.1" xmlns="http://www.w3.org/2000/svg" xmlns:xlink="http://www.w3.org/1999/xlink" width="153.88745" height="219.6694" viewBox="0,0,153.88745,219.6694"><g transform="translate(-243.59916,-76.6183)"><g data-paper-data="{&quot;isPaintingLayer&quot;:true}" fill-rule="nonzero" stroke="#000000" stroke-width="1.5" stroke-linejoin="miter" stroke-miterlimit="10" stroke-dasharray="" stroke-dashoffset="0" style="mix-blend-mode: normal"><path d="M328.125,144.75l1,82.25c0,0 -1.43292,15.12443 5.74604,27.89279c2.42739,4.3173 12.08898,6.35114 14.19659,10.75433c4.87849,10.19211 8.37826,18.18431 6.42509,22.67112c-1.1691,2.68566 -11.09307,7.9659 -38.89739,7.13096c-24.14947,-0.72518 -34.22034,-7.9492 -34.22034,-7.9492c0,0 2.13793,-9.14831 6.0418,-14.47856c1.54096,-2.10398 2.88054,-5.03836 4.84405,-8.40005c0.99556,-1.70447 9.91298,-3.6009 10.58019,-5.64044c1.79107,-5.47497 4.27605,-10.29065 5.48355,-14.37643c3.01541,-10.20315 2.3004,-16.10453 2.3004,-16.10453l1.5,-83z" fill="#333333" stroke-linecap="round"/><path d="M315.18769,174.63579c7.24709,1.23503 16.68731,-1.13579 16.68731,-1.13579c0,0 20.40598,30.69478 8.44796,45.46474c-8.68125,10.72266 -44.69796,8.03526 -44.69796,8.03526c0,0 -21.19655,0.71043 -28.19731,-31.99484c-2.10978,-9.85618 33.94731,-26.75516 33.94731,-26.75516c0,0 6.10164,5.07169 13.81269,6.38579z" fill="#000000" stroke-linecap="round"/><path d="M337.59244,168.76407c0,0 5.18862,-6.00252 6.65143,-13.68675c1.3748,-7.22188 -0.81321,-16.70614 -0.81321,-16.70614c0,0 31.08325,-19.80921 45.61945,-7.56809c10.55295,8.88677 7.17028,44.84484 7.17028,44.84484c0,0 0.30081,21.20632 -32.53359,27.57397c-9.89509,1.91898 -26.09436,-34.45784 -26.09436,-34.45784z" fill="#000000" stroke-linecap="round"/><path d="M339.47918,136.42226c0,0 -6.0961,-5.07836 -13.80571,-6.40088c-7.24574,-1.24295 -16.68854,1.11755 -16.68854,1.11755c0,0 -20.37243,-30.71705 -8.39827,-45.47394c8.69296,-10.71316 44.70671,-7.98641 44.70671,-7.98641c0,0 21.19732,-0.68726 28.16233,32.02564c2.099,9.85848 -33.97654,26.71804 -33.97654,26.71804z" fill="#000000" stroke-linecap="round"/><path d="M303.59319,134.58704c0,0 -5.28016,5.92216 -6.86078,13.58302c-1.48551,7.19992 0.55662,16.71665 0.55662,16.71665c0,0 -31.38372,19.32965 -45.73027,6.8668c-10.41526,-9.04775 -6.48093,-44.94964 -6.48093,-44.94964c0,0 0.02481,-21.20845 32.95311,-27.07124c9.92339,-1.76683 25.56226,34.85441 25.56226,34.85441z" fill="#000000" stroke-linecap="round"/><path d="M344.625,151.64344c0,12.6437 -10.96902,22.89344 -24.5,22.89344c-13.53098,0 -24.5,-10.24974 -24.5,-22.89344c0,-12.6437 10.96902,-22.89344 24.5,-22.89344c13.53098,0 24.5,10.24974 24.5,22.89344z" fill="#333333" stroke-linecap="butt"/></g></g></svg>