<svg version="1.1" xmlns="http://www.w3.org/2000/svg" xmlns:xlink="http://www.w3.org/1999/xlink" width="661.23853" height="383.06975" viewBox="0,0,661.23853,383.06975"><defs><linearGradient x1="320.00001" y1="-1.68167" x2="320.00001" y2="361.6817" gradientUnits="userSpaceOnUse" id="color-1"><stop offset="0" stop-color="#959595"/><stop offset="1" stop-color="#535353"/></linearGradient><linearGradient x1="320.00001" y1="54.92773" x2="320.00001" y2="305.07229" gradientUnits="userSpaceOnUse" id="color-2"><stop offset="0" stop-color="#000000"/><stop offset="1" stop-color="#000000"/></linearGradient><linearGradient x1="53.05325" y1="226.82491" x2="53.05325" y2="248.51469" gradientUnits="userSpaceOnUse" id="color-3"><stop offset="0" stop-color="#0a00ff"/><stop offset="1" stop-color="#0034ff"/></linearGradient><linearGradient x1="50.84473" y1="239.29281" x2="32.92865" y2="227.06743" gradientUnits="userSpaceOnUse" id="color-4"><stop offset="0" stop-color="#0a00ff"/><stop offset="1" stop-color="#0034ff"/></linearGradient><linearGradient x1="97.04135" y1="229.58533" x2="97.04135" y2="251.27509" gradientUnits="userSpaceOnUse" id="color-5"><stop offset="0" stop-color="#0a00ff"/><stop offset="1" stop-color="#0034ff"/></linearGradient><linearGradient x1="75.0241" y1="221.66122" x2="75.0241" y2="273.7271" gradientUnits="userSpaceOnUse" id="color-6"><stop offset="0" stop-color="#0a00ff"/><stop offset="1" stop-color="#0034ff"/></linearGradient><linearGradient x1="75.26948" y1="179.94458" x2="75.26948" y2="223.75681" gradientUnits="userSpaceOnUse" id="color-7"><stop offset="0" stop-color="#0a00ff"/><stop offset="1" stop-color="#0034ff"/></linearGradient><linearGradient x1="60.94607" y1="164.40821" x2="60.94607" y2="186.21538" gradientUnits="userSpaceOnUse" id="color-8"><stop offset="0" stop-color="#0a00ff"/><stop offset="1" stop-color="#0034ff"/></linearGradient><linearGradient x1="91.86254" y1="165.51236" x2="91.86254" y2="188.97578" gradientUnits="userSpaceOnUse" id="color-9"><stop offset="0" stop-color="#0a00ff"/><stop offset="1" stop-color="#0034ff"/></linearGradient><linearGradient x1="103.60965" y1="244.34252" x2="121.80614" y2="232.53854" gradientUnits="userSpaceOnUse" id="color-10"><stop offset="0" stop-color="#0a00ff"/><stop offset="1" stop-color="#0034ff"/></linearGradient><linearGradient x1="92.41462" y1="155.29889" x2="92.41462" y2="168.54882" gradientUnits="userSpaceOnUse" id="color-11"><stop offset="0" stop-color="#0a00ff"/><stop offset="1" stop-color="#0034ff"/></linearGradient><linearGradient x1="60.94607" y1="153.64264" x2="60.94607" y2="166.89256" gradientUnits="userSpaceOnUse" id="color-12"><stop offset="0" stop-color="#0a00ff"/><stop offset="1" stop-color="#0034ff"/></linearGradient><linearGradient x1="120.99185" y1="218.64242" x2="109.12979" y2="225.51822" gradientUnits="userSpaceOnUse" id="color-13"><stop offset="0" stop-color="#0a00ff"/><stop offset="1" stop-color="#0034ff"/></linearGradient><linearGradient x1="35.19068" y1="210.29466" x2="45.61562" y2="219.62478" gradientUnits="userSpaceOnUse" id="color-14"><stop offset="0" stop-color="#0a00ff"/><stop offset="1" stop-color="#0034ff"/></linearGradient><linearGradient x1="75.30014" y1="203.32985" x2="75.30014" y2="218.236" gradientUnits="userSpaceOnUse" id="color-15"><stop offset="0" stop-color="#00ffb5"/><stop offset="1" stop-color="#00c7aa"/></linearGradient><linearGradient x1="75.7741" y1="231.20989" x2="75.7741" y2="267.42843" gradientUnits="userSpaceOnUse" id="color-16"><stop offset="0" stop-color="#00ffb5"/><stop offset="1" stop-color="#00c7aa"/></linearGradient><linearGradient x1="75.39216" y1="204.24998" x2="75.39216" y2="210.32286" gradientUnits="userSpaceOnUse" id="color-17"><stop offset="0" stop-color="#000000"/><stop offset="1" stop-color="#101010"/></linearGradient><linearGradient x1="65.50883" y1="190.35598" x2="65.50883" y2="201.94965" gradientUnits="userSpaceOnUse" id="color-18"><stop offset="0" stop-color="#000000"/><stop offset="1" stop-color="#101010"/></linearGradient><linearGradient x1="85.38372" y1="191.1841" x2="85.38372" y2="202.77778" gradientUnits="userSpaceOnUse" id="color-19"><stop offset="0" stop-color="#000000"/><stop offset="1" stop-color="#101010"/></linearGradient><linearGradient x1="91.61898" y1="170.20506" x2="91.61898" y2="184.00705" gradientUnits="userSpaceOnUse" id="color-20"><stop offset="0" stop-color="#00ffb5"/><stop offset="1" stop-color="#00c7aa"/></linearGradient><linearGradient x1="92.17105" y1="157.50721" x2="92.17105" y2="166.421" gradientUnits="userSpaceOnUse" id="color-21"><stop offset="0" stop-color="#00ffb5"/><stop offset="1" stop-color="#00c7aa"/></linearGradient><linearGradient x1="60.7025" y1="169.10089" x2="60.7025" y2="182.9029" gradientUnits="userSpaceOnUse" id="color-22"><stop offset="0" stop-color="#00ffb5"/><stop offset="1" stop-color="#00c7aa"/></linearGradient><linearGradient x1="61.25458" y1="155.85097" x2="61.25458" y2="164.76476" gradientUnits="userSpaceOnUse" id="color-23"><stop offset="0" stop-color="#00ffb5"/><stop offset="1" stop-color="#00c7aa"/></linearGradient><linearGradient x1="65.5129" y1="193.2544" x2="65.5129" y2="198.91321" gradientUnits="userSpaceOnUse" id="color-24"><stop offset="0" stop-color="#9800ff"/><stop offset="1" stop-color="#770079"/></linearGradient><linearGradient x1="85.24976" y1="194.08252" x2="85.24976" y2="199.74134" gradientUnits="userSpaceOnUse" id="color-25"><stop offset="0" stop-color="#9800ff"/><stop offset="1" stop-color="#770079"/></linearGradient><linearGradient x1="65.43172" y1="194.78125" x2="65.43172" y2="196.83429" gradientUnits="userSpaceOnUse" id="color-26"><stop offset="0" stop-color="#ffffff"/><stop offset="1" stop-color="#787878"/></linearGradient><linearGradient x1="85.30659" y1="195.74738" x2="85.30659" y2="197.80043" gradientUnits="userSpaceOnUse" id="color-27"><stop offset="0" stop-color="#ffffff"/><stop offset="1" stop-color="#787878"/></linearGradient><radialGradient cx="320" cy="180" r="322" gradientUnits="userSpaceOnUse" id="color-28"><stop offset="0" stop-color="#000000" stop-opacity="0"/><stop offset="1" stop-color="#000000" stop-opacity="0.46275"/></radialGradient></defs><g transform="translate(2.07207,2.5)"><g data-paper-data="{&quot;isPaintingLayer&quot;:true}" fill-rule="nonzero" stroke-linejoin="miter" stroke-miterlimit="10" stroke-dasharray="" stroke-dashoffset="0" style="mix-blend-mode: normal"><path d="M-2.07207,361.6817v-363.36336h644.14414v363.36336z" fill="url(#color-1)" stroke="none" stroke-width="0" stroke-linecap="butt"/><path d="M468.06353,180.00002c0,51.8979 -61.44381,81.39805 -114.73554,100.32858c-17.63895,6.26579 -12.9927,24.7437 -33.32796,24.7437c-44.6918,0 -59.23334,-30.23968 -86.38143,-56.6857c-3.78204,-3.68423 -21.54646,40.87191 -26.00218,37.46334c-22.08172,-16.89226 -35.6799,-79.78578 -35.6799,-105.84992c0,-39.99508 16.13035,-93.08544 56.80865,-84.98708c59.68132,11.88153 56.82875,-40.08519 91.25485,-40.08519c71.94304,0 56.82682,50.85045 70.20279,108.3101c1.82767,7.85119 77.86071,8.45843 77.86071,16.76218z" fill="url(#color-2)" stroke="none" stroke-width="0" stroke-linecap="butt"/><path d="M8.68468,282.25227v-150.19369h137.14114v150.19369z" fill="#383838" stroke="none" stroke-width="0" stroke-linecap="butt"/><path d="M15.69519,273.23276v-132.15165h123.12312v132.15165z" fill="#fdfdfd" stroke="none" stroke-width="0" stroke-linecap="butt"/><path d="M55.80891,240.86234c-6.6296,5.72239 -13.23769,8.93196 -14.75961,7.16877c-1.52191,-1.76319 2.61868,-7.83146 9.24828,-13.55385c6.6296,-5.72239 13.2377,-8.93195 14.75961,-7.16876c1.52191,1.76319 -2.61869,7.83145 -9.24828,13.55384z" data-paper-data="{&quot;index&quot;:null}" fill="url(#color-3)" stroke="#000000" stroke-width="0.5" stroke-linecap="butt"/><path d="M37.69638,233.65688c-0.99003,-8.70156 0.08346,-15.96902 2.3977,-16.23233c2.31425,-0.26331 4.9929,6.57726 5.98292,15.27881c0.99003,8.70156 -0.08347,15.96902 -2.39771,16.23233c-2.31425,0.26331 -4.99288,-6.57725 -5.98291,-15.27881z" data-paper-data="{&quot;index&quot;:null}" fill="url(#color-4)" stroke="#000000" stroke-width="0.5" stroke-linecap="butt"/><path d="M85.03739,230.06891c1.52192,-1.76319 8.13002,1.44637 14.75962,7.16876c6.62959,5.72239 10.7702,11.79066 9.24828,13.55385c-1.52192,1.76319 -8.13002,-1.44638 -14.75962,-7.16877c-6.62959,-5.72239 -10.77019,-11.79065 -9.24828,-13.55384z" data-paper-data="{&quot;index&quot;:null}" fill="url(#color-5)" stroke="#000000" stroke-width="0.5" stroke-linecap="butt"/><path d="M96.16229,247.69417c0,14.37759 -9.46389,26.03294 -21.13819,26.03294c-11.67431,0 -21.1382,-11.65535 -21.1382,-26.03294c0,-14.37759 9.46389,-26.03294 21.1382,-26.03294c11.67431,0 21.13819,11.65535 21.13819,26.03294z" fill="url(#color-6)" stroke="#000000" stroke-width="0.5" stroke-linecap="butt"/><path d="M96.76992,201.85069c0,12.09841 -9.62607,21.90612 -21.50044,21.90612c-11.87436,0 -21.50044,-9.8077 -21.50044,-21.90611c0,-12.09841 9.62608,-21.90612 21.50045,-21.90612c11.87436,0 21.50044,9.8077 21.50044,21.90612z" fill="url(#color-7)" stroke="#000000" stroke-width="0.5" stroke-linecap="butt"/><path d="M67.57102,175.3118c0,6.02188 -2.9661,10.90357 -6.62496,10.90357c-3.65886,0 -6.62496,-4.88169 -6.62496,-10.90357c0,-6.02188 2.96609,-10.90358 6.62496,-10.90358c3.65886,0 6.62496,4.8817 6.62496,10.90358z" fill="url(#color-8)" stroke="#000000" stroke-width="0.5" stroke-linecap="butt"/><path d="M98.4875,177.24407c0,6.47923 -2.9661,11.7317 -6.62496,11.7317c-3.65886,0 -6.62496,-5.25246 -6.62496,-11.7317c0,-6.47923 2.9661,-11.7317 6.62496,-11.7317c3.65886,0 6.62496,5.25247 6.62496,11.7317z" fill="url(#color-9)" stroke="#000000" stroke-width="0.5" stroke-linecap="butt"/><path d="M110.54812,254.14998c-2.30747,-0.31724 -3.21108,-7.60777 -2.01828,-16.28386c1.19281,-8.67609 4.03035,-15.45228 6.33782,-15.13504c2.30747,0.31724 3.21108,7.60777 2.01828,16.28385c-1.19281,8.67609 -4.03035,15.45228 -6.33782,15.13504z" data-paper-data="{&quot;index&quot;:null}" fill="url(#color-10)" stroke="#000000" stroke-width="0.5" stroke-linecap="butt"/><path d="M96.83126,161.92385c0,3.65886 -1.9774,6.62496 -4.41664,6.62496c-2.43924,0 -4.41664,-2.96609 -4.41664,-6.62496c0,-3.65886 1.9774,-6.62496 4.41664,-6.62496c2.43924,0 4.41664,2.9661 4.41664,6.62496z" fill="url(#color-11)" stroke="#000000" stroke-width="0.5" stroke-linecap="butt"/><path d="M65.3627,160.26761c0,3.65886 -1.9774,6.62496 -4.41664,6.62496c-2.43924,0 -4.41664,-2.9661 -4.41664,-6.62496c0,-3.65886 1.97739,-6.62495 4.41664,-6.62495c2.43924,0 4.41664,2.96609 4.41664,6.62496z" fill="url(#color-12)" stroke="#000000" stroke-width="0.5" stroke-linecap="butt"/><path d="M116.20764,216.48314c4.04864,0.70124 6.81727,3.77564 6.1839,6.86688c-0.63337,3.09124 -4.42888,5.02871 -8.47752,4.32747c-4.04864,-0.70124 -6.81727,-3.77564 -6.1839,-6.86688c0.63337,-3.09124 4.42889,-5.02871 8.47753,-4.32747z" data-paper-data="{&quot;index&quot;:null}" fill="url(#color-13)" stroke="#000000" stroke-width="0.5" stroke-linecap="butt"/><path d="M47.99055,215.21181c-0.00844,3.21979 -3.41227,5.71709 -7.60267,5.57786c-4.1904,-0.13923 -7.58056,-2.86225 -7.57212,-6.08204c0.00844,-3.21979 3.41227,-5.71708 7.60267,-5.57786c4.1904,0.13923 7.58056,2.86225 7.57212,6.08203z" data-paper-data="{&quot;index&quot;:null}" fill="url(#color-14)" stroke="#000000" stroke-width="0.5" stroke-linecap="butt"/><path d="M85.23758,210.78292c0,4.11622 -4.44914,7.45308 -9.93744,7.45308c-5.4883,0 -9.93743,-3.33686 -9.93743,-7.45308c0,-4.11622 4.44913,-7.45307 9.93743,-7.45307c5.4883,0 9.93744,3.33685 9.93744,7.45307z" fill="url(#color-15)" stroke="#000000" stroke-width="0.5" stroke-linecap="butt"/><path d="M89.11778,249.31917c0,10.00148 -5.97417,18.10928 -13.34368,18.10928c-7.36951,0 -13.34368,-8.1078 -13.34368,-18.10928c0,-10.00148 5.97416,-18.10928 13.34368,-18.10928c7.36951,0 13.34368,8.1078 13.34368,18.10928z" fill="url(#color-16)" stroke="#000000" stroke-width="0.5" stroke-linecap="butt"/><path d="M80.08484,207.28642c0,1.67698 -2.10098,3.03644 -4.69268,3.03644c-2.5917,0 -4.69268,-1.35946 -4.69268,-3.03644c0,-1.67698 2.10098,-3.03644 4.69268,-3.03644c2.5917,0 4.69268,1.35946 4.69268,3.03644z" fill="url(#color-17)" stroke="#000000" stroke-width="0.5" stroke-linecap="butt"/><path d="M70.6237,196.15281c0,3.2015 -2.29,5.79684 -5.11486,5.79684c-2.82486,0 -5.11486,-2.59534 -5.11486,-5.79684c0,-3.2015 2.29,-5.79684 5.11486,-5.79684c2.82486,0 5.11486,2.59534 5.11486,5.79684z" fill="url(#color-18)" stroke="#000000" stroke-width="0.5" stroke-linecap="butt"/><path d="M90.49859,196.98094c0,3.2015 -2.29,5.79684 -5.11486,5.79684c-2.82486,0 -5.11485,-2.59534 -5.11485,-5.79684c0,-3.2015 2.29,-5.79684 5.11485,-5.79684c2.82486,0 5.11486,2.59534 5.11486,5.79684z" fill="url(#color-19)" stroke="#000000" stroke-width="0.5" stroke-linecap="butt"/><path d="M95.51601,177.10606c0,3.81132 -1.74477,6.90099 -3.89704,6.90099c-2.15227,0 -3.89703,-3.08968 -3.89703,-6.90099c0,-3.81132 1.74477,-6.901 3.89703,-6.901c2.15227,0 3.89704,3.08969 3.89704,6.901z" fill="url(#color-20)" stroke="#000000" stroke-width="0.5" stroke-linecap="butt"/><path d="M92.17105,157.50721c1.39001,0 2.51684,1.99542 2.51684,4.4569c0,2.46148 -1.12683,4.4569 -2.51684,4.4569c-1.39001,0 -2.51683,-1.99542 -2.51683,-4.4569c0,-2.46148 1.12682,-4.4569 2.51683,-4.4569z" data-paper-data="{&quot;index&quot;:null}" fill="url(#color-21)" stroke="#000000" stroke-width="0.5" stroke-linecap="butt"/><path d="M60.7025,169.10089c2.15227,0 3.89704,3.08969 3.89704,6.901c0,3.81132 -1.74477,6.90099 -3.89704,6.90099c-2.15227,0 -3.89704,-3.08968 -3.89704,-6.90099c0,-3.81132 1.74477,-6.901 3.89704,-6.901z" data-paper-data="{&quot;index&quot;:null}" fill="url(#color-22)" stroke="#000000" stroke-width="0.5" stroke-linecap="butt"/><path d="M63.77141,160.30788c0,2.46148 -1.12682,4.45689 -2.51683,4.45689c-1.39001,0 -2.51684,-1.99541 -2.51684,-4.45689c0,-2.46148 1.12683,-4.45689 2.51684,-4.45689c1.39001,0 2.51683,1.99542 2.51683,4.45689z" data-paper-data="{&quot;index&quot;:null}" fill="url(#color-23)" stroke="#000000" stroke-width="0.5" stroke-linecap="butt"/><path d="M68.00944,196.08381c0,1.56264 -1.11773,2.82941 -2.49653,2.82941c-1.3788,0 -2.49654,-1.26677 -2.49654,-2.82941c0,-1.56264 1.11774,-2.82941 2.49654,-2.82941c1.3788,0 2.49653,1.26677 2.49653,2.82941z" fill="url(#color-24)" stroke="#000000" stroke-width="0.5" stroke-linecap="butt"/><path d="M87.74629,196.91193c0,1.56264 -1.11774,2.82941 -2.49654,2.82941c-1.37879,0 -2.49654,-1.26677 -2.49654,-2.82941c0,-1.56264 1.11774,-2.82941 2.49654,-2.82941c1.37879,0 2.49654,1.26677 2.49654,2.82941z" fill="url(#color-25)" stroke="#000000" stroke-width="0.5" stroke-linecap="butt"/><path d="M66.53587,195.80777c0,0.56693 -0.49435,1.02652 -1.10416,1.02652c-0.60981,0 -1.10416,-0.45959 -1.10416,-1.02652c0,-0.56693 0.49435,-1.02652 1.10416,-1.02652c0.60981,0 1.10416,0.45959 1.10416,1.02652z" fill="url(#color-26)" stroke="#000000" stroke-width="0.5" stroke-linecap="butt"/><path d="M86.41075,196.77391c0,0.56693 -0.49435,1.02652 -1.10416,1.02652c-0.60981,0 -1.10416,-0.45959 -1.10416,-1.02652c0,-0.56693 0.49435,-1.02652 1.10416,-1.02652c0.60981,0 1.10416,0.45959 1.10416,1.02653z" fill="url(#color-27)" stroke="#000000" stroke-width="0.5" stroke-linecap="butt"/><g fill="#000000" stroke="#000000" stroke-width="0.5" stroke-linecap="round"><path d="M76.30454,228.76811c0,0 0.20443,0.02734 -2.15602,0.00545c-0.25468,-0.00236 -0.41707,0.89315 -0.70057,1.02081c-2.37901,1.07137 -3.85691,1.73334 -4.87011,1.93503c-0.01883,0.00375 -0.17278,0.03086 -0.19072,0.03584c-0.10229,0.02844 -0.2577,-0.01833 -0.32859,-0.01618c-0.40229,0.01219 -0.76883,-2.75503 -0.76883,-2.75503c0,0 -0.03098,-1.07174 0.06307,-2.28886c0.13396,-1.73349 0.7928,-3.37417 1.37891,-3.55339c0.28084,-0.08587 0.69683,0.16612 1.30208,0.3387c0.20879,0.05953 0.47226,0.03494 0.67441,0.16575c1.07164,0.69346 0.81898,0.39422 1.14138,0.65827c0.02784,0.0228 0.50684,0.29451 0.53319,0.31806c0.59418,0.53082 1.04837,1.37945 1.61707,1.4247c1.65959,0.13205 2.30473,0.04479 2.30473,0.04479"/><path d="M74.04389,226.10121c0,0 0.64515,0.08727 2.30473,-0.04478c0.5687,-0.04525 1.02289,-0.89388 1.61706,-1.4247c0.02635,-0.02355 0.50536,-0.29526 0.5332,-0.31806c0.3224,-0.26405 0.06974,0.03519 1.14138,-0.65827c0.20215,-0.13081 0.46562,-0.10622 0.67441,-0.16575c0.60525,-0.17258 1.02123,-0.42457 1.30207,-0.3387c0.58611,0.17921 1.24496,1.81991 1.37892,3.55338c0.09406,1.21713 0.06307,2.28885 0.06307,2.28885c0,0 -0.36653,2.76722 -0.76882,2.75503c-0.07089,-0.00215 -0.2263,0.04463 -0.3286,0.01618c-0.01794,-0.00499 -0.17189,-0.0321 -0.19072,-0.03585c-1.0132,-0.20169 -2.4911,-0.86365 -4.8701,-1.93503c-0.2835,-0.12767 -0.4459,-1.02318 -0.70058,-1.02083c-2.36044,0.02189 -2.15601,-0.00545 -2.15601,-0.00545" data-paper-data="{&quot;index&quot;:null}"/></g><text transform="translate(40.92793,153.08611) scale(0.35661,0.35661)" font-size="40" xml:space="preserve" fill="#0048fc" fill-rule="nonzero" stroke="none" stroke-width="1" stroke-linecap="butt" stroke-linejoin="miter" stroke-miterlimit="10" stroke-dasharray="" stroke-dashoffset="0" font-family="Malgun Gothic" font-weight="normal" text-anchor="start" style="mix-blend-mode: normal"><tspan x="0" dy="0">Let's Party</tspan></text><text transform="translate(42.42793,153.08611) scale(0.35661,0.3566)" font-size="40" xml:space="preserve" fill="#000000" fill-rule="nonzero" stroke="none" stroke-width="1" stroke-linecap="butt" stroke-linejoin="miter" stroke-miterlimit="10" stroke-dasharray="" stroke-dashoffset="0" font-family="Malgun Gothic" font-weight="normal" text-anchor="start" style="mix-blend-mode: normal"><tspan x="0" dy="0">Let's Party</tspan></text><path d="M516.45917,187.42833c-0.24664,-0.04084 -0.2058,-0.28748 -0.2058,-0.28748c0.1906,-1.15099 0.45735,-2.76188 0.64794,-3.91287c0.62048,-3.74702 2.26426,-6.30501 4.20822,-9.54172c1.80244,-3.00107 3.60482,-6.00216 5.40732,-9.00319c1.59034,-2.54465 3.18077,-5.08925 4.77116,-7.63387c0,0 0.1325,-0.212 0.3445,-0.0795c0.212,0.1325 0.0795,0.3445 0.0795,0.3445c-1.58961,2.54337 -3.17917,5.08676 -4.76882,7.6301c-1.80162,2.99983 -3.60334,5.9996 -5.40502,8.9994c-1.91374,3.18639 -3.53369,5.68291 -4.14357,9.36597c-0.1906,1.15099 -0.38119,2.30199 -0.57179,3.45298l-0.07616,0.4599c0,0 -0.04084,0.24664 -0.28748,0.2058z" fill="#000000" stroke="none" stroke-width="0.5" stroke-linecap="butt"/><path d="M544.51006,246.4315c-0.2498,0.01005 -0.25985,-0.23974 -0.25985,-0.23974l-0.00986,-0.24499c-0.0698,-1.73407 0.49956,-5.37544 -0.25556,-6.89302c-0.30933,-0.62166 -1.69968,-1.36766 -2.25316,-1.82223c-2.7047,-2.2214 -5.40939,-4.4428 -8.11409,-6.6642c-2.30256,-1.89112 -5.33547,-2.33073 -8.18622,-3.14523c0,0 -0.24038,-0.06868 -0.1717,-0.30906c0.06868,-0.24038 0.30906,-0.1717 0.30906,-0.1717c2.92332,0.83524 6.00127,1.29726 8.3662,3.23961c2.7047,2.2214 5.40939,4.4428 8.11409,6.6642c0.62118,0.51018 2.02846,1.27242 2.38346,1.98588c0.80453,1.61687 0.23398,5.26892 0.30751,7.09565l0.00986,0.24499c0,0 0.01005,0.2498 -0.23974,0.25985z" fill="#000000" stroke="none" stroke-width="0.5" stroke-linecap="butt"/><path d="M360.26108,338.2552c-0.07351,-0.23895 0.16544,-0.31246 0.16544,-0.31246c3.186,-0.98007 6.71107,-2.06445 9.89707,-3.04453c3.3453,-1.02908 6.69059,-2.05815 10.03589,-3.08723c3.3453,-1.02908 6.69059,-2.05815 10.03589,-3.08723c3.3453,-1.02908 6.69059,-2.05815 10.03589,-3.08723c3.3453,-1.02908 6.69059,-2.05815 10.03589,-3.08723c3.34597,-1.02929 6.70246,-2.02358 10.05667,-3.02566c3.35354,-1.00188 6.70708,-2.00377 10.06062,-3.00565c3.19972,-0.95593 7.00987,-1.56354 9.92677,-3.18404c2.62247,-1.45693 5.24494,-2.91386 7.86742,-4.37079c0,0 0.21854,-0.12141 0.33995,0.09713c0.12141,0.21854 -0.09713,0.33995 -0.09713,0.33995c-2.62247,1.45693 -5.24494,2.91386 -7.86742,4.37079c-2.95142,1.63968 -6.78966,2.25903 -10.02647,3.22604c-3.35354,1.00188 -6.70708,2.00377 -10.06062,3.00565c-3.35292,1.0017 -6.70811,1.9956 -10.05279,3.02449c-3.3453,1.02908 -6.69059,2.05815 -10.03589,3.08723c-3.3453,1.02908 -6.69059,2.05815 -10.03589,3.08723c-3.3453,1.02908 -6.69059,2.05815 -10.03589,3.08723c-3.3453,1.02908 -6.69059,2.05815 -10.03589,3.08723c-3.186,0.98007 -6.37199,1.96015 -9.55799,2.94022l-0.33908,0.10431c0,0 -0.23895,0.07351 -0.31246,-0.16544z" fill="#000000" stroke="none" stroke-width="0.5" stroke-linecap="butt"/><path d="M223.73528,333.26622c-0.08452,0.23528 -0.3198,0.15076 -0.3198,0.15076c-2.66649,-0.95791 -5.50797,-1.97869 -8.17447,-2.9366c-3.2939,-1.1833 -6.58781,-2.3666 -9.88171,-3.54991c-3.31058,-1.18929 -6.50992,-2.42657 -9.96673,-3.09512c-3.43632,-0.66459 -6.87265,-1.32918 -10.30897,-1.99377c-3.43632,-0.66459 -6.87265,-1.32918 -10.30897,-1.99377c-3.44255,-0.66579 -6.83068,-1.37826 -10.32648,-1.66957c-2.98964,-0.24914 -5.97927,-0.49827 -8.96891,-0.74741c0,0 -0.24914,-0.02076 -0.22838,-0.2699c0.02076,-0.24914 0.2699,-0.22838 0.2699,-0.22838c2.98964,0.24914 5.97927,0.49827 8.96891,0.74741c3.5139,0.29283 6.91965,1.00773 10.3799,1.67694c3.43632,0.66459 6.87265,1.32918 10.30897,1.99377c3.43632,0.66459 6.87265,1.32918 10.30897,1.99377c3.48251,0.67352 6.70602,1.91747 10.04083,3.11547c3.2939,1.1833 6.58781,2.3666 9.88171,3.54991c2.66649,0.95791 5.33299,1.91582 7.99948,2.87373l0.17499,0.06286c0,0 0.23528,0.08452 0.15076,0.3198z" fill="#000000" stroke="none" stroke-width="0.5" stroke-linecap="butt"/><path d="M99.57938,68.41875c-0.23706,0.07938 -0.31644,-0.15769 -0.31644,-0.15769c-0.89959,-2.68673 -1.85897,-5.55204 -2.75856,-8.23877c-1.22223,-3.65034 -2.99995,-5.68861 -5.56194,-8.54153c-2.33853,-2.60409 -4.67707,-5.20817 -7.0156,-7.81226c-2.12893,-2.37068 -4.28508,-6.16014 -7.50549,-6.37484c-3.49225,-0.23282 -6.9845,-0.46563 -10.47674,-0.69845c-3.49225,-0.23282 -6.9845,-0.46563 -10.47674,-0.69845c-2.98795,-0.1992 -5.97285,-0.46508 -8.96787,-0.46508c0,0 -0.25,0 -0.25,-0.25c0,-0.25 0.25,-0.25 0.25,-0.25c3.00618,0 6.00206,0.26625 9.00113,0.46619c3.49225,0.23282 6.9845,0.46563 10.47674,0.69845c3.49225,0.23282 6.9845,0.46563 10.47674,0.69845c3.41538,0.22769 5.6073,4.04869 7.84424,6.53965c2.33853,2.60409 4.67707,5.20817 7.0156,7.81226c2.59981,2.89503 4.42162,5.00618 5.66405,8.71685c0.89959,2.68673 1.79917,5.37346 2.69876,8.06019l0.05979,0.17858c0,0 0.07938,0.23706 -0.15769,0.31644z" fill="#000000" stroke="none" stroke-width="0.5" stroke-linecap="butt"/><path d="M253.74996,65.1859c-0.00421,0.24996 -0.25417,0.24575 -0.25417,0.24575c-0.49993,-0.00842 -1.08525,-0.01828 -1.58518,-0.0267c-3.01595,-0.07491 -7.03,-2.68385 -9.8352,-3.84121c-3.23545,-1.33487 -6.47089,-2.66975 -9.70634,-4.00462c-3.23545,-1.33487 -6.47089,-2.66975 -9.70634,-4.00462c-3.11588,-1.2913 -6.86574,-1.72443 -10.14907,-2.51243c-3.40336,-0.81681 -6.80671,-1.63361 -10.21007,-2.45042c-3.04031,-0.72968 -5.67467,-1.15996 -8.80359,-1.15996c0,0 -0.25,0 -0.25,-0.25c0,-0.25 0.25,-0.25 0.25,-0.25c3.16477,0 5.84594,0.43593 8.92028,1.17377c3.40336,0.81681 6.80671,1.63361 10.21007,2.45042c3.31436,0.79545 7.0734,1.2423 10.22308,2.53642c3.23545,1.33487 6.47089,2.66975 9.70634,4.00462c3.23545,1.33487 6.47089,2.66975 9.70634,4.00462c2.68946,1.10961 6.7676,3.7827 9.65292,3.80349c0.49993,0.00842 0.99986,0.01684 1.49979,0.02526l0.0854,0.00144c0,0 0.24996,0.00421 0.24575,0.25417z" fill="#000000" stroke="none" stroke-width="0.5" stroke-linecap="butt"/><path d="M464.65123,87.3808c-0.1991,0.1512 -0.35029,-0.0479 -0.35029,-0.0479c-1.20958,-1.59277 -2.55476,-3.36408 -3.76435,-4.95685c-2.11677,-2.78734 -4.23354,-5.57468 -6.35032,-8.36203c-2.21869,-2.92155 -3.81902,-5.69303 -5.3539,-9.02356c-1.4649,-3.17869 -2.9298,-6.35738 -4.3947,-9.53607c-1.46269,-3.17389 -2.92822,-6.34649 -4.38762,-9.5219c-1.58983,-2.53787 -3.17483,-5.07878 -4.76202,-7.61829c0,0 -0.1325,-0.212 0.0795,-0.3445c0.212,-0.1325 0.3445,0.0795 0.3445,0.0795c1.59279,2.54847 3.18765,5.09566 4.77796,7.64568c1.4702,3.18205 2.93468,6.36676 4.40178,9.55024c1.4649,3.17869 2.9298,6.35738 4.3947,9.53607c1.52124,3.30095 3.09919,6.03508 5.29799,8.93044c2.11677,2.78734 4.23354,5.57468 6.35032,8.36203c1.20958,1.59277 2.41917,3.18553 3.62875,4.7783l0.13559,0.17855c0,0 0.1512,0.1991 -0.0479,0.35029z" fill="#000000" stroke="none" stroke-width="0.5" stroke-linecap="butt"/><path d="M468.50001,361.38798c0,-19.3153 -10.36116,-52.05404 -4.1646,-65.8417c12.79813,-28.47652 73.50674,-72.36458 98.60077,-72.36458c37.24397,0 85.43617,37.99788 85.43617,97.20628c0,27.93769 18.27783,21.37942 7.26454,40.46042c-12.32719,21.35739 -69.03045,5.74586 -88.70071,5.74586c-28.59955,0 -74.04091,34.69726 -83.84601,-5.25079c-2.96366,-12.07458 -14.59016,13.78693 -14.59016,0.04451z" fill-opacity="0.1451" fill="#6b0000" stroke="none" stroke-width="0" stroke-linecap="butt"/><path d="M89.87505,328.39772c-0.21604,0.12581 -0.34185,-0.09023 -0.34185,-0.09023c-0.58709,-1.00818 -1.35518,-2.32716 -1.94227,-3.33534c-1.82545,-3.13472 -3.8433,-5.59057 -6.30155,-8.25406c-2.3738,-2.57198 -4.7476,-5.14396 -7.12139,-7.71594c-2.1071,-2.28302 -3.25783,-4.93961 -4.64235,-7.70866c0,0 -0.1118,-0.22361 0.1118,-0.33541c0.22361,-0.1118 0.33541,0.1118 0.33541,0.1118c1.36309,2.72618 2.48957,5.34709 4.56256,7.59315c2.3738,2.57198 4.7476,5.14396 7.12139,7.71594c2.48068,2.68779 4.52369,5.17753 6.3662,8.34156c0.58709,1.00818 1.17419,2.01636 1.76128,3.02455l0.18099,0.3108c0,0 0.12581,0.21604 -0.09023,0.34185z" fill-opacity="0.68627" fill="#000000" stroke="none" stroke-width="0.5" stroke-linecap="butt"/><path d="M582.49925,47.18169c0,-0.25 0.25,-0.25 0.25,-0.25c2.5,0 5.5,0 8,0c0,0 0.25,0 0.25,0.25c0,0.25 -0.25,0.25 -0.25,0.25c-2.5,0 -5,0 -7.5,0h-0.5c0,0 -0.25,0 -0.25,-0.25z" fill-opacity="0.68627" fill="#000000" stroke="none" stroke-width="0.5" stroke-linecap="butt"/><path d="M547.61741,94.3941c-0.21241,-0.13184 -0.08057,-0.34425 -0.08057,-0.34425c0.70315,-1.13285 1.47596,-2.37794 2.17911,-3.5108c1.84577,-2.97374 3.69154,-5.94748 5.53731,-8.92122c1.84577,-2.97374 3.69154,-5.94748 5.53731,-8.92122c1.58209,-2.54892 3.16418,-5.09784 4.74627,-7.64676c0,0 0.13184,-0.21241 0.34425,-0.08057c0.21241,0.13184 0.08057,0.34425 0.08057,0.34425c-1.58209,2.54892 -3.16418,5.09784 -4.74627,7.64676c-1.84577,2.97374 -3.69154,5.94748 -5.53731,8.92122c-1.84577,2.97374 -3.69154,5.94748 -5.53731,8.92122c-0.70315,1.13285 -1.4063,2.26571 -2.10945,3.39856l-0.06966,0.11223c0,0 -0.13184,0.21241 -0.34425,0.08057z" fill-opacity="0.68627" fill="#000000" stroke="none" stroke-width="0.5" stroke-linecap="butt"/><path d="M-2,362.5v-365h644v365z" fill="url(#color-28)" stroke="none" stroke-width="0" stroke-linecap="butt"/></g></g></svg>