<svg version="1.1" xmlns="http://www.w3.org/2000/svg" xmlns:xlink="http://www.w3.org/1999/xlink" width="193.92318" height="235.79814" viewBox="0,0,193.92318,235.79814"><defs><linearGradient x1="320.17344" y1="26.79994" x2="320.17344" y2="261.95502" gradientUnits="userSpaceOnUse" id="color-1"><stop offset="0" stop-color="#ffffff"/><stop offset="1" stop-color="#a5a5a5"/></linearGradient><linearGradient x1="310.37113" y1="93.79831" x2="310.37113" y2="107.57064" gradientUnits="userSpaceOnUse" id="color-2"><stop offset="0" stop-color="#000000"/><stop offset="1" stop-color="#232323"/></linearGradient><linearGradient x1="331.79476" y1="95.32856" x2="331.79476" y2="109.1009" gradientUnits="userSpaceOnUse" id="color-3"><stop offset="0" stop-color="#000000"/><stop offset="1" stop-color="#232323"/></linearGradient><linearGradient x1="310.22539" y1="95.10768" x2="310.22539" y2="98.82402" gradientUnits="userSpaceOnUse" id="color-4"><stop offset="0" stop-color="#ffffff"/><stop offset="1" stop-color="#a5a5a5"/></linearGradient><linearGradient x1="331.58981" y1="96.18933" x2="331.58981" y2="99.90568" gradientUnits="userSpaceOnUse" id="color-5"><stop offset="0" stop-color="#ffffff"/><stop offset="1" stop-color="#a5a5a5"/></linearGradient></defs><g transform="translate(-223.21185,-26.54995)"><g data-paper-data="{&quot;isPaintingLayer&quot;:true}" fill-rule="nonzero" stroke="#000000" stroke-linejoin="miter" stroke-miterlimit="10" stroke-dasharray="" stroke-dashoffset="0" style="mix-blend-mode: normal"><path d="M287.69051,141.67379c0,0 -6.44583,-3.84207 -13.01044,-9.31935c-7.25943,-6.05702 -14.6641,-14.11372 -13.65768,-21.18568c0.15674,-1.10137 0.34459,-5.78982 0.56118,-6.85129c5.8871,-28.85348 33.64893,-39.37524 33.64893,-39.37524c0,0 1.16247,-2.09284 1.296,-3.41146c0.23889,-2.35902 0.01565,-9.54109 0.01565,-9.54109c0,0 -16.54032,-3.75139 -16.62743,-7.22196c-0.26103,-10.39872 14.98786,-12.78071 14.98786,-12.78071c0,0 14.34775,-5.51137 20.96578,-5.17199c6.13374,0.31455 17.40002,7.13947 17.40002,7.13947c0,0 20.23658,32.51019 29.26928,45.98388c13.73076,20.48163 -0.08505,47.14332 -0.08505,47.14332c0,0 7.6691,-6.87628 10.44571,-5.00741c2.90169,1.95306 6.60574,16.48435 6.60574,16.48435c0,0 22.5956,1.42682 21.84313,16.71419c-0.35649,7.24252 -24.13851,14.43752 -24.13851,14.43752c0,0 6.48698,9.24757 14.64818,18.98805c3.71912,4.43882 14.8236,-8.3585 23.89938,2.47712c4.09582,4.89001 -3.77252,14.37001 -10.79289,25.13562c-8.60788,13.20002 -17.26148,27.50747 -17.26148,27.50747l-20.82246,13.28047c0,0 -2.17706,1.15832 -4.11151,2.35982c-3.29788,2.04833 -12.76702,4.22215 -59.37692,0.99614c-32.59332,-2.25588 -39.96802,-24.17841 -39.96802,-24.17841c0,0 -9.76889,-18.88426 -6.84932,-28.0732c4.84034,-15.23422 12.04422,-32.99707 12.04422,-32.99707c0,0 -35.5049,-8.9094 -42.77791,-18.67291c-1.63923,-2.20056 -4.11242,-11.6169 -0.57607,-13.93162c9.56536,-6.26101 19.14014,-8.08766 19.14014,-8.08766c0,0 3.64595,-16.1514 9.64271,-14.50972c2.93308,0.80296 8.3543,11.81712 14.86167,17.90654c7.91738,7.40887 16.81261,10.0476 16.81261,10.0476z" fill="url(#color-1)" stroke-width="0.5" stroke-linecap="round"/><path d="M315.39913,100.68447c0,3.80313 -2.25111,6.88617 -5.02799,6.88617c-2.77689,0 -5.02799,-3.08305 -5.02799,-6.88617c0,-3.80313 2.25111,-6.88617 5.02799,-6.88617c2.77689,0 5.02799,3.08305 5.02799,6.88617z" fill="url(#color-2)" stroke-width="0.5" stroke-linecap="butt"/><path d="M336.82276,102.21473c0,3.80313 -2.25111,6.88617 -5.02799,6.88617c-2.77689,0 -5.02799,-3.08305 -5.02799,-6.88617c0,-3.80313 2.25112,-6.88617 5.02799,-6.88617c2.77689,0 5.02799,3.08305 5.02799,6.88617z" fill="url(#color-3)" stroke-width="0.5" stroke-linecap="butt"/><path d="M308.09397,96.96585c0,-1.02624 0.95427,-1.85817 2.13144,-1.85817c1.17716,0 2.13144,0.83193 2.13144,1.85817c0,1.02624 -0.95427,1.85817 -2.13144,1.85817c-1.17716,0 -2.13144,-0.83193 -2.13144,-1.85817z" fill="url(#color-4)" stroke-width="0.5" stroke-linecap="butt"/><path d="M329.45838,98.04751c0,-1.02624 0.95427,-1.85817 2.13144,-1.85817c1.17716,0 2.13144,0.83193 2.13144,1.85817c0,1.02624 -0.95427,1.85817 -2.13144,1.85817c-1.17716,0 -2.13144,-0.83193 -2.13144,-1.85817z" fill="url(#color-5)" stroke-width="0.5" stroke-linecap="butt"/><path d="M330.98523,130.48823c0,0 -8.82145,3.21577 -13.28835,3.10479c-4.32768,-0.10752 -13.10862,-3.76062 -13.10862,-3.76062" fill="none" stroke-width="1.5" stroke-linecap="round"/><g fill="#000000" stroke-width="1" stroke-linecap="round"><path d="M323.1168,155.96743c0,0 0.54485,0.10146 -5.78683,-0.28164c-0.68314,-0.04133 -1.24204,2.33965 -2.02039,2.64331c-6.53174,2.54834 -10.58892,4.12174 -13.33575,4.52379c-0.05105,0.00747 -0.46795,0.05909 -0.51679,0.07001c-0.27844,0.06226 -0.68904,-0.08462 -0.87961,-0.08859c-1.08131,-0.02257 -1.68472,-7.49928 -1.68472,-7.49928c0,0 0.06411,-2.88045 0.48377,-6.13392c0.5977,-4.63373 2.59127,-8.94629 4.18885,-9.3467c0.76548,-0.19186 1.84724,0.54157 3.44782,1.08789c0.55215,0.18846 1.26261,0.15868 1.78712,0.53749c2.78068,2.00828 2.14371,1.17049 2.97264,1.92342c0.07158,0.06503 1.31973,0.86002 1.38724,0.92683c1.52162,1.50621 2.62393,3.84607 4.14393,4.04566c4.43564,0.58244 6.17902,0.43689 6.17902,0.43689"/><path d="M317.41636,148.49965c0,0 1.71939,0.32286 6.19133,0.1965c1.53244,-0.0433 2.86795,-2.25832 4.53546,-3.60126c0.07397,-0.05957 1.39679,-0.72292 1.47465,-0.7803c0.9015,-0.66433 0.18229,0.10402 3.15355,-1.60975c0.56047,-0.32326 1.26418,-0.22107 1.83267,-0.35216c1.64802,-0.37998 2.79903,-0.99909 3.5409,-0.73005c1.54832,0.56149 3.09099,5.0551 3.2123,9.72565c0.08517,3.27932 -0.14526,6.15124 -0.14526,6.15124c0,0 -1.3639,7.37599 -2.44186,7.288c-0.18996,-0.01551 -0.61345,0.08866 -0.88407,-0.00171c-0.04747,-0.01584 -0.4569,-0.10978 -0.50693,-0.12243c-2.69138,-0.6805 -6.56665,-2.66006 -12.80397,-5.8622c-0.74327,-0.38158 -1.05605,-2.80717 -1.73984,-2.83584c-6.3377,-0.26562 -5.78532,-0.31088 -5.78532,-0.31088" data-paper-data="{&quot;index&quot;:null}"/></g></g></g></svg>