<svg version="1.1" xmlns="http://www.w3.org/2000/svg" xmlns:xlink="http://www.w3.org/1999/xlink" width="209.47713" height="328.5" viewBox="0,0,209.47713,328.5"><defs><linearGradient x1="280.20348" y1="143.55737" x2="280.20348" y2="182.84474" gradientUnits="userSpaceOnUse" id="color-1"><stop offset="0" stop-color="#ff0000"/><stop offset="1" stop-color="#a80000"/></linearGradient><linearGradient x1="248.20348" y1="172.55737" x2="248.20348" y2="211.84474" gradientUnits="userSpaceOnUse" id="color-2"><stop offset="0" stop-color="#ff0000"/><stop offset="1" stop-color="#a80000"/></linearGradient><linearGradient x1="248.20348" y1="172.55737" x2="248.20348" y2="211.84474" gradientUnits="userSpaceOnUse" id="color-3"><stop offset="0" stop-color="#ff0000"/><stop offset="1" stop-color="#a80000"/></linearGradient><linearGradient x1="359.88052" y1="148.55738" x2="359.88052" y2="187.84474" gradientUnits="userSpaceOnUse" id="color-4"><stop offset="0" stop-color="#ff0000"/><stop offset="1" stop-color="#a80000"/></linearGradient><linearGradient x1="359.88052" y1="148.55738" x2="359.88052" y2="187.84474" gradientUnits="userSpaceOnUse" id="color-5"><stop offset="0" stop-color="#ff0000"/><stop offset="1" stop-color="#a80000"/></linearGradient><linearGradient x1="319.99999" y1="134.2042" x2="319.99999" y2="225.7958" gradientUnits="userSpaceOnUse" id="color-6"><stop offset="0" stop-color="#ff0000"/><stop offset="1" stop-color="#a80000"/></linearGradient><linearGradient x1="319.99999" y1="134.2042" x2="319.99999" y2="225.7958" gradientUnits="userSpaceOnUse" id="color-7"><stop offset="0" stop-color="#ff0000"/><stop offset="1" stop-color="#a80000"/></linearGradient><linearGradient x1="295.5" y1="310.5" x2="295.5" y2="337.5" gradientUnits="userSpaceOnUse" id="color-8"><stop offset="0" stop-color="#ff0000"/><stop offset="1" stop-color="#a80000"/></linearGradient><linearGradient x1="295.5" y1="310.5" x2="295.5" y2="337.5" gradientUnits="userSpaceOnUse" id="color-9"><stop offset="0" stop-color="#ff0000"/><stop offset="1" stop-color="#a80000"/></linearGradient><linearGradient x1="334.5" y1="311.5" x2="334.5" y2="338.5" gradientUnits="userSpaceOnUse" id="color-10"><stop offset="0" stop-color="#ff0000"/><stop offset="1" stop-color="#a80000"/></linearGradient><linearGradient x1="334.5" y1="311.5" x2="334.5" y2="338.5" gradientUnits="userSpaceOnUse" id="color-11"><stop offset="0" stop-color="#ff0000"/><stop offset="1" stop-color="#a80000"/></linearGradient><linearGradient x1="320.44445" y1="58.6415" x2="320.44445" y2="138" gradientUnits="userSpaceOnUse" id="color-12"><stop offset="0" stop-color="#ff0000"/><stop offset="1" stop-color="#a80000"/></linearGradient><linearGradient x1="320.44445" y1="58.6415" x2="320.44445" y2="138" gradientUnits="userSpaceOnUse" id="color-13"><stop offset="0" stop-color="#ff0000"/><stop offset="1" stop-color="#a80000"/></linearGradient><linearGradient x1="294.5" y1="30.5" x2="294.5" y2="70" gradientUnits="userSpaceOnUse" id="color-14"><stop offset="0" stop-color="#ff0000"/><stop offset="1" stop-color="#a80000"/></linearGradient><linearGradient x1="294.5" y1="30.5" x2="294.5" y2="70" gradientUnits="userSpaceOnUse" id="color-15"><stop offset="0" stop-color="#ff0000"/><stop offset="1" stop-color="#a80000"/></linearGradient><linearGradient x1="350.5" y1="32.5" x2="350.5" y2="75" gradientUnits="userSpaceOnUse" id="color-16"><stop offset="0" stop-color="#ff0000"/><stop offset="1" stop-color="#a80000"/></linearGradient><linearGradient x1="350.5" y1="32.5" x2="350.5" y2="75" gradientUnits="userSpaceOnUse" id="color-17"><stop offset="0" stop-color="#ff0000"/><stop offset="1" stop-color="#a80000"/></linearGradient><linearGradient x1="351.5" y1="14" x2="351.5" y2="38" gradientUnits="userSpaceOnUse" id="color-18"><stop offset="0" stop-color="#ff0000"/><stop offset="1" stop-color="#a80000"/></linearGradient><linearGradient x1="351.5" y1="14" x2="351.5" y2="38" gradientUnits="userSpaceOnUse" id="color-19"><stop offset="0" stop-color="#ff0000"/><stop offset="1" stop-color="#a80000"/></linearGradient><linearGradient x1="294.5" y1="11" x2="294.5" y2="35" gradientUnits="userSpaceOnUse" id="color-20"><stop offset="0" stop-color="#ff0000"/><stop offset="1" stop-color="#a80000"/></linearGradient><linearGradient x1="391.88051" y1="177.55738" x2="391.88051" y2="216.84475" gradientUnits="userSpaceOnUse" id="color-21"><stop offset="0" stop-color="#ff0000"/><stop offset="1" stop-color="#a80000"/></linearGradient><linearGradient x1="391.88051" y1="177.55738" x2="391.88051" y2="216.84475" gradientUnits="userSpaceOnUse" id="color-22"><stop offset="0" stop-color="#ff0000"/><stop offset="1" stop-color="#a80000"/></linearGradient><linearGradient x1="412.44445" y1="204.05589" x2="412.44445" y2="228.89064" gradientUnits="userSpaceOnUse" id="color-23"><stop offset="0" stop-color="#ff0000"/><stop offset="1" stop-color="#a80000"/></linearGradient><linearGradient x1="412.44445" y1="204.05589" x2="412.44445" y2="228.89064" gradientUnits="userSpaceOnUse" id="color-24"><stop offset="0" stop-color="#ff0000"/><stop offset="1" stop-color="#a80000"/></linearGradient><linearGradient x1="227.40297" y1="199.0559" x2="227.40297" y2="224.3971" gradientUnits="userSpaceOnUse" id="color-25"><stop offset="0" stop-color="#ff0000"/><stop offset="1" stop-color="#a80000"/></linearGradient><linearGradient x1="227.40297" y1="199.0559" x2="227.40297" y2="224.3971" gradientUnits="userSpaceOnUse" id="color-26"><stop offset="0" stop-color="#ff0000"/><stop offset="1" stop-color="#a80000"/></linearGradient><linearGradient x1="320.5" y1="101" x2="320.5" y2="128" gradientUnits="userSpaceOnUse" id="color-27"><stop offset="0" stop-color="#ff4242"/><stop offset="1" stop-color="#a84040"/></linearGradient><linearGradient x1="320.5" y1="101" x2="320.5" y2="128" gradientUnits="userSpaceOnUse" id="color-28"><stop offset="0" stop-color="#ff0000"/><stop offset="1" stop-color="#a80000"/></linearGradient><linearGradient x1="320" y1="151.5" x2="320" y2="208.5" gradientUnits="userSpaceOnUse" id="color-29"><stop offset="0" stop-color="#ff4242"/><stop offset="1" stop-color="#a84040"/></linearGradient><linearGradient x1="320" y1="151.5" x2="320" y2="208.5" gradientUnits="userSpaceOnUse" id="color-30"><stop offset="0" stop-color="#ff0000"/><stop offset="1" stop-color="#a80000"/></linearGradient><linearGradient x1="320.66667" y1="102.66667" x2="320.66667" y2="113.66667" gradientUnits="userSpaceOnUse" id="color-31"><stop offset="0" stop-color="#000000"/><stop offset="1" stop-color="#101010"/></linearGradient><linearGradient x1="302.76471" y1="77.5" x2="302.76471" y2="98.5" gradientUnits="userSpaceOnUse" id="color-32"><stop offset="0" stop-color="#000000"/><stop offset="1" stop-color="#101010"/></linearGradient><linearGradient x1="302.7647" y1="77.5" x2="302.7647" y2="98.5" gradientUnits="userSpaceOnUse" id="color-33"><stop offset="0" stop-color="#ff0000"/><stop offset="1" stop-color="#a80000"/></linearGradient><linearGradient x1="338.76471" y1="79" x2="338.76471" y2="100" gradientUnits="userSpaceOnUse" id="color-34"><stop offset="0" stop-color="#000000"/><stop offset="1" stop-color="#101010"/></linearGradient><linearGradient x1="338.76471" y1="79" x2="338.76471" y2="100" gradientUnits="userSpaceOnUse" id="color-35"><stop offset="0" stop-color="#ff0000"/><stop offset="1" stop-color="#a80000"/></linearGradient><linearGradient x1="330.5" y1="221.5" x2="330.5" y2="315.5" gradientUnits="userSpaceOnUse" id="color-36"><stop offset="0" stop-color="#ff0000"/><stop offset="1" stop-color="#a80000"/></linearGradient><linearGradient x1="330.5" y1="221.5" x2="330.5" y2="315.5" gradientUnits="userSpaceOnUse" id="color-37"><stop offset="0" stop-color="#ff0000"/><stop offset="1" stop-color="#a80000"/></linearGradient><linearGradient x1="303" y1="219.5" x2="303" y2="313.5" gradientUnits="userSpaceOnUse" id="color-38"><stop offset="0" stop-color="#ff0000"/><stop offset="1" stop-color="#a80000"/></linearGradient><linearGradient x1="303" y1="219.5" x2="303" y2="313.5" gradientUnits="userSpaceOnUse" id="color-39"><stop offset="0" stop-color="#ff0000"/><stop offset="1" stop-color="#a80000"/></linearGradient><linearGradient x1="350.05882" y1="41" x2="350.05882" y2="66" gradientUnits="userSpaceOnUse" id="color-40"><stop offset="0" stop-color="#ff4242"/><stop offset="1" stop-color="#a84040"/></linearGradient><linearGradient x1="350.05882" y1="41" x2="350.05882" y2="66" gradientUnits="userSpaceOnUse" id="color-41"><stop offset="0" stop-color="#ff0000"/><stop offset="1" stop-color="#a80000"/></linearGradient><linearGradient x1="351.05882" y1="18" x2="351.05882" y2="34.14584" gradientUnits="userSpaceOnUse" id="color-42"><stop offset="0" stop-color="#ff4242"/><stop offset="1" stop-color="#a84040"/></linearGradient><linearGradient x1="351.05882" y1="18" x2="351.05882" y2="34.14584" gradientUnits="userSpaceOnUse" id="color-43"><stop offset="0" stop-color="#ff0000"/><stop offset="1" stop-color="#a80000"/></linearGradient><linearGradient x1="294.05882" y1="39" x2="294.05882" y2="64" gradientUnits="userSpaceOnUse" id="color-44"><stop offset="0" stop-color="#ff4242"/><stop offset="1" stop-color="#a84040"/></linearGradient><linearGradient x1="294.05882" y1="39" x2="294.05882" y2="64" gradientUnits="userSpaceOnUse" id="color-45"><stop offset="0" stop-color="#ff0000"/><stop offset="1" stop-color="#a80000"/></linearGradient><linearGradient x1="295.05881" y1="15.00001" x2="295.05881" y2="31.14583" gradientUnits="userSpaceOnUse" id="color-46"><stop offset="0" stop-color="#ff4242"/><stop offset="1" stop-color="#a84040"/></linearGradient><linearGradient x1="295.05881" y1="15.00001" x2="295.05881" y2="31.14583" gradientUnits="userSpaceOnUse" id="color-47"><stop offset="0" stop-color="#ff0000"/><stop offset="1" stop-color="#a80000"/></linearGradient><linearGradient x1="302.77205" y1="82.75" x2="302.77205" y2="93" gradientUnits="userSpaceOnUse" id="color-48"><stop offset="0" stop-color="#ffffff"/><stop offset="1" stop-color="#a8a8a8"/></linearGradient><linearGradient x1="338.52205" y1="84.25" x2="338.52205" y2="94.5" gradientUnits="userSpaceOnUse" id="color-49"><stop offset="0" stop-color="#ffffff"/><stop offset="1" stop-color="#a8a8a8"/></linearGradient><linearGradient x1="302.625" y1="86.11564" x2="302.625" y2="89.83438" gradientUnits="userSpaceOnUse" id="color-50"><stop offset="0" stop-color="#ff0000"/><stop offset="1" stop-color="#a80000"/></linearGradient><linearGradient x1="338.625" y1="87.46564" x2="338.625" y2="91.18438" gradientUnits="userSpaceOnUse" id="color-51"><stop offset="0" stop-color="#ff0000"/><stop offset="1" stop-color="#a80000"/></linearGradient></defs><g transform="translate(-215.06687,-10.5)"><g data-paper-data="{&quot;isPaintingLayer&quot;:true}" fill-rule="nonzero" stroke-linejoin="miter" stroke-miterlimit="10" stroke-dasharray="" stroke-dashoffset="0" style="mix-blend-mode: normal"><path d="M285.19491,168.98381c-12.00841,10.36515 -23.97787,16.17874 -26.73456,12.98501c-2.75669,-3.19373 4.74331,-14.18537 16.75171,-24.55052c12.0084,-10.36515 23.97787,-16.17873 26.73456,-12.98501c2.75669,3.19373 -4.74331,14.18536 -16.75171,24.55051z" data-paper-data="{&quot;index&quot;:null}" fill="url(#color-1)" stroke="#000000" stroke-width="1" stroke-linecap="butt"/><path d="M253.19491,197.98381c-12.0084,10.36515 -23.97787,16.17874 -26.73456,12.98501c-2.75669,-3.19373 4.74331,-14.18537 16.75171,-24.55052c12.0084,-10.36515 23.97787,-16.17873 26.73456,-12.98501c2.75669,3.19373 -4.74331,14.18536 -16.75171,24.55051z" data-paper-data="{&quot;index&quot;:null}" fill="url(#color-2)" stroke="url(#color-3)" stroke-width="1" stroke-linecap="butt"/><path d="M338.13738,149.4333c2.75669,-3.19373 14.72616,2.61986 26.73457,12.98501c12.0084,10.36515 19.5084,21.35679 16.75171,24.55051c-2.75669,3.19373 -14.72616,-2.61986 -26.73457,-12.98501c-12.0084,-10.36515 -19.5084,-21.35679 -16.75171,-24.55051z" data-paper-data="{&quot;index&quot;:null}" fill="url(#color-4)" stroke="url(#color-5)" stroke-width="1" stroke-linecap="butt"/><path d="M358.28828,180c0,25.29232 -17.14225,45.7958 -38.28829,45.7958c-21.14604,0 -38.28829,-20.50348 -38.28829,-45.7958c0,-25.29232 17.14225,-45.7958 38.28829,-45.7958c21.14604,0 38.28829,20.50348 38.28829,45.7958z" fill="url(#color-6)" stroke="url(#color-7)" stroke-width="1" stroke-linecap="butt"/><path d="M313,324c0,7.45584 -7.83502,13.5 -17.5,13.5c-9.66498,0 -17.5,-6.04416 -17.5,-13.5c0,-7.45584 7.83502,-13.5 17.5,-13.5c9.66498,0 17.5,6.04416 17.5,13.5z" fill="url(#color-8)" stroke="url(#color-9)" stroke-width="1" stroke-linecap="butt"/><path d="M334.5,311.5c9.66499,0 17.5,6.04415 17.5,13.5c0,7.45585 -7.83501,13.5 -17.5,13.5c-9.66499,0 -17.5,-6.04415 -17.5,-13.5c0,-7.45585 7.83501,-13.5 17.5,-13.5z" data-paper-data="{&quot;index&quot;:null}" fill="url(#color-10)" stroke="url(#color-11)" stroke-width="1" stroke-linecap="butt"/><path d="M359.38889,98.32075c0,21.91424 -17.43602,39.67925 -38.94444,39.67925c-21.50842,0 -38.94444,-17.765 -38.94444,-39.67925c0,-21.91424 17.43602,-39.67925 38.94444,-39.67925c21.50842,0 38.94444,17.765 38.94444,39.67925z" fill="url(#color-12)" stroke="url(#color-13)" stroke-width="1" stroke-linecap="butt"/><path d="M306.5,50.25c0,10.90762 -5.37258,19.75 -12,19.75c-6.62742,0 -12,-8.84238 -12,-19.75c0,-10.90762 5.37258,-19.75 12,-19.75c6.62742,0 12,8.84238 12,19.75z" fill="url(#color-14)" stroke="url(#color-15)" stroke-width="1" stroke-linecap="butt"/><path d="M362.5,53.75c0,11.73605 -5.37259,21.25 -12,21.25c-6.62741,0 -12,-9.51395 -12,-21.25c0,-11.73605 5.37259,-21.25 12,-21.25c6.62741,0 12,9.51395 12,21.25z" fill="url(#color-16)" stroke="url(#color-17)" stroke-width="1" stroke-linecap="butt"/><path d="M359.5,26c0,6.62742 -3.58172,12 -8,12c-4.41828,0 -8,-5.37258 -8,-12c0,-6.62742 3.58172,-12 8,-12c4.41828,0 8,5.37258 8,12z" fill="url(#color-18)" stroke="url(#color-19)" stroke-width="1" stroke-linecap="butt"/><path d="M302.5,23c0,6.62741 -3.58172,12 -8,12c-4.41828,0 -8,-5.37259 -8,-12c0,-6.62741 3.58172,-12 8,-12c4.41828,0 8,5.37259 8,12z" fill="url(#color-20)" stroke="#000000" stroke-width="1" stroke-linecap="butt"/><path d="M370.13738,178.4333c2.75669,-3.19373 14.72616,2.61986 26.73456,12.98501c12.0084,10.36515 19.5084,21.35679 16.75171,24.55052c-2.75669,3.19373 -14.72616,-2.61986 -26.73456,-12.98501c-12.0084,-10.36515 -19.5084,-21.35679 -16.75171,-24.55051z" data-paper-data="{&quot;index&quot;:null}" fill="url(#color-21)" stroke="url(#color-22)" stroke-width="1" stroke-linecap="butt"/><path d="M404.71485,209.59182c4.77655,-5.70764 12.10937,-7.25367 16.37831,-3.45315c4.26894,3.80052 3.85744,11.5084 -0.91911,17.21604c-4.77655,5.70764 -12.10937,7.25367 -16.37831,3.45315c-4.26894,-3.80052 -3.85744,-11.5084 0.91911,-17.21604z" data-paper-data="{&quot;index&quot;:null}" fill="url(#color-23)" stroke="url(#color-24)" stroke-width="1" stroke-linecap="butt"/><path d="M236.22806,222.27185c-4.356,3.87802 -11.83836,2.30047 -16.71232,-3.52357c-4.87396,-5.82404 -5.29385,-13.68911 -0.93786,-17.56713c4.356,-3.87802 11.83836,-2.30047 16.71232,3.52357c4.87396,5.82404 5.29385,13.68911 0.93786,17.56713z" data-paper-data="{&quot;index&quot;:null}" fill="url(#color-25)" stroke="url(#color-26)" stroke-width="1" stroke-linecap="butt"/><path d="M338.5,114.5c0,7.45584 -8.05887,13.5 -18,13.5c-9.94113,0 -18,-6.04416 -18,-13.5c0,-7.45584 8.05887,-13.5 18,-13.5c9.94113,0 18,6.04416 18,13.5z" fill="url(#color-27)" stroke="url(#color-28)" stroke-width="1" stroke-linecap="butt"/><path d="M341,180c0,15.74012 -9.40202,28.5 -21,28.5c-11.59798,0 -21,-12.75988 -21,-28.5c0,-15.74012 9.40202,-28.5 21,-28.5c11.59798,0 21,12.75988 21,28.5z" fill="url(#color-29)" stroke="url(#color-30)" stroke-width="1" stroke-linecap="butt"/><path d="M329.16667,108.16667c0,3.03757 -3.80558,5.5 -8.5,5.5c-4.69442,0 -8.5,-2.46243 -8.5,-5.5c0,-3.03757 3.80558,-5.5 8.5,-5.5c4.69442,0 8.5,2.46243 8.5,5.5z" fill="url(#color-31)" stroke="#000000" stroke-width="1" stroke-linecap="butt"/><path d="M312.02941,88c0,5.79899 -4.14795,10.5 -9.26471,10.5c-5.11676,0 -9.26471,-4.70101 -9.26471,-10.5c0,-5.79899 4.14795,-10.5 9.26471,-10.5c5.11676,0 9.26471,4.70101 9.26471,10.5z" fill="url(#color-32)" stroke="url(#color-33)" stroke-width="1" stroke-linecap="butt"/><path d="M348.02941,89.5c0,5.79899 -4.14795,10.5 -9.2647,10.5c-5.11676,0 -9.2647,-4.70101 -9.2647,-10.5c0,-5.79899 4.14795,-10.5 9.2647,-10.5c5.11676,0 9.2647,4.70101 9.2647,10.5z" fill="url(#color-34)" stroke="url(#color-35)" stroke-width="1" stroke-linecap="butt"/><path d="M343,268.5c0,25.95738 -5.59644,47 -12.5,47c-6.90356,0 -12.5,-21.04262 -12.5,-47c0,-25.95738 5.59644,-47 12.5,-47c6.90356,0 12.5,21.04262 12.5,47z" fill="url(#color-36)" stroke="url(#color-37)" stroke-width="1" stroke-linecap="butt"/><path d="M315.5,266.5c0,25.95738 -5.59644,47 -12.5,47c-6.90356,0 -12.5,-21.04262 -12.5,-47c0,-25.95738 5.59644,-47 12.5,-47c6.90356,0 12.5,21.04262 12.5,47z" fill="url(#color-38)" stroke="url(#color-39)" stroke-width="1" stroke-linecap="butt"/><path d="M357.11764,53.5c0,6.90356 -3.16035,12.5 -7.05882,12.5c-3.89848,0 -7.05882,-5.59644 -7.05882,-12.5c0,-6.90356 3.16035,-12.5 7.05882,-12.5c3.89848,0 7.05882,5.59644 7.05882,12.5z" fill="url(#color-40)" stroke="url(#color-41)" stroke-width="1" stroke-linecap="butt"/><path d="M351.05882,18c2.51776,0 4.55882,3.61437 4.55882,8.07292c0,4.45855 -2.04106,8.07292 -4.55882,8.07292c-2.51776,0 -4.55882,-3.61437 -4.55882,-8.07292c0,-4.45855 2.04106,-8.07292 4.55882,-8.07292z" data-paper-data="{&quot;index&quot;:null}" fill="url(#color-42)" stroke="url(#color-43)" stroke-width="1" stroke-linecap="butt"/><path d="M294.05882,39c3.89848,0 7.05883,5.59644 7.05883,12.5c0,6.90356 -3.16035,12.5 -7.05883,12.5c-3.89848,0 -7.05882,-5.59644 -7.05882,-12.5c0,-6.90356 3.16034,-12.5 7.05882,-12.5z" data-paper-data="{&quot;index&quot;:null}" fill="url(#color-44)" stroke="url(#color-45)" stroke-width="1" stroke-linecap="butt"/><path d="M299.61764,23.07292c0,4.45855 -2.04105,8.07291 -4.55882,8.07291c-2.51776,0 -4.55883,-3.61436 -4.55883,-8.07291c0,-4.45855 2.04106,-8.07291 4.55883,-8.07291c2.51776,0 4.55882,3.61436 4.55882,8.07291z" data-paper-data="{&quot;index&quot;:null}" fill="url(#color-46)" stroke="url(#color-47)" stroke-width="1" stroke-linecap="butt"/><path d="M307.29411,87.875c0,2.83046 -2.02459,5.125 -4.52206,5.125c-2.49747,0 -4.52206,-2.29454 -4.52206,-5.125c0,-2.83046 2.02459,-5.125 4.52206,-5.125c2.49747,0 4.52206,2.29454 4.52206,5.125z" fill="url(#color-48)" stroke="#000000" stroke-width="2" stroke-linecap="butt"/><path d="M343.04411,89.375c0,2.83046 -2.0246,5.125 -4.52206,5.125c-2.49746,0 -4.52206,-2.29454 -4.52206,-5.125c0,-2.83046 2.0246,-5.125 4.52206,-5.125c2.49746,0 4.52206,2.29454 4.52206,5.125z" fill="url(#color-49)" stroke="#000000" stroke-width="2" stroke-linecap="butt"/><path d="M304.625,87.975c0,1.0269 -0.89543,1.85938 -2,1.85938c-1.10457,0 -2,-0.83247 -2,-1.85937c0,-1.0269 0.89543,-1.85937 2,-1.85937c1.10457,0 2,0.83247 2,1.85938z" fill="url(#color-50)" stroke="#000000" stroke-width="0" stroke-linecap="butt"/><path d="M340.625,89.325c0,1.0269 -0.89543,1.85938 -2,1.85938c-1.10457,0 -2,-0.83247 -2,-1.85937c0,-1.0269 0.89543,-1.85937 2,-1.85937c1.10457,0 2,0.83247 2,1.85938z" fill="url(#color-51)" stroke="#000000" stroke-width="0" stroke-linecap="butt"/><g fill="#000000" stroke="#000000" stroke-width="1" stroke-linecap="round"><path d="M322.24443,147.07713c0,0 0.37028,0.04952 -3.90526,0.00987c-0.4613,-0.00428 -0.75547,1.6178 -1.26897,1.84905c-4.30918,1.94062 -6.98615,3.13964 -8.82139,3.50497c-0.03411,0.00679 -0.31297,0.0559 -0.34547,0.06494c-0.18529,0.05151 -0.46677,-0.03321 -0.59519,-0.02932c-0.72869,0.02208 -1.3926,-4.99027 -1.3926,-4.99027c0,0 -0.05612,-1.94126 0.11424,-4.14588c0.24264,-3.13992 1.43602,-6.11175 2.49767,-6.43636c0.50869,-0.15554 1.26218,0.3009 2.35849,0.6135c0.37819,0.10784 0.85543,0.0633 1.22157,0.30023c1.94111,1.25608 1.48344,0.71406 2.06741,1.19234c0.05043,0.04131 0.91806,0.53346 0.9658,0.57611c1.07624,0.9615 1.89894,2.49864 2.92904,2.58061c3.00605,0.2392 4.17463,0.08113 4.17463,0.08113"/><path d="M318.14963,142.24648c0,0 1.16858,0.15807 4.17463,-0.08113c1.03011,-0.08197 1.8528,-1.6191 2.92904,-2.58061c0.04774,-0.04265 0.91537,-0.5348 0.9658,-0.57611c0.58397,-0.47828 0.1263,0.06374 2.06741,-1.19234c0.36615,-0.23693 0.84339,-0.19239 1.22157,-0.30023c1.09631,-0.3126 1.8498,-0.76904 2.35849,-0.6135c1.06165,0.32461 2.25502,3.29644 2.49767,6.43636c0.17037,2.20462 0.11424,4.14588 0.11424,4.14588c0,0 -0.66391,5.01235 -1.3926,4.99027c-0.12841,-0.00389 -0.4099,0.08083 -0.59519,0.02932c-0.0325,-0.00903 -0.31136,-0.05815 -0.34547,-0.06494c-1.83523,-0.36533 -4.5122,-1.56435 -8.82139,-3.50497c-0.5135,-0.23125 -0.80767,-1.85332 -1.26897,-1.84905c-4.27555,0.03964 -3.90526,-0.00987 -3.90526,-0.00987" data-paper-data="{&quot;index&quot;:null}"/></g></g></g></svg>