<svg version="1.1" xmlns="http://www.w3.org/2000/svg" xmlns:xlink="http://www.w3.org/1999/xlink" width="880.66667" height="579.84444" viewBox="0,0,880.66667,579.84444"><defs><linearGradient x1="297.99358" y1="0.03716" x2="297.99358" y2="340.878" gradientUnits="userSpaceOnUse" id="color-1"><stop offset="0" stop-color="#232323"/><stop offset="1" stop-color="#3a3a3a"/></linearGradient><linearGradient x1="306.00415" y1="103.64077" x2="306.00415" y2="133.6708" gradientUnits="userSpaceOnUse" id="color-2"><stop offset="0" stop-color="#66411f"/><stop offset="1" stop-color="#352210"/></linearGradient><linearGradient x1="-129.57016" y1="67.71489" x2="723.55468" y2="67.71489" gradientUnits="userSpaceOnUse" id="color-3"><stop offset="0" stop-color="#b3b3b3"/><stop offset="1" stop-color="#cacaca"/></linearGradient><linearGradient x1="299.99622" y1="256.79392" x2="299.99622" y2="370.90803" gradientUnits="userSpaceOnUse" id="color-4"><stop offset="0" stop-color="#66411f"/><stop offset="1" stop-color="#352210"/></linearGradient><linearGradient x1="297.99358" y1="172.70983" x2="297.99358" y2="208.74587" gradientUnits="userSpaceOnUse" id="color-5"><stop offset="0" stop-color="#66411f"/><stop offset="1" stop-color="#352210"/></linearGradient><linearGradient x1="-9.5" y1="444.38485" x2="656.5" y2="444.38485" gradientUnits="userSpaceOnUse" id="color-6"><stop offset="0" stop-color="#484848"/><stop offset="1" stop-color="#666666"/></linearGradient><linearGradient x1="-137.08558" y1="461.73048" x2="736.58107" y2="461.73048" gradientUnits="userSpaceOnUse" id="color-7"><stop offset="0" stop-color="#484848"/><stop offset="1" stop-color="#666666"/></linearGradient></defs><g transform="translate(137.08558,7.75361)"><g data-paper-data="{&quot;isPaintingLayer&quot;:true}" fill-rule="nonzero" stroke="none" stroke-linecap="butt" stroke-linejoin="miter" stroke-miterlimit="10" stroke-dasharray="" stroke-dashoffset="0" style="mix-blend-mode: normal"><path d="M-133.57543,340.878v-340.84084h863.13804v340.84084z" fill="url(#color-1)" stroke-width="0"/><path d="M-131.5728,133.6708v-30.03003h875.15388v30.03003z" fill="url(#color-2)" stroke-width="0"/><path d="M-129.57016,132.38962v-129.34946h853.12483v129.34946c0,0 -301.0888,-39.03904 -444.58618,-39.03904c-140.82742,0 -408.53866,39.03904 -408.53866,39.03904z" fill="url(#color-3)" stroke-width="0"/><path d="M-133.57543,370.90803v-114.11411h867.14332v114.11411z" fill="url(#color-4)" stroke-width="0"/><path d="M-133.57543,208.74587v-36.03604h863.13804v36.03604z" fill="url(#color-5)" stroke-width="0"/><path d="M-135.57807,262.79992l8.01057,-129.12913c0,0 247.47942,-39.66873 384.54467,-39.19732c152.36341,0.52402 472.58544,36.19432 472.58544,36.19432l6.00792,132.13213c0,0 -7.29961,5.31774 -15.01589,4.31513c-62.07275,-8.06543 -856.1327,-4.31513 -856.1327,-4.31513z" fill="#212121" stroke-width="0"/><path d="M-9.5,505.38485v-122c0,0 4.95501,-39.71948 8.58921,-39.21098c34.60219,4.84162 216.62654,8.42876 317.41924,8.21635c1.68667,-0.00355 9.35088,0.99463 10.99156,0.99463c100.40238,0 282.457,-16.72423 320.27512,-22.04427c4.36161,-0.61357 8.72488,52.04427 8.72488,52.04427v122z" fill="url(#color-6)" stroke-width="0"/><text transform="translate(111.03754,70.60773) scale(1.80141,1.80141)" font-size="40" xml:space="preserve" fill="#000000" fill-rule="nonzero" stroke="none" stroke-width="1" stroke-linecap="butt" stroke-linejoin="miter" stroke-miterlimit="10" stroke-dasharray="" stroke-dashoffset="0" font-family="Sans Serif" font-weight="normal" text-anchor="start" style="mix-blend-mode: normal"><tspan x="0" dy="0">Prize Corner</tspan></text><path d="M-137.08558,572.09084v-220.72072h873.66667v220.72072z" fill="url(#color-7)" stroke-width="0"/></g></g></svg>